{"asset":{"version":"2.0","generator":"VECTARY"},"nodes":[{"translation":[0,-5.551115123125783e-20,0.0003470475096386054],"scale":[0.001,0.001,0.001],"rotation":[-0.7071067811865475,0,0,0.7071067811865476],"name":"sert5","children":[1,2]},{"translation":[0,0.3470475096386054,0],"scale":[1,0.10869565217391304,1],"rotation":[0,0,0,1],"name":"Box","mesh":0},{"translation":[1.028875841333594,-2.8470475096385974,64.0099193134332],"scale":[0.6100272389077246,0.6100272389077245,0.6100272389077245],"rotation":[0.7071067811865475,0,0,0.7071067811865476],"name":"logo","mesh":1}],"materials":[{"pbrMetallicRoughness":{"baseColorFactor":[0,0,0,1],"metallicRoughnessTexture":{"index":1,"extensions":{"KHR_texture_transform":{"offset":[0,0],"scale":[1,1],"rotation":0}},"texCoord":0},"metallicFactor":0,"roughnessFactor":0.47},"name":"Plastic Textured","normalTexture":{"index":0,"scale":0.4,"extensions":{"KHR_texture_transform":{"offset":[0,0],"scale":[1,1],"rotation":0}},"texCoord":0},"emissiveFactor":[0,0,0],"extensions":{},"alphaMode":"OPAQUE","doubleSided":false},{"pbrMetallicRoughness":{"baseColorFactor":[1,1,1,1],"baseColorTexture":{"index":2,"extensions":{"KHR_texture_transform":{"offset":[0,0],"scale":[1,1],"rotation":0}},"texCoord":0},"metallicFactor":0,"roughnessFactor":0.2},"name":"Eagle Eye","emissiveTexture":{"index":3,"extensions":{"KHR_texture_transform":{"offset":[0,0],"scale":[1,1],"rotation":0}},"texCoord":0},"emissiveFactor":[0,0,0],"extensions":{},"alphaMode":"BLEND","doubleSided":false}],"textures":[{"sampler":0,"source":0},{"sampler":0,"source":1},{"sampler":0,"source":2},{"sampler":0,"source":3}],"images":[{"uri":"Plastic_001_Normal.jpg","mimeType":"image/jpeg"},{"uri":"metallicTexture&Plastic_001_Rough.jpg","mimeType":"image/jpeg"},{"uri":"logo&logo.png","mimeType":"image/png"},{"uri":"logo.png","mimeType":"image/png"}],"samplers":[{"wrapS":10497,"wrapT":10497}],"meshes":[{"primitives":[{"mode":4,"attributes":{"POSITION":1,"NORMAL":2,"TEXCOORD_0":3},"material":0,"indices":0}]},{"primitives":[{"mode":4,"attributes":{"POSITION":5,"NORMAL":6,"TEXCOORD_0":7},"material":1,"indices":4}]}],"accessors":[{"bufferView":0,"byteOffset":0,"componentType":5125,"count":2916,"type":"SCALAR"},{"bufferView":1,"byteOffset":0,"componentType":5126,"count":596,"max":[104.5,23,130],"min":[-104.5,-23,0],"type":"VEC3"},{"bufferView":2,"byteOffset":0,"componentType":5126,"count":596,"type":"VEC3"},{"bufferView":3,"byteOffset":0,"componentType":5126,"count":596,"type":"VEC2"},{"bufferView":4,"byteOffset":0,"componentType":5125,"count":4998,"type":"SCALAR"},{"bufferView":5,"byteOffset":0,"componentType":5126,"count":868,"max":[121.19999694824219,58.053096771240234,0],"min":[-121.19999694824219,-58.053096771240234,0],"type":"VEC3"},{"bufferView":6,"byteOffset":0,"componentType":5126,"count":868,"type":"VEC3"},{"bufferView":7,"byteOffset":0,"componentType":5126,"count":868,"type":"VEC2"}],"bufferViews":[{"buffer":0,"byteOffset":0,"byteLength":11664,"target":34963},{"buffer":0,"byteOffset":11664,"byteLength":7152,"target":34962},{"buffer":0,"byteOffset":18816,"byteLength":7152,"target":34962},{"buffer":0,"byteOffset":25968,"byteLength":4768,"target":34962},{"buffer":0,"byteOffset":30736,"byteLength":19992,"target":34963},{"buffer":0,"byteOffset":50728,"byteLength":10416,"target":34962},{"buffer":0,"byteOffset":61144,"byteLength":10416,"target":34962},{"buffer":0,"byteOffset":71560,"byteLength":6944,"target":34962}],"scene":0,"scenes":[{"nodes":[0],"name":"sert5"}],"extensionsUsed":["KHR_texture_transform"],"buffers":[{"byteLength":78504,"uri":"sert5.bin"}]}