<svg width="353" height="87" viewBox="0 0 353 87" fill="none" xmlns="http://www.w3.org/2000/svg">
<path d="M195.738 48.8132C192.848 50.438 192.656 51.1731 192.424 61.309C192.232 69.4332 192.155 70.3617 191.5 71.0968L190.768 71.9092H193.388C195.97 71.9092 196.008 71.9092 195.353 71.1741C194.736 70.5165 194.659 69.7814 194.814 65.6419C194.929 61.6185 195.083 60.6126 195.815 59.2199C197.395 56.2023 201.133 55.622 203.445 58.0206C204.562 59.1812 204.562 59.1812 204.755 65.4485L204.948 71.7157L206.643 71.8318C208.3 71.9479 208.3 71.9479 207.683 71.0581C207.26 70.4778 207.067 69.3172 207.067 67.2668C207.028 65.6806 206.874 63.0886 206.72 61.5411C206.45 59.2199 206.181 58.4849 205.294 57.5564C204.716 56.9374 203.676 56.3184 202.944 56.2023C202.25 56.0863 201.672 55.8928 201.672 55.8155C201.672 55.7381 202.096 55.2739 202.636 54.7322C203.329 54.0359 203.599 53.3395 203.599 52.295C203.56 48.7358 199.245 46.8015 195.738 48.8132ZM201.326 49.9738C203.946 51.7147 203.021 54.6936 199.592 55.6607C197.472 56.241 196.008 57.2082 195.045 58.6009L194.313 59.7228L194.428 55.8542C194.582 51.5599 195.045 50.438 196.856 49.6256C198.551 48.8905 199.861 48.9679 201.326 49.9738Z" fill="url(#paint0_linear_510_140)"/>
<path d="M170.191 52.449C169.497 52.6811 169.574 54.306 170.229 54.8476C170.961 55.4666 172.387 54.7702 172.387 53.803C172.387 52.5651 171.385 51.9461 170.191 52.449Z" fill="url(#paint1_linear_510_140)"/>
<path d="M156.433 55.6607C151.886 57.0534 149.227 62.5083 150.999 66.8025C153.003 71.5223 159.207 73.6888 163.407 71.0968C166.836 68.969 166.605 63.9784 162.983 62.3922C161.789 61.8893 161.827 61.8893 164.023 61.8506C166.104 61.8506 166.22 61.8119 166.22 60.8834C166.22 57.0921 160.979 54.3067 156.433 55.6607ZM161.981 57.0921C162.752 57.7885 163.253 58.6783 163.407 59.6068L163.638 61.0769H159.245C156.818 61.0769 154.621 60.9221 154.352 60.7287C154.043 60.5353 153.928 60.071 154.082 59.4907C154.621 57.3629 156.471 56.0476 158.976 56.0476C160.44 56.0476 161.056 56.2797 161.981 57.0921ZM162.482 62.9338C166.066 64.52 166.297 68.35 162.945 70.2456C159.823 72.0252 156.201 71.0581 154.737 68.1566C153.928 66.5704 153.311 62.547 153.812 62.044C154.352 61.4637 160.594 62.1214 162.482 62.9338Z" fill="url(#paint2_linear_510_140)"/>
<path d="M179.976 55.7371C177.818 56.3174 176.238 58.097 176.238 59.9152C176.238 61.9269 177.433 63.281 180.092 64.1708C181.248 64.5576 182.249 65.0606 182.326 65.254C182.365 65.4474 181.17 66.7628 179.629 68.1942C177.741 69.9351 176.97 70.8636 177.24 71.1344C177.471 71.3665 178.704 71.7147 180.014 71.9468C184.06 72.6819 187.875 71.2505 189.147 68.5811C190.495 65.6796 188.916 63.2423 185.332 62.7781C184.33 62.6233 183.482 62.3912 183.367 62.2364C183.29 62.1204 184.33 60.8824 185.679 59.5284C187.066 58.1356 188.183 56.8977 188.183 56.7429C188.183 56.3174 184.33 55.2728 182.827 55.3115C182.057 55.3502 180.785 55.5436 179.976 55.7371ZM185.833 56.4721C186.527 56.7042 187.027 57.0524 186.95 57.1685C186.873 57.3232 185.679 58.5612 184.253 59.8765L181.671 62.2751L180.323 61.6948C177.972 60.7277 178.088 57.7875 180.477 56.5495C181.671 55.9305 184.215 55.8918 185.833 56.4721ZM186.18 65.9504C187.027 66.5307 187.297 68.0395 186.796 69.3935C186.218 70.8636 181.633 71.7921 178.974 70.941C178.126 70.6702 178.203 70.5541 180.708 68.0008C183.521 65.1766 184.523 64.7898 186.18 65.9504Z" fill="url(#paint3_linear_510_140)"/>
<path d="M215.274 55.6999C212.808 56.4349 211.613 59.6846 213.077 61.7737C213.617 62.5861 213.617 62.6635 212.731 62.973C211.112 63.592 209.764 65.6037 209.764 67.3833C209.802 69.9366 211.575 71.6388 214.811 72.1031C217.123 72.4512 219.551 71.7549 220.514 70.4782C221.208 69.6271 221.324 69.5884 221.324 70.2461C221.324 71.368 222.094 71.9096 223.79 71.9096C225.215 71.9096 225.254 71.8709 224.56 71.368C223.905 70.8651 223.79 70.1687 223.636 65.0621C223.52 61.8897 223.25 58.9882 222.98 58.5627C222.094 57.0152 220.668 56.048 218.665 55.6612C217.509 55.4677 216.387 55.4241 216.387 55.4241C216.387 55.4241 216.054 55.4241 215.274 55.6999ZM219.667 57.0926C220.553 57.6729 221.324 59.4525 221.324 60.8839C221.324 61.735 221.092 61.7737 217.817 62.0445C214.696 62.2766 214.272 62.2379 213.81 61.6189C213.232 60.8452 213.077 58.8722 213.463 57.7889C214.079 56.1641 217.624 55.7772 219.667 57.0926ZM221.131 65.5263C221.131 68.8921 220.168 70.5169 217.856 71.1359C214.927 71.9096 212.461 70.0527 212.461 67.0351C212.461 64.946 213.81 63.5146 216.045 63.2438C216.931 63.1277 218.087 62.9343 218.626 62.8569C221.015 62.47 221.131 62.5861 221.131 65.5263Z" fill="url(#paint4_linear_510_140)"/>
<path d="M136.936 56.086C134.239 57.1693 131.965 60.1869 131.927 62.7402C131.927 65.2548 133.815 68.079 136.319 69.2009L137.784 69.8972L136.127 70.168C132.042 70.787 130 72.3345 130 74.7718C130 78.4857 134.74 79.8397 138.285 77.1317L139.441 76.2806L140.789 77.209C141.521 77.712 142.754 78.2923 143.525 78.5244C146.376 79.4142 149.266 77.4412 149.266 74.6557C149.266 72.9148 148.534 71.7929 146.993 71.1352C145.143 70.4002 143.486 70.9418 139.441 73.6499C136.281 75.7776 135.472 76.1645 134.046 76.1645C132.196 76.1645 131.156 75.4295 131.156 74.1915C131.156 72.1024 132.928 71.2126 138.67 70.3228C143.371 69.6264 146.03 67.9242 146.993 65.0614C147.417 63.7073 147.301 61.154 146.762 59.8C146.531 59.2584 146.646 59.1423 147.378 59.2197C148.149 59.3357 148.303 59.1423 148.419 58.0591C148.534 56.8598 148.033 56.3955 147.532 57.208C147.147 57.8656 145.606 57.6335 143.409 56.6277C141.252 55.6218 138.67 55.3897 136.936 56.086ZM141.714 56.8211C143.756 57.5948 144.989 61.1927 144.45 64.8293C143.718 69.8586 137.861 70.8644 135.51 66.3767C134.662 64.7132 134.662 60.9219 135.587 59.0262C136.666 56.7437 139.171 55.8152 141.714 56.8211ZM146.531 72.9148C148.573 75.5455 146.454 78.6405 143.217 77.7507C141.868 77.3638 140.019 75.9711 140.019 75.3134C140.019 75.1586 140.635 74.3075 141.406 73.4564C142.562 72.1798 143.063 71.909 144.257 71.909C145.413 71.909 145.914 72.1411 146.531 72.9148Z" fill="url(#paint5_linear_510_140)"/>
<path d="M169.227 57.1308C170.075 57.7111 170.46 59.9936 170.46 64.6361C170.46 69.0464 170.113 71.0194 169.188 71.5997C168.919 71.7544 169.92 71.9092 171.385 71.9092C174.005 71.9092 174.044 71.9092 173.388 71.1741C172.81 70.5551 172.656 69.3172 172.502 63.6302L172.271 56.8213H170.498C169.458 56.8213 168.919 56.9761 169.227 57.1308Z" fill="url(#paint6_linear_510_140)"/>
<path d="M79.5038 0.0957031H90.2798V1.1277C88.8718 0.999704 87.3438 0.927704 85.6958 0.911704C85.6638 1.4237 85.6478 2.0877 85.6478 2.9037V10.3437C85.6478 11.7997 85.6878 13.3517 85.7678 14.9997H84.0398L84.0638 14.1597C84.1118 12.0957 84.1358 10.8237 84.1358 10.3437V2.9037C84.1358 1.8317 84.1278 1.1677 84.1118 0.911704C82.6558 0.927704 81.1198 0.999704 79.5038 1.1277V0.0957031Z" fill="url(#paint7_linear_510_140)"/>
<path d="M95.9969 10.0077C97.1329 10.0077 98.0849 10.1837 98.8529 10.5357C99.6209 10.8877 100.005 11.6317 100.005 12.7677C100.005 13.3597 99.7409 13.9037 99.2129 14.3997C98.7009 14.8797 97.8129 15.1197 96.5489 15.1197C96.0849 15.1197 95.6449 15.0957 95.2289 15.0477C94.7169 15.0157 94.3729 14.9997 94.1969 14.9997H92.0849C92.1009 14.7437 92.1249 14.2877 92.1569 13.6317C92.1889 12.9757 92.2049 12.1997 92.2049 11.3037V9.8877C92.2049 8.1917 92.1649 6.9837 92.0849 6.2637L93.7409 6.1197C93.6609 6.4717 93.6209 7.6957 93.6209 9.7917V11.3037C93.6209 12.6317 93.6449 13.6237 93.6929 14.2797H94.5809L96.0689 14.3037C96.7729 14.3037 97.3489 14.1677 97.7969 13.8957C98.2609 13.6077 98.4929 13.1837 98.4929 12.6237C98.4929 11.3757 97.5649 10.7517 95.7089 10.7517H94.6289L94.4609 9.9837L95.9969 10.0077ZM101.757 9.8877C101.757 7.9837 101.717 6.7757 101.637 6.2637L103.293 6.1197C103.213 6.7117 103.173 7.9437 103.173 9.8157V11.3037C103.173 12.7277 103.213 13.9597 103.293 14.9997H101.637C101.717 13.9597 101.757 12.7277 101.757 11.3037V9.8877Z" fill="url(#paint8_linear_510_140)"/>
<path d="M111.603 9.8397C111.827 9.8557 112.211 9.8717 112.755 9.8877C113.299 9.9037 113.923 9.9117 114.627 9.9117C115.267 9.9117 115.867 9.9037 116.427 9.8877C117.003 9.8717 117.419 9.8557 117.675 9.8397V10.7277C117.579 10.7277 117.283 10.7197 116.787 10.7037C116.291 10.6877 115.563 10.6797 114.603 10.6797C112.827 10.6797 111.827 10.6957 111.603 10.7277V9.8397Z" fill="url(#paint9_linear_510_140)"/>
<path d="M130.39 6.7677C129.83 6.7677 129.294 6.9197 128.782 7.2237C128.27 7.5117 127.854 7.9437 127.534 8.5197C127.214 9.0957 127.054 9.7917 127.054 10.6077C127.07 11.8397 127.406 12.7917 128.062 13.4637C128.734 14.1197 129.542 14.4477 130.486 14.4477C130.966 14.4477 131.382 14.3757 131.734 14.2317C132.086 14.0717 132.43 13.8797 132.766 13.6557L133.03 14.3037C132.742 14.5277 132.342 14.7357 131.83 14.9277C131.334 15.1197 130.846 15.2157 130.366 15.2157C129.47 15.2157 128.654 15.0397 127.918 14.6877C127.198 14.3197 126.63 13.7917 126.214 13.1037C125.798 12.4157 125.59 11.5837 125.59 10.6077C125.59 9.6317 125.806 8.7997 126.238 8.1117C126.686 7.4237 127.278 6.9037 128.014 6.5517C128.75 6.1997 129.558 6.0237 130.438 6.0237C131.046 6.0237 131.518 6.0797 131.854 6.1917C132.206 6.3037 132.566 6.4637 132.934 6.6717L132.622 7.3677C132.302 7.1757 131.974 7.0237 131.638 6.9117C131.318 6.7997 130.902 6.7517 130.39 6.7677Z" fill="url(#paint10_linear_510_140)"/>
<path d="M140.346 10.4397C142.17 10.6797 143.082 11.4637 143.082 12.7917C143.082 13.3837 142.818 13.9197 142.29 14.3997C141.778 14.8797 140.898 15.1197 139.65 15.1197C138.962 15.1197 138.282 15.0957 137.61 15.0477C136.81 15.0157 136.25 14.9997 135.93 14.9997H135.21C135.242 14.8877 135.266 14.5517 135.282 13.9917C135.314 13.4317 135.33 12.8557 135.33 12.2637V8.9757C135.33 8.3997 135.314 7.8237 135.282 7.2477C135.25 6.6717 135.218 6.3197 135.186 6.1917H135.714C135.938 6.1917 136.37 6.1757 137.01 6.1437C137.714 6.1117 138.266 6.0957 138.666 6.0957C139.098 6.0957 139.434 6.1197 139.674 6.1677C140.634 6.2797 141.314 6.5437 141.714 6.9597C142.114 7.3597 142.314 7.8237 142.314 8.3517C142.314 9.4877 141.658 10.1837 140.346 10.4397ZM139.266 14.3037C139.89 14.3037 140.434 14.1837 140.898 13.9437C141.378 13.7037 141.618 13.2717 141.618 12.6477C141.618 11.9757 141.322 11.5037 140.73 11.2317C140.154 10.9597 139.538 10.8237 138.882 10.8237H137.802L137.682 10.1997H138.234C138.89 10.1997 139.506 10.0797 140.082 9.8397C140.658 9.5997 140.946 9.1517 140.946 8.4957C140.946 7.8877 140.682 7.4717 140.154 7.2477C139.642 7.0077 139.034 6.8877 138.33 6.8877C138.042 6.8877 137.826 6.8957 137.682 6.9117L136.89 6.9357C136.874 6.9357 136.858 6.9277 136.842 6.9117C136.842 6.8957 136.818 6.8717 136.77 6.8397H136.746V12.2637C136.746 13.1437 136.77 13.8477 136.818 14.3757L137.13 14.2797L139.266 14.3037Z" fill="url(#paint11_linear_510_140)"/>
<path d="M149.226 15.2157C148.426 15.2157 147.69 15.0397 147.018 14.6877C146.346 14.3357 145.802 13.8157 145.386 13.1277C144.986 12.4237 144.786 11.5837 144.786 10.6077C144.786 9.6317 144.994 8.7997 145.41 8.1117C145.826 7.4237 146.378 6.9037 147.066 6.5517C147.754 6.1837 148.498 5.9997 149.298 5.9997C150.098 5.9997 150.834 6.1837 151.506 6.5517C152.194 6.9037 152.738 7.4317 153.138 8.1357C153.554 8.8237 153.762 9.6477 153.762 10.6077C153.762 11.5997 153.554 12.4477 153.138 13.1517C152.722 13.8397 152.17 14.3597 151.482 14.7117C150.794 15.0477 150.042 15.2157 149.226 15.2157ZM146.25 10.5117C146.25 11.8237 146.546 12.8077 147.138 13.4637C147.746 14.1037 148.482 14.4317 149.346 14.4477C149.842 14.4317 150.314 14.2877 150.762 14.0157C151.21 13.7277 151.57 13.3037 151.842 12.7437C152.13 12.1837 152.274 11.5037 152.274 10.7037C152.274 9.8557 152.13 9.1357 151.842 8.5437C151.554 7.9357 151.17 7.4877 150.69 7.1997C150.226 6.8957 149.73 6.7437 149.202 6.7437C148.706 6.7597 148.234 6.9117 147.786 7.1997C147.338 7.4877 146.97 7.9197 146.682 8.4957C146.394 9.0557 146.25 9.7277 146.25 10.5117Z" fill="url(#paint12_linear_510_140)"/>
<path d="M163.105 8.4957C163.105 9.0237 163.049 9.4157 162.937 9.6717C161.977 9.7837 160.425 10.0317 158.281 10.4157C158.121 10.4477 157.929 10.4877 157.705 10.5357C157.497 10.5677 157.257 10.6077 156.985 10.6557V10.7037C157.001 11.9517 157.297 12.8957 157.873 13.5357C158.449 14.1597 159.153 14.4717 159.985 14.4717C160.433 14.4717 160.865 14.3837 161.281 14.2077C161.697 14.0157 162.025 13.8157 162.265 13.6077L162.553 14.1837C162.409 14.3917 162.081 14.6237 161.569 14.8797C161.057 15.1197 160.481 15.2397 159.841 15.2397C159.041 15.2397 158.313 15.0717 157.657 14.7357C157.001 14.3837 156.473 13.8637 156.073 13.1757C155.689 12.4877 155.497 11.6557 155.497 10.6797C155.497 9.6717 155.705 8.8237 156.121 8.1357C156.537 7.4317 157.089 6.9037 157.777 6.5517C158.465 6.1997 159.209 6.0237 160.009 6.0237C160.489 6.0237 160.969 6.1277 161.449 6.3357C161.929 6.5277 162.321 6.8157 162.625 7.1997C162.945 7.5677 163.105 7.9997 163.105 8.4957ZM159.937 6.7677C159.153 6.7677 158.497 7.0797 157.969 7.7037C157.441 8.3117 157.121 9.0797 157.009 10.0077L161.857 9.1917C161.889 9.0317 161.905 8.8557 161.905 8.6637C161.905 8.1517 161.713 7.7117 161.329 7.3437C160.961 6.9597 160.497 6.7677 159.937 6.7677ZM158.161 1.7997L159.433 2.4957L158.737 3.7917L157.441 3.0717L158.161 1.7997ZM161.545 1.7997L162.817 2.4957L162.145 3.7917L160.873 3.0717L161.545 1.7997Z" fill="url(#paint13_linear_510_140)"/>
<path d="M176.511 10.4397C178.335 10.6797 179.247 11.4637 179.247 12.7917C179.247 13.3837 178.983 13.9197 178.455 14.3997C177.943 14.8797 177.063 15.1197 175.815 15.1197C175.127 15.1197 174.447 15.0957 173.775 15.0477C172.975 15.0157 172.415 14.9997 172.095 14.9997H171.375C171.407 14.8877 171.431 14.5517 171.447 13.9917C171.479 13.4317 171.495 12.8557 171.495 12.2637V8.9757C171.495 8.3997 171.479 7.8237 171.447 7.2477C171.415 6.6717 171.383 6.3197 171.351 6.1917H171.879C172.103 6.1917 172.535 6.1757 173.175 6.1437C173.879 6.1117 174.431 6.0957 174.831 6.0957C175.263 6.0957 175.599 6.1197 175.839 6.1677C176.799 6.2797 177.479 6.5437 177.879 6.9597C178.279 7.3597 178.479 7.8237 178.479 8.3517C178.479 9.4877 177.823 10.1837 176.511 10.4397ZM175.431 14.3037C176.055 14.3037 176.599 14.1837 177.063 13.9437C177.543 13.7037 177.783 13.2717 177.783 12.6477C177.783 11.9757 177.487 11.5037 176.895 11.2317C176.319 10.9597 175.703 10.8237 175.047 10.8237H173.967L173.847 10.1997H174.399C175.055 10.1997 175.671 10.0797 176.247 9.8397C176.823 9.5997 177.111 9.1517 177.111 8.4957C177.111 7.8877 176.847 7.4717 176.319 7.2477C175.807 7.0077 175.199 6.8877 174.495 6.8877C174.207 6.8877 173.991 6.8957 173.847 6.9117L173.055 6.9357C173.039 6.9357 173.023 6.9277 173.007 6.9117C173.007 6.8957 172.983 6.8717 172.935 6.8397H172.911V12.2637C172.911 13.1437 172.935 13.8477 172.983 14.3757L173.295 14.2797L175.431 14.3037Z" fill="url(#paint14_linear_510_140)"/>
<path d="M180.35 17.5677V14.2317H180.758C181.094 14.2157 181.478 13.9917 181.91 13.5597C182.358 13.1277 182.75 12.4317 183.086 11.4717C183.438 10.4957 183.638 9.2477 183.686 7.7277L183.758 6.1917H189.254C189.222 6.2717 189.198 6.5757 189.182 7.1037C189.166 7.6317 189.158 8.1997 189.158 8.8077V10.9677C189.158 12.5197 189.182 13.6077 189.23 14.2317H190.55V17.5677H189.806L189.782 16.6797C189.766 16.2157 189.71 15.6877 189.614 15.0957C188.702 15.0157 187.694 14.9757 186.59 14.9757C184.75 14.9757 182.974 15.0317 181.262 15.1437C181.166 15.6237 181.11 16.1357 181.094 16.6797L181.07 17.5677H180.35ZM187.646 8.9517C187.646 8.3757 187.63 7.7517 187.598 7.0797C187.214 7.0317 186.686 7.0077 186.014 7.0077C185.774 7.0077 185.246 7.0317 184.43 7.0797C184.43 7.1757 184.39 7.4957 184.31 8.0397C184.246 9.7997 184.022 11.1757 183.638 12.1677C183.27 13.1437 182.838 13.8317 182.342 14.2317H187.574C187.622 13.2237 187.646 12.4797 187.646 11.9997V8.9517Z" fill="url(#paint15_linear_510_140)"/>
<path d="M196.452 15.2157C195.652 15.2157 194.916 15.0397 194.244 14.6877C193.572 14.3357 193.028 13.8157 192.612 13.1277C192.212 12.4237 192.012 11.5837 192.012 10.6077C192.012 9.6317 192.22 8.7997 192.636 8.1117C193.052 7.4237 193.604 6.9037 194.292 6.5517C194.98 6.1837 195.724 5.9997 196.524 5.9997C197.324 5.9997 198.06 6.1837 198.732 6.5517C199.42 6.9037 199.964 7.4317 200.364 8.1357C200.78 8.8237 200.988 9.6477 200.988 10.6077C200.988 11.5997 200.78 12.4477 200.364 13.1517C199.948 13.8397 199.396 14.3597 198.708 14.7117C198.02 15.0477 197.268 15.2157 196.452 15.2157ZM193.476 10.5117C193.476 11.8237 193.772 12.8077 194.364 13.4637C194.972 14.1037 195.708 14.4317 196.572 14.4477C197.068 14.4317 197.54 14.2877 197.988 14.0157C198.436 13.7277 198.796 13.3037 199.068 12.7437C199.356 12.1837 199.5 11.5037 199.5 10.7037C199.5 9.8557 199.356 9.1357 199.068 8.5437C198.78 7.9357 198.396 7.4877 197.916 7.1997C197.452 6.8957 196.956 6.7437 196.428 6.7437C195.932 6.7597 195.46 6.9117 195.012 7.1997C194.564 7.4877 194.196 7.9197 193.908 8.4957C193.62 9.0557 193.476 9.7277 193.476 10.5117Z" fill="url(#paint16_linear_510_140)"/>
<path d="M205.891 10.3437L205.075 9.1677C204.451 8.2237 203.947 7.5117 203.563 7.0317C203.179 6.5517 202.963 6.2877 202.915 6.2397H204.787L206.179 8.2797C206.227 8.3597 206.291 8.4717 206.371 8.6157C206.451 8.7597 206.611 9.0157 206.851 9.3837L208.243 7.4637C208.531 7.0317 208.819 6.6237 209.107 6.2397H210.283C209.515 7.1677 208.811 8.0717 208.171 8.9517L207.331 10.1277L207.691 10.6557L209.155 12.7197C210.243 14.2237 210.795 14.9837 210.811 14.9997H208.939C208.315 13.9917 207.803 13.1997 207.403 12.6237L206.371 11.0637L203.539 14.9997H202.339C203.107 14.0717 203.835 13.1597 204.523 12.2637L205.891 10.3437Z" fill="url(#paint17_linear_510_140)"/>
<path d="M221.433 6.2157C221.417 6.5677 221.401 7.1357 221.385 7.9197C221.369 8.6877 221.361 9.5677 221.361 10.5597V10.6797C221.361 11.6717 221.369 12.5597 221.385 13.3437C221.401 14.1117 221.417 14.6637 221.433 14.9997H219.801C219.817 14.6957 219.833 14.1917 219.849 13.4877C219.881 12.7677 219.905 11.9357 219.921 10.9917C219.441 10.9437 218.769 10.9197 217.905 10.9197H216.441C215.385 10.9197 214.617 10.9437 214.137 10.9917C214.137 11.9357 214.145 12.7677 214.161 13.4877C214.193 14.1917 214.217 14.6957 214.233 14.9997H212.601C212.617 14.6637 212.633 14.1117 212.649 13.3437C212.681 12.5597 212.697 11.6717 212.697 10.6797V10.5597C212.697 9.8077 212.681 8.9997 212.649 8.1357C212.617 7.2717 212.593 6.6317 212.577 6.2157H214.233C214.217 6.3757 214.185 7.6877 214.137 10.1517C214.217 10.1517 214.489 10.1597 214.953 10.1757C215.417 10.1917 215.921 10.1997 216.465 10.1997H217.881C218.361 10.1997 218.793 10.1917 219.177 10.1757C219.577 10.1597 219.825 10.1517 219.921 10.1517C219.905 9.1917 219.881 8.3677 219.849 7.6797C219.833 6.9757 219.817 6.4877 219.801 6.2157H221.433Z" fill="url(#paint18_linear_510_140)"/>
<path d="M227.976 15.2157C227.176 15.2157 226.44 15.0397 225.768 14.6877C225.096 14.3357 224.552 13.8157 224.136 13.1277C223.736 12.4237 223.536 11.5837 223.536 10.6077C223.536 9.6317 223.744 8.7997 224.16 8.1117C224.576 7.4237 225.128 6.9037 225.816 6.5517C226.504 6.1837 227.248 5.9997 228.048 5.9997C228.848 5.9997 229.584 6.1837 230.256 6.5517C230.944 6.9037 231.488 7.4317 231.888 8.1357C232.304 8.8237 232.512 9.6477 232.512 10.6077C232.512 11.5997 232.304 12.4477 231.888 13.1517C231.472 13.8397 230.92 14.3597 230.232 14.7117C229.544 15.0477 228.792 15.2157 227.976 15.2157ZM225 10.5117C225 11.8237 225.296 12.8077 225.888 13.4637C226.496 14.1037 227.232 14.4317 228.096 14.4477C228.592 14.4317 229.064 14.2877 229.512 14.0157C229.96 13.7277 230.32 13.3037 230.592 12.7437C230.88 12.1837 231.024 11.5037 231.024 10.7037C231.024 9.8557 230.88 9.1357 230.592 8.5437C230.304 7.9357 229.92 7.4877 229.44 7.1997C228.976 6.8957 228.48 6.7437 227.952 6.7437C227.456 6.7597 226.984 6.9117 226.536 7.1997C226.088 7.4877 225.72 7.9197 225.432 8.4957C225.144 9.0557 225 9.7277 225 10.5117Z" fill="url(#paint19_linear_510_140)"/>
<path d="M239.839 10.4397C241.663 10.6797 242.575 11.4637 242.575 12.7917C242.575 13.3837 242.311 13.9197 241.783 14.3997C241.271 14.8797 240.391 15.1197 239.143 15.1197C238.455 15.1197 237.775 15.0957 237.103 15.0477C236.303 15.0157 235.743 14.9997 235.423 14.9997H234.703C234.735 14.8877 234.759 14.5517 234.775 13.9917C234.807 13.4317 234.823 12.8557 234.823 12.2637V8.9757C234.823 8.3997 234.807 7.8237 234.775 7.2477C234.743 6.6717 234.711 6.3197 234.679 6.1917H235.207C235.431 6.1917 235.863 6.1757 236.503 6.1437C237.207 6.1117 237.759 6.0957 238.159 6.0957C238.591 6.0957 238.927 6.1197 239.167 6.1677C240.127 6.2797 240.807 6.5437 241.207 6.9597C241.607 7.3597 241.807 7.8237 241.807 8.3517C241.807 9.4877 241.151 10.1837 239.839 10.4397ZM238.759 14.3037C239.383 14.3037 239.927 14.1837 240.391 13.9437C240.871 13.7037 241.111 13.2717 241.111 12.6477C241.111 11.9757 240.815 11.5037 240.223 11.2317C239.647 10.9597 239.031 10.8237 238.375 10.8237H237.295L237.175 10.1997H237.727C238.383 10.1997 238.999 10.0797 239.575 9.8397C240.151 9.5997 240.439 9.1517 240.439 8.4957C240.439 7.8877 240.175 7.4717 239.647 7.2477C239.135 7.0077 238.527 6.8877 237.823 6.8877C237.535 6.8877 237.319 6.8957 237.175 6.9117L236.383 6.9357C236.367 6.9357 236.351 6.9277 236.335 6.9117C236.335 6.8957 236.311 6.8717 236.263 6.8397H236.239V12.2637C236.239 13.1437 236.263 13.8477 236.311 14.3757L236.623 14.2797L238.759 14.3037Z" fill="url(#paint20_linear_510_140)"/>
<path d="M251.886 8.4957C251.886 9.0237 251.83 9.4157 251.718 9.6717C250.758 9.7837 249.206 10.0317 247.062 10.4157C246.902 10.4477 246.71 10.4877 246.486 10.5357C246.278 10.5677 246.038 10.6077 245.766 10.6557V10.7037C245.782 11.9517 246.078 12.8957 246.654 13.5357C247.23 14.1597 247.934 14.4717 248.766 14.4717C249.214 14.4717 249.646 14.3837 250.062 14.2077C250.478 14.0157 250.806 13.8157 251.046 13.6077L251.334 14.1837C251.19 14.3917 250.862 14.6237 250.35 14.8797C249.838 15.1197 249.262 15.2397 248.622 15.2397C247.822 15.2397 247.094 15.0717 246.438 14.7357C245.782 14.3837 245.254 13.8637 244.854 13.1757C244.47 12.4877 244.278 11.6557 244.278 10.6797C244.278 9.6717 244.486 8.8237 244.902 8.1357C245.318 7.4317 245.87 6.9037 246.558 6.5517C247.246 6.1997 247.99 6.0237 248.79 6.0237C249.27 6.0237 249.75 6.1277 250.23 6.3357C250.71 6.5277 251.102 6.8157 251.406 7.1997C251.726 7.5677 251.886 7.9997 251.886 8.4957ZM248.718 6.7677C247.934 6.7677 247.278 7.0797 246.75 7.7037C246.222 8.3117 245.902 9.0797 245.79 10.0077L250.638 9.1917C250.67 9.0317 250.686 8.8557 250.686 8.6637C250.686 8.1517 250.494 7.7117 250.11 7.3437C249.742 6.9597 249.278 6.7677 248.718 6.7677Z" fill="url(#paint21_linear_510_140)"/>
<path d="M262.8 6.2157C262.784 6.5677 262.768 7.1357 262.752 7.9197C262.736 8.6877 262.728 9.5677 262.728 10.5597V10.6797C262.728 11.6717 262.736 12.5597 262.752 13.3437C262.768 14.1117 262.784 14.6637 262.8 14.9997H261.168C261.184 14.6957 261.2 14.1917 261.216 13.4877C261.248 12.7677 261.272 11.9357 261.288 10.9917C260.808 10.9437 260.136 10.9197 259.272 10.9197H257.808C256.752 10.9197 255.984 10.9437 255.504 10.9917C255.504 11.9357 255.512 12.7677 255.528 13.4877C255.56 14.1917 255.584 14.6957 255.6 14.9997H253.968C253.984 14.6637 254 14.1117 254.016 13.3437C254.048 12.5597 254.064 11.6717 254.064 10.6797V10.5597C254.064 9.8077 254.048 8.9997 254.016 8.1357C253.984 7.2717 253.96 6.6317 253.944 6.2157H255.6C255.584 6.3757 255.552 7.6877 255.504 10.1517C255.584 10.1517 255.856 10.1597 256.32 10.1757C256.784 10.1917 257.288 10.1997 257.832 10.1997H259.248C259.728 10.1997 260.16 10.1917 260.544 10.1757C260.944 10.1597 261.192 10.1517 261.288 10.1517C261.272 9.1917 261.248 8.3677 261.216 7.6797C261.2 6.9757 261.184 6.4877 261.168 6.2157H262.8Z" fill="url(#paint22_linear_510_140)"/>
<path d="M273.639 10.6557C273.639 11.6477 273.647 12.5357 273.663 13.3197C273.679 14.0877 273.695 14.6477 273.711 14.9997H272.079C272.095 14.6477 272.119 14.0557 272.151 13.2237C272.183 12.3917 272.199 11.5357 272.199 10.6557V7.7037C271.223 8.9677 270.199 10.3517 269.127 11.8557C268.071 13.3437 267.463 14.1997 267.303 14.4237L266.895 14.9997H265.335C265.351 14.5837 265.375 13.9437 265.407 13.0797C265.439 12.1997 265.455 11.3837 265.455 10.6317V10.5117C265.455 9.5037 265.439 8.6157 265.407 7.8477C265.391 7.0637 265.375 6.4957 265.359 6.1437H266.991C266.975 6.4957 266.951 7.0637 266.919 7.8477C266.903 8.6157 266.895 9.5037 266.895 10.5117V13.4397C267.391 12.8797 268.623 11.2077 270.591 8.4237C270.863 8.0557 271.135 7.6797 271.407 7.2957C271.679 6.8957 271.951 6.5117 272.223 6.1437H273.711C273.695 6.4957 273.679 7.0637 273.663 7.8477C273.647 8.6317 273.639 9.5277 273.639 10.5357V10.6557Z" fill="url(#paint23_linear_510_140)"/>
<path d="M283.433 8.4957C283.433 9.0237 283.377 9.4157 283.265 9.6717C282.305 9.7837 280.753 10.0317 278.609 10.4157C278.449 10.4477 278.257 10.4877 278.033 10.5357C277.825 10.5677 277.585 10.6077 277.313 10.6557V10.7037C277.329 11.9517 277.625 12.8957 278.201 13.5357C278.777 14.1597 279.481 14.4717 280.313 14.4717C280.761 14.4717 281.193 14.3837 281.609 14.2077C282.025 14.0157 282.353 13.8157 282.593 13.6077L282.881 14.1837C282.737 14.3917 282.409 14.6237 281.897 14.8797C281.385 15.1197 280.809 15.2397 280.169 15.2397C279.369 15.2397 278.641 15.0717 277.985 14.7357C277.329 14.3837 276.801 13.8637 276.401 13.1757C276.017 12.4877 275.825 11.6557 275.825 10.6797C275.825 9.6717 276.033 8.8237 276.449 8.1357C276.865 7.4317 277.417 6.9037 278.105 6.5517C278.793 6.1997 279.537 6.0237 280.337 6.0237C280.817 6.0237 281.297 6.1277 281.777 6.3357C282.257 6.5277 282.649 6.8157 282.953 7.1997C283.273 7.5677 283.433 7.9997 283.433 8.4957ZM280.265 6.7677C279.481 6.7677 278.825 7.0797 278.297 7.7037C277.769 8.3117 277.449 9.0797 277.337 10.0077L282.185 9.1917C282.217 9.0317 282.233 8.8557 282.233 8.6637C282.233 8.1517 282.041 7.7117 281.657 7.3437C281.289 6.9597 280.825 6.7677 280.265 6.7677Z" fill="url(#paint24_linear_510_140)"/>
<path d="M286.187 13.1757L287.603 13.9197L286.883 15.2877L285.467 14.5437L286.187 13.1757Z" fill="url(#paint25_linear_510_140)"/>
<path d="M8.87984 38.3357C7.37584 38.3357 6.00784 38.0077 4.77584 37.3517C3.55984 36.6797 2.59984 35.7517 1.89584 34.5677C1.19184 33.3837 0.839844 32.0557 0.839844 30.5837C0.839844 29.0317 1.19984 27.6637 1.91984 26.4797C2.63984 25.2957 3.60784 24.3837 4.82384 23.7437C6.05584 23.0877 7.39184 22.7597 8.83184 22.7597C10.3198 22.7597 11.6718 23.0957 12.8878 23.7677C14.1198 24.4237 15.0878 25.3437 15.7918 26.5277C16.4958 27.6957 16.8478 29.0157 16.8478 30.4877C16.8478 32.0397 16.4878 33.4157 15.7678 34.6157C15.0478 35.7997 14.0718 36.7197 12.8398 37.3757C11.6238 38.0157 10.3038 38.3357 8.87984 38.3357ZM2.51984 30.5117C2.51984 31.7757 2.79184 32.9437 3.33584 34.0157C3.89584 35.0877 4.65584 35.9437 5.61584 36.5837C6.57584 37.2077 7.64784 37.5197 8.83184 37.5197C9.98384 37.5197 11.0398 37.2237 11.9998 36.6317C12.9758 36.0237 13.7438 35.1917 14.3038 34.1357C14.8798 33.0797 15.1678 31.8957 15.1678 30.5837C15.1678 29.3037 14.8878 28.1277 14.3278 27.0557C13.7838 25.9837 13.0318 25.1357 12.0718 24.5117C11.1118 23.8877 10.0398 23.5757 8.85584 23.5757C7.70384 23.5757 6.63984 23.8797 5.66384 24.4877C4.70384 25.0797 3.93584 25.9037 3.35984 26.9597C2.79984 28.0157 2.51984 29.1997 2.51984 30.5117Z" fill="url(#paint26_linear_510_140)"/>
<path d="M23.3123 29.7677C22.7523 29.7677 22.2163 29.9197 21.7043 30.2237C21.1923 30.5117 20.7763 30.9437 20.4563 31.5197C20.1363 32.0957 19.9763 32.7917 19.9763 33.6077C19.9923 34.8397 20.3283 35.7917 20.9843 36.4637C21.6563 37.1197 22.4643 37.4477 23.4083 37.4477C23.8883 37.4477 24.3043 37.3757 24.6563 37.2317C25.0083 37.0717 25.3523 36.8797 25.6883 36.6557L25.9523 37.3037C25.6643 37.5277 25.2643 37.7357 24.7523 37.9277C24.2563 38.1197 23.7683 38.2157 23.2883 38.2157C22.3923 38.2157 21.5763 38.0397 20.8403 37.6877C20.1203 37.3197 19.5523 36.7917 19.1363 36.1037C18.7203 35.4157 18.5123 34.5837 18.5123 33.6077C18.5123 32.6317 18.7283 31.7997 19.1603 31.1117C19.6083 30.4237 20.2003 29.9037 20.9363 29.5517C21.6723 29.1997 22.4803 29.0237 23.3603 29.0237C23.9683 29.0237 24.4403 29.0797 24.7763 29.1917C25.1283 29.3037 25.4883 29.4637 25.8563 29.6717L25.5443 30.3677C25.2243 30.1757 24.8963 30.0237 24.5603 29.9117C24.2403 29.7997 23.8243 29.7517 23.3123 29.7677Z" fill="url(#paint27_linear_510_140)"/>
<path d="M32.2123 29.9837C32.1803 30.6557 32.1643 31.5917 32.1643 32.7917V34.3037C32.1643 35.1997 32.1723 35.9757 32.1883 36.6317C32.2203 37.2877 32.2443 37.7437 32.2603 37.9997H30.6043C30.6203 37.7437 30.6443 37.2877 30.6763 36.6317C30.7083 35.9757 30.7243 35.1997 30.7243 34.3037V32.8877C30.7243 31.6557 30.7083 30.6877 30.6763 29.9837C29.8923 29.9997 29.1643 30.0317 28.4923 30.0797C27.8363 30.1117 27.3883 30.1437 27.1483 30.1757V29.2157H35.6923V30.1757C35.4683 30.1437 35.0443 30.1117 34.4203 30.0797C33.8123 30.0317 33.0763 29.9997 32.2123 29.9837Z" fill="url(#paint28_linear_510_140)"/>
<path d="M51.9715 33.4397C53.7955 33.6797 54.7075 34.4637 54.7075 35.7917C54.7075 36.3837 54.4435 36.9197 53.9155 37.3997C53.4035 37.8797 52.5235 38.1197 51.2755 38.1197C50.5875 38.1197 49.9075 38.0957 49.2355 38.0477C48.4355 38.0157 47.8755 37.9997 47.5555 37.9997H46.8355C46.8675 37.8877 46.8915 37.5517 46.9075 36.9917C46.9395 36.4317 46.9555 35.8557 46.9555 35.2637V31.9757C46.9555 31.3997 46.9395 30.8237 46.9075 30.2477C46.8755 29.6717 46.8435 29.3197 46.8115 29.1917H47.3395C47.5635 29.1917 47.9955 29.1757 48.6355 29.1437C49.3395 29.1117 49.8915 29.0957 50.2915 29.0957C50.7235 29.0957 51.0595 29.1197 51.2995 29.1677C52.2595 29.2797 52.9395 29.5437 53.3395 29.9597C53.7395 30.3597 53.9395 30.8237 53.9395 31.3517C53.9395 32.4877 53.2835 33.1837 51.9715 33.4397ZM50.8915 37.3037C51.5155 37.3037 52.0595 37.1837 52.5235 36.9437C53.0035 36.7037 53.2435 36.2717 53.2435 35.6477C53.2435 34.9757 52.9475 34.5037 52.3555 34.2317C51.7795 33.9597 51.1635 33.8237 50.5075 33.8237H49.4275L49.3075 33.1997H49.8595C50.5155 33.1997 51.1315 33.0797 51.7075 32.8397C52.2835 32.5997 52.5715 32.1517 52.5715 31.4957C52.5715 30.8877 52.3075 30.4717 51.7795 30.2477C51.2675 30.0077 50.6595 29.8877 49.9555 29.8877C49.6675 29.8877 49.4515 29.8957 49.3075 29.9117L48.5155 29.9357C48.4995 29.9357 48.4835 29.9277 48.4675 29.9117C48.4675 29.8957 48.4435 29.8717 48.3955 29.8397H48.3715V35.2637C48.3715 36.1437 48.3955 36.8477 48.4435 37.3757L48.7555 37.2797L50.8915 37.3037Z" fill="url(#paint29_linear_510_140)"/>
<path d="M74.7327 33.6557C74.7327 34.6477 74.7407 35.5357 74.7567 36.3197C74.7727 37.0877 74.7887 37.6477 74.8047 37.9997H73.1727C73.1887 37.6477 73.2127 37.0557 73.2447 36.2237C73.2767 35.3917 73.2927 34.5357 73.2927 33.6557V30.7037C72.3167 31.9677 71.2927 33.3517 70.2207 34.8557C69.1647 36.3437 68.5567 37.1997 68.3967 37.4237L67.9887 37.9997H66.4287C66.4447 37.5837 66.4687 36.9437 66.5007 36.0797C66.5327 35.1997 66.5487 34.3837 66.5487 33.6317V33.5117C66.5487 32.5037 66.5327 31.6157 66.5007 30.8477C66.4847 30.0637 66.4687 29.4957 66.4527 29.1437H68.0847C68.0687 29.4957 68.0447 30.0637 68.0127 30.8477C67.9967 31.6157 67.9887 32.5037 67.9887 33.5117V36.4397C68.4847 35.8797 69.7167 34.2077 71.6847 31.4237C71.9567 31.0557 72.2287 30.6797 72.5007 30.2957C72.7727 29.8957 73.0447 29.5117 73.3167 29.1437H74.8047C74.7887 29.4957 74.7727 30.0637 74.7567 30.8477C74.7407 31.6317 74.7327 32.5277 74.7327 33.5357V33.6557ZM69.0207 24.4877C69.0207 24.8877 69.1647 25.2397 69.4527 25.5437C69.7567 25.8477 70.1647 25.9997 70.6767 25.9997C71.6687 25.9997 72.2287 25.4957 72.3567 24.4877L73.0527 24.5357C73.0367 25.2077 72.8207 25.7757 72.4047 26.2397C71.9887 26.7037 71.4127 26.9357 70.6767 26.9357C69.9407 26.9357 69.3647 26.7037 68.9487 26.2397C68.5487 25.7757 68.3407 25.2077 68.3247 24.5357L69.0207 24.4877Z" fill="url(#paint30_linear_510_140)"/>
<path d="M81.7185 29.7677C81.1585 29.7677 80.6225 29.9197 80.1105 30.2237C79.5985 30.5117 79.1825 30.9437 78.8625 31.5197C78.5425 32.0957 78.3825 32.7917 78.3825 33.6077C78.3985 34.8397 78.7345 35.7917 79.3905 36.4637C80.0625 37.1197 80.8705 37.4477 81.8145 37.4477C82.2945 37.4477 82.7105 37.3757 83.0625 37.2317C83.4145 37.0717 83.7585 36.8797 84.0945 36.6557L84.3585 37.3037C84.0705 37.5277 83.6705 37.7357 83.1585 37.9277C82.6625 38.1197 82.1745 38.2157 81.6945 38.2157C80.7985 38.2157 79.9825 38.0397 79.2465 37.6877C78.5265 37.3197 77.9585 36.7917 77.5425 36.1037C77.1265 35.4157 76.9185 34.5837 76.9185 33.6077C76.9185 32.6317 77.1345 31.7997 77.5665 31.1117C78.0145 30.4237 78.6065 29.9037 79.3425 29.5517C80.0785 29.1997 80.8865 29.0237 81.7665 29.0237C82.3745 29.0237 82.8465 29.0797 83.1825 29.1917C83.5345 29.3037 83.8945 29.4637 84.2625 29.6717L83.9505 30.3677C83.6305 30.1757 83.3025 30.0237 82.9665 29.9117C82.6465 29.7997 82.2305 29.7517 81.7185 29.7677Z" fill="url(#paint31_linear_510_140)"/>
<path d="M94.9386 34.3757C94.9386 36.2317 94.9706 37.4477 95.0346 38.0237H93.4266C93.4266 37.9757 93.4346 37.7277 93.4506 37.2797C93.4826 36.8157 93.4986 35.8797 93.4986 34.4717V32.9597C93.4986 31.8397 93.4826 30.8477 93.4506 29.9837H91.1226C90.4826 29.9837 89.9466 30.1197 89.5146 30.3917C89.0826 30.6637 88.8666 31.0797 88.8666 31.6397C88.8666 32.3757 89.1466 32.8797 89.7066 33.1517C90.2826 33.4077 90.9386 33.5357 91.6746 33.5357L92.3946 33.5117L92.5626 34.2797C92.5626 34.2797 92.4586 34.3037 92.2506 34.3517C92.0586 34.3997 91.7706 34.5837 91.3866 34.9037C91.0026 35.2077 90.6346 35.5997 90.2826 36.0797C89.9146 36.6877 89.5786 37.1597 89.2746 37.4957C88.9866 37.8317 88.6506 38.1037 88.2666 38.3117C87.6586 38.6157 87.1626 38.7677 86.7786 38.7677C86.5066 38.7677 86.2666 38.6957 86.0586 38.5517L86.1546 38.2877C86.8906 38.2877 87.8346 37.4797 88.9866 35.8637C89.5466 35.0637 90.2906 34.5117 91.2186 34.2077C89.9386 34.1757 88.9706 33.9677 88.3146 33.5837C87.6746 33.1837 87.3546 32.4957 87.3546 31.5197C87.3546 30.8957 87.6346 30.3437 88.1946 29.8637C88.7546 29.3837 89.7306 29.1437 91.1226 29.1437C91.3306 29.1437 91.5306 29.1597 91.7226 29.1917C91.9146 29.2077 92.0506 29.2157 92.1306 29.2157C92.4186 29.2637 92.7466 29.2877 93.1146 29.2877H95.0346C95.0186 29.5437 94.9946 29.9997 94.9626 30.6557C94.9466 31.2957 94.9386 32.0637 94.9386 32.9597V34.3757Z" fill="url(#paint32_linear_510_140)"/>
<path d="M111.858 33.6557C111.858 34.6477 111.866 35.5357 111.882 36.3197C111.898 37.0877 111.914 37.6477 111.93 37.9997H110.298C110.314 37.6477 110.338 37.0557 110.37 36.2237C110.402 35.3917 110.418 34.5357 110.418 33.6557V30.7037C109.442 31.9677 108.418 33.3517 107.346 34.8557C106.29 36.3437 105.682 37.1997 105.522 37.4237L105.114 37.9997H103.554C103.57 37.5837 103.594 36.9437 103.626 36.0797C103.658 35.1997 103.674 34.3837 103.674 33.6317V33.5117C103.674 32.5037 103.658 31.6157 103.626 30.8477C103.61 30.0637 103.594 29.4957 103.578 29.1437H105.21C105.194 29.4957 105.17 30.0637 105.138 30.8477C105.122 31.6157 105.114 32.5037 105.114 33.5117V36.4397C105.61 35.8797 106.842 34.2077 108.81 31.4237C109.082 31.0557 109.354 30.6797 109.626 30.2957C109.898 29.8957 110.17 29.5117 110.442 29.1437H111.93C111.914 29.4957 111.898 30.0637 111.882 30.8477C111.866 31.6317 111.858 32.5277 111.858 33.5357V33.6557Z" fill="url(#paint33_linear_510_140)"/>
<path d="M116.876 29.2157L119.252 36.0317L121.196 30.9677C121.228 30.8877 121.308 30.6557 121.436 30.2717L121.82 29.2157H123.308L123.5 30.2237C123.548 30.4637 123.764 31.5757 124.148 33.5597C124.372 34.7117 124.572 35.6957 124.748 36.5117C124.94 37.3277 125.068 37.8237 125.132 37.9997H123.356C123.34 37.7437 123.276 37.2717 123.164 36.5837C123.068 35.8797 122.932 34.9837 122.756 33.8957L122.468 32.2637L122.156 30.5837L119.3 37.9997H118.556C118.332 37.3597 117.956 36.3437 117.428 34.9517C116.916 33.5437 116.388 32.1117 115.844 30.6557L115.292 33.5597L114.668 37.9997H113.588C113.588 37.9677 113.66 37.6637 113.804 37.0877C113.964 36.5117 114.148 35.6317 114.356 34.4477C115.012 30.9597 115.324 29.2157 115.292 29.2157H116.876Z" fill="url(#paint34_linear_510_140)"/>
<path d="M137.664 29.7677C137.104 29.7677 136.568 29.9197 136.056 30.2237C135.544 30.5117 135.128 30.9437 134.808 31.5197C134.488 32.0957 134.328 32.7917 134.328 33.6077C134.344 34.8397 134.68 35.7917 135.336 36.4637C136.008 37.1197 136.816 37.4477 137.76 37.4477C138.24 37.4477 138.656 37.3757 139.008 37.2317C139.36 37.0717 139.704 36.8797 140.04 36.6557L140.304 37.3037C140.016 37.5277 139.616 37.7357 139.104 37.9277C138.608 38.1197 138.12 38.2157 137.64 38.2157C136.744 38.2157 135.928 38.0397 135.192 37.6877C134.472 37.3197 133.904 36.7917 133.488 36.1037C133.072 35.4157 132.864 34.5837 132.864 33.6077C132.864 32.6317 133.08 31.7997 133.512 31.1117C133.96 30.4237 134.552 29.9037 135.288 29.5517C136.024 29.1997 136.832 29.0237 137.712 29.0237C138.32 29.0237 138.792 29.0797 139.128 29.1917C139.48 29.3037 139.84 29.4637 140.208 29.6717L139.896 30.3677C139.576 30.1757 139.248 30.0237 138.912 29.9117C138.592 29.7997 138.176 29.7517 137.664 29.7677Z" fill="url(#paint35_linear_510_140)"/>
<path d="M152.732 28.9997C153.548 28.9997 154.292 29.1837 154.964 29.5517C155.652 29.9037 156.196 30.4317 156.596 31.1357C157.012 31.8237 157.22 32.6477 157.22 33.6077C157.22 34.5997 157.012 35.4477 156.596 36.1517C156.18 36.8397 155.628 37.3597 154.94 37.7117C154.252 38.0477 153.5 38.2157 152.684 38.2157C151.884 38.2157 151.148 38.0397 150.476 37.6877C149.804 37.3357 149.26 36.8157 148.844 36.1277C148.444 35.4237 148.244 34.5837 148.244 33.6077C148.244 31.6397 148.388 29.8877 148.676 28.3517C148.98 26.8157 149.58 25.5437 150.476 24.5357C151.372 23.5277 152.66 23.0237 154.34 23.0237C154.66 23.0237 155.012 23.0397 155.396 23.0717L155.972 23.0957C156.228 23.0957 156.404 23.0477 156.5 22.9517C156.612 22.8557 156.668 22.6717 156.668 22.3997L157.388 22.4477C157.388 23.0397 157.26 23.4717 157.004 23.7437C156.748 23.9997 156.42 24.1597 156.02 24.2237C155.636 24.2717 155.06 24.2957 154.292 24.2957C152.724 24.2957 151.548 24.8957 150.764 26.0957C149.996 27.2957 149.492 28.7837 149.252 30.5597C149.668 30.0477 150.18 29.6637 150.788 29.4077C151.396 29.1357 152.044 28.9997 152.732 28.9997ZM152.78 37.4477C153.292 37.4317 153.772 37.2877 154.22 37.0157C154.668 36.7277 155.028 36.3037 155.3 35.7437C155.588 35.1837 155.732 34.5037 155.732 33.7037C155.732 32.8557 155.588 32.1357 155.3 31.5437C155.012 30.9357 154.628 30.4877 154.148 30.1997C153.684 29.8957 153.188 29.7437 152.66 29.7437C152.164 29.7597 151.692 29.9117 151.244 30.1997C150.796 30.4877 150.428 30.9117 150.14 31.4717C149.868 32.0157 149.732 32.6797 149.732 33.4637C149.732 34.7917 150.02 35.7837 150.596 36.4397C151.188 37.0957 151.916 37.4317 152.78 37.4477Z" fill="url(#paint36_linear_510_140)"/>
<path d="M166.956 31.4957C166.956 32.0237 166.9 32.4157 166.788 32.6717C165.828 32.7837 164.276 33.0317 162.132 33.4157C161.972 33.4477 161.78 33.4877 161.556 33.5357C161.348 33.5677 161.108 33.6077 160.836 33.6557V33.7037C160.852 34.9517 161.148 35.8957 161.724 36.5357C162.3 37.1597 163.004 37.4717 163.836 37.4717C164.284 37.4717 164.716 37.3837 165.132 37.2077C165.548 37.0157 165.876 36.8157 166.116 36.6077L166.404 37.1837C166.26 37.3917 165.932 37.6237 165.42 37.8797C164.908 38.1197 164.332 38.2397 163.692 38.2397C162.892 38.2397 162.164 38.0717 161.508 37.7357C160.852 37.3837 160.324 36.8637 159.924 36.1757C159.54 35.4877 159.348 34.6557 159.348 33.6797C159.348 32.6717 159.556 31.8237 159.972 31.1357C160.388 30.4317 160.94 29.9037 161.628 29.5517C162.316 29.1997 163.06 29.0237 163.86 29.0237C164.34 29.0237 164.82 29.1277 165.3 29.3357C165.78 29.5277 166.172 29.8157 166.476 30.1997C166.796 30.5677 166.956 30.9997 166.956 31.4957ZM163.788 29.7677C163.004 29.7677 162.348 30.0797 161.82 30.7037C161.292 31.3117 160.972 32.0797 160.86 33.0077L165.708 32.1917C165.74 32.0317 165.756 31.8557 165.756 31.6637C165.756 31.1517 165.564 30.7117 165.18 30.3437C164.812 29.9597 164.348 29.7677 163.788 29.7677Z" fill="url(#paint37_linear_510_140)"/>
<path d="M175.807 30.1037C175.327 30.0397 174.831 30.0077 174.319 30.0077H174.199C173.543 30.0077 173.015 30.0477 172.615 30.1277C172.615 30.2557 172.607 30.5197 172.591 30.9197C172.575 31.3037 172.543 31.6717 172.495 32.0237C171.951 36.1837 170.815 38.2797 169.087 38.3117C168.767 38.3117 168.463 38.2397 168.175 38.0957L168.223 37.4717C168.239 37.4717 168.295 37.5117 168.391 37.5917C168.503 37.6557 168.687 37.6797 168.943 37.6637C169.423 37.6157 169.895 37.2717 170.359 36.6317C170.823 35.9917 171.207 34.8397 171.511 33.1757C171.751 31.8157 171.871 30.4957 171.871 29.2157H177.367C177.303 30.5117 177.271 31.6717 177.271 32.6957V35.2397C177.271 35.8637 177.279 36.4237 177.295 36.9197C177.327 37.4157 177.351 37.7757 177.367 37.9997H175.735C175.735 37.9677 175.751 37.5197 175.783 36.6557C175.815 35.7757 175.831 34.7597 175.831 33.6077V32.5997L175.807 30.1037Z" fill="url(#paint38_linear_510_140)"/>
<path d="M183.802 33.0077C184.938 33.0077 185.89 33.1837 186.658 33.5357C187.426 33.8877 187.81 34.6317 187.81 35.7677C187.81 36.3597 187.546 36.9037 187.018 37.3997C186.506 37.8797 185.618 38.1197 184.354 38.1197C183.89 38.1197 183.45 38.0957 183.034 38.0477C182.522 38.0157 182.178 37.9997 182.002 37.9997H179.89C179.906 37.7437 179.93 37.2877 179.962 36.6317C179.994 35.9757 180.01 35.1997 180.01 34.3037V32.8877C180.01 31.1917 179.97 29.9837 179.89 29.2637L181.546 29.1197C181.466 29.4717 181.426 30.6957 181.426 32.7917V34.3037C181.426 35.6317 181.45 36.6237 181.498 37.2797H182.386L183.874 37.3037C184.578 37.3037 185.154 37.1677 185.602 36.8957C186.066 36.6077 186.298 36.1837 186.298 35.6237C186.298 34.3757 185.37 33.7517 183.514 33.7517H182.434L182.266 32.9837L183.802 33.0077Z" fill="url(#paint39_linear_510_140)"/>
<path d="M197.12 31.4957C197.12 32.0237 197.064 32.4157 196.952 32.6717C195.992 32.7837 194.44 33.0317 192.296 33.4157C192.136 33.4477 191.944 33.4877 191.72 33.5357C191.512 33.5677 191.272 33.6077 191 33.6557V33.7037C191.016 34.9517 191.312 35.8957 191.888 36.5357C192.464 37.1597 193.168 37.4717 194 37.4717C194.448 37.4717 194.88 37.3837 195.296 37.2077C195.712 37.0157 196.04 36.8157 196.28 36.6077L196.568 37.1837C196.424 37.3917 196.096 37.6237 195.584 37.8797C195.072 38.1197 194.496 38.2397 193.856 38.2397C193.056 38.2397 192.328 38.0717 191.672 37.7357C191.016 37.3837 190.488 36.8637 190.088 36.1757C189.704 35.4877 189.512 34.6557 189.512 33.6797C189.512 32.6717 189.72 31.8237 190.136 31.1357C190.552 30.4317 191.104 29.9037 191.792 29.5517C192.48 29.1997 193.224 29.0237 194.024 29.0237C194.504 29.0237 194.984 29.1277 195.464 29.3357C195.944 29.5277 196.336 29.8157 196.64 30.1997C196.96 30.5677 197.12 30.9997 197.12 31.4957ZM193.952 29.7677C193.168 29.7677 192.512 30.0797 191.984 30.7037C191.456 31.3117 191.136 32.0797 191.024 33.0077L195.872 32.1917C195.904 32.0317 195.92 31.8557 195.92 31.6637C195.92 31.1517 195.728 30.7117 195.344 30.3437C194.976 29.9597 194.512 29.7677 193.952 29.7677ZM192.176 24.7997L193.448 25.4957L192.752 26.7917L191.456 26.0717L192.176 24.7997ZM195.56 24.7997L196.832 25.4957L196.16 26.7917L194.888 26.0717L195.56 24.7997Z" fill="url(#paint40_linear_510_140)"/>
<path d="M201.79 29.2157L204.166 36.0317L206.11 30.9677C206.142 30.8877 206.222 30.6557 206.35 30.2717L206.734 29.2157H208.222L208.414 30.2237C208.462 30.4637 208.678 31.5757 209.062 33.5597C209.286 34.7117 209.486 35.6957 209.662 36.5117C209.854 37.3277 209.982 37.8237 210.046 37.9997H208.27C208.254 37.7437 208.19 37.2717 208.078 36.5837C207.982 35.8797 207.846 34.9837 207.67 33.8957L207.382 32.2637L207.07 30.5837L204.214 37.9997H203.47C203.246 37.3597 202.87 36.3437 202.342 34.9517C201.83 33.5437 201.302 32.1117 200.758 30.6557L200.206 33.5597L199.582 37.9997H198.502C198.502 37.9677 198.574 37.6637 198.718 37.0877C198.878 36.5117 199.062 35.6317 199.27 34.4477C199.926 30.9597 200.238 29.2157 200.206 29.2157H201.79Z" fill="url(#paint41_linear_510_140)"/>
<path d="M226.514 33.6557C226.514 34.6477 226.522 35.5357 226.538 36.3197C226.554 37.0877 226.57 37.6477 226.586 37.9997H224.954C224.97 37.6477 224.994 37.0557 225.026 36.2237C225.058 35.3917 225.074 34.5357 225.074 33.6557V30.7037C224.098 31.9677 223.074 33.3517 222.002 34.8557C220.946 36.3437 220.338 37.1997 220.178 37.4237L219.77 37.9997H218.21C218.226 37.5837 218.25 36.9437 218.282 36.0797C218.314 35.1997 218.33 34.3837 218.33 33.6317V33.5117C218.33 32.5037 218.314 31.6157 218.282 30.8477C218.266 30.0637 218.25 29.4957 218.234 29.1437H219.866C219.85 29.4957 219.826 30.0637 219.794 30.8477C219.778 31.6157 219.77 32.5037 219.77 33.5117V36.4397C220.266 35.8797 221.498 34.2077 223.466 31.4237C223.738 31.0557 224.01 30.6797 224.282 30.2957C224.554 29.8957 224.826 29.5117 225.098 29.1437H226.586C226.57 29.4957 226.554 30.0637 226.538 30.8477C226.522 31.6317 226.514 32.5277 226.514 33.5357V33.6557Z" fill="url(#paint42_linear_510_140)"/>
<path d="M245.054 32.8877C245.054 31.1917 245.014 29.9837 244.934 29.2637L246.566 29.1197C246.502 29.6957 246.47 30.9277 246.47 32.8157V34.3037C246.47 35.1997 246.478 35.9757 246.494 36.6317C246.526 37.2877 246.55 37.7437 246.566 37.9997H244.934C244.95 37.7437 244.974 37.2877 245.006 36.6317C245.038 35.9757 245.054 35.1997 245.054 34.3037V32.8877ZM254.054 38.1197C253.798 38.1837 253.51 38.2157 253.19 38.2157C252.63 38.2157 252.078 37.9357 251.534 37.3757C250.99 36.8157 250.486 36.1197 250.022 35.2877C249.574 34.5997 249.078 34.1357 248.534 33.8957C248.006 33.6557 247.606 33.5357 247.334 33.5357L246.95 32.8157L249.11 30.6797C249.318 30.4717 249.558 30.1837 249.83 29.8157C250.118 29.4477 250.286 29.2157 250.334 29.1197L251.822 29.2877C251.662 29.4157 251.422 29.6317 251.102 29.9357C250.782 30.2397 250.462 30.5517 250.142 30.8717L247.934 33.0077C248.526 33.0397 249.15 33.2317 249.806 33.5837C250.478 33.9197 251.03 34.4317 251.462 35.1197C252.198 36.2397 252.782 36.9917 253.214 37.3757C253.646 37.7437 253.934 37.9277 254.078 37.9277L254.054 38.1197Z" fill="url(#paint43_linear_510_140)"/>
<path d="M259.914 29.7677C259.354 29.7677 258.818 29.9197 258.306 30.2237C257.794 30.5117 257.378 30.9437 257.058 31.5197C256.738 32.0957 256.578 32.7917 256.578 33.6077C256.594 34.8397 256.93 35.7917 257.586 36.4637C258.258 37.1197 259.066 37.4477 260.01 37.4477C260.49 37.4477 260.906 37.3757 261.258 37.2317C261.61 37.0717 261.954 36.8797 262.29 36.6557L262.554 37.3037C262.266 37.5277 261.866 37.7357 261.354 37.9277C260.858 38.1197 260.37 38.2157 259.89 38.2157C258.994 38.2157 258.178 38.0397 257.442 37.6877C256.722 37.3197 256.154 36.7917 255.738 36.1037C255.322 35.4157 255.114 34.5837 255.114 33.6077C255.114 32.6317 255.33 31.7997 255.762 31.1117C256.21 30.4237 256.802 29.9037 257.538 29.5517C258.274 29.1997 259.082 29.0237 259.962 29.0237C260.57 29.0237 261.042 29.0797 261.378 29.1917C261.73 29.3037 262.09 29.4637 262.458 29.6717L262.146 30.3677C261.826 30.1757 261.498 30.0237 261.162 29.9117C260.842 29.7997 260.426 29.7517 259.914 29.7677Z" fill="url(#paint44_linear_510_140)"/>
<path d="M271.886 31.4957C271.886 32.0237 271.83 32.4157 271.718 32.6717C270.758 32.7837 269.206 33.0317 267.062 33.4157C266.902 33.4477 266.71 33.4877 266.486 33.5357C266.278 33.5677 266.038 33.6077 265.766 33.6557V33.7037C265.782 34.9517 266.078 35.8957 266.654 36.5357C267.23 37.1597 267.934 37.4717 268.766 37.4717C269.214 37.4717 269.646 37.3837 270.062 37.2077C270.478 37.0157 270.806 36.8157 271.046 36.6077L271.334 37.1837C271.19 37.3917 270.862 37.6237 270.35 37.8797C269.838 38.1197 269.262 38.2397 268.622 38.2397C267.822 38.2397 267.094 38.0717 266.438 37.7357C265.782 37.3837 265.254 36.8637 264.854 36.1757C264.47 35.4877 264.278 34.6557 264.278 33.6797C264.278 32.6717 264.486 31.8237 264.902 31.1357C265.318 30.4317 265.87 29.9037 266.558 29.5517C267.246 29.1997 267.99 29.0237 268.79 29.0237C269.27 29.0237 269.75 29.1277 270.23 29.3357C270.71 29.5277 271.102 29.8157 271.406 30.1997C271.726 30.5677 271.886 30.9997 271.886 31.4957ZM268.718 29.7677C267.934 29.7677 267.278 30.0797 266.75 30.7037C266.222 31.3117 265.902 32.0797 265.79 33.0077L270.638 32.1917C270.67 32.0317 270.686 31.8557 270.686 31.6637C270.686 31.1517 270.494 30.7117 270.11 30.3437C269.742 29.9597 269.278 29.7677 268.718 29.7677Z" fill="url(#paint45_linear_510_140)"/>
<path d="M278.312 29.7677C277.752 29.7677 277.216 29.9197 276.704 30.2237C276.192 30.5117 275.776 30.9437 275.456 31.5197C275.136 32.0957 274.976 32.7917 274.976 33.6077C274.992 34.8397 275.328 35.7917 275.984 36.4637C276.656 37.1197 277.464 37.4477 278.408 37.4477C278.888 37.4477 279.304 37.3757 279.656 37.2317C280.008 37.0717 280.352 36.8797 280.688 36.6557L280.952 37.3037C280.664 37.5277 280.264 37.7357 279.752 37.9277C279.256 38.1197 278.768 38.2157 278.288 38.2157C277.392 38.2157 276.576 38.0397 275.84 37.6877C275.12 37.3197 274.552 36.7917 274.136 36.1037C273.72 35.4157 273.512 34.5837 273.512 33.6077C273.512 32.6317 273.728 31.7997 274.16 31.1117C274.608 30.4237 275.2 29.9037 275.936 29.5517C276.672 29.1997 277.48 29.0237 278.36 29.0237C278.968 29.0237 279.44 29.0797 279.776 29.1917C280.128 29.3037 280.488 29.4637 280.856 29.6717L280.544 30.3677C280.224 30.1757 279.896 30.0237 279.56 29.9117C279.24 29.7997 278.824 29.7517 278.312 29.7677Z" fill="url(#paint46_linear_510_140)"/>
<path d="M287.476 29.7677C286.916 29.7677 286.38 29.9197 285.868 30.2237C285.356 30.5117 284.94 30.9437 284.62 31.5197C284.3 32.0957 284.14 32.7917 284.14 33.6077C284.156 34.8397 284.492 35.7917 285.148 36.4637C285.82 37.1197 286.628 37.4477 287.572 37.4477C288.052 37.4477 288.468 37.3757 288.82 37.2317C289.172 37.0717 289.516 36.8797 289.852 36.6557L290.116 37.3037C289.828 37.5277 289.428 37.7357 288.916 37.9277C288.42 38.1197 287.932 38.2157 287.452 38.2157C286.556 38.2157 285.74 38.0397 285.004 37.6877C284.284 37.3197 283.716 36.7917 283.3 36.1037C282.884 35.4157 282.676 34.5837 282.676 33.6077C282.676 32.6317 282.892 31.7997 283.324 31.1117C283.772 30.4237 284.364 29.9037 285.1 29.5517C285.836 29.1997 286.644 29.0237 287.524 29.0237C288.132 29.0237 288.604 29.0797 288.94 29.1917C289.292 29.3037 289.652 29.4637 290.02 29.6717L289.708 30.3677C289.388 30.1757 289.06 30.0237 288.724 29.9117C288.404 29.7997 287.988 29.7517 287.476 29.7677Z" fill="url(#paint47_linear_510_140)"/>
<path d="M292.824 32.7677C292.648 32.2717 292.488 31.8637 292.344 31.5437C291.912 30.4397 291.592 29.6717 291.384 29.2397H293.136C293.296 29.9117 293.568 30.7917 293.952 31.8797C294.24 32.5997 294.744 33.8957 295.464 35.7677L295.896 36.9437C296.568 36.1437 297.2 35.1997 297.792 34.1117C298.384 33.0237 298.68 32.0237 298.68 31.1117C298.68 30.5197 298.6 29.8557 298.44 29.1197L299.472 29.2877C299.552 29.6397 299.592 30.0557 299.592 30.5357C299.624 31.7517 299.352 32.9277 298.776 34.0637C298.216 35.1837 297.392 36.4157 296.304 37.7597C295.6 38.6397 294.904 39.5757 294.216 40.5677C293.544 41.5757 293.048 42.4397 292.728 43.1597H292.08L292.056 42.8477C293.16 40.6397 294.176 38.9837 295.104 37.8797L294.72 37.7117L292.824 32.7677Z" fill="url(#paint48_linear_510_140)"/>
<path d="M315.837 29.0237C317.037 29.0237 318.021 29.4077 318.789 30.1757C319.573 30.9437 319.965 32.0557 319.965 33.5117C319.965 34.5197 319.773 35.3757 319.389 36.0797C319.021 36.7837 318.517 37.3197 317.877 37.6877C317.237 38.0397 316.541 38.2157 315.789 38.2157C314.621 38.2157 313.741 37.8077 313.149 36.9917V40.6637C313.149 41.7997 313.189 42.7837 313.269 43.6157L311.637 43.7837C311.701 42.2477 311.733 41.1997 311.733 40.6397V33.1277C311.733 31.2877 311.693 29.9917 311.613 29.2397L313.173 29.1197V30.4397C313.861 29.4957 314.749 29.0237 315.837 29.0237ZM315.549 37.4477C316.029 37.4317 316.493 37.2797 316.941 36.9917C317.405 36.6877 317.781 36.2397 318.069 35.6477C318.357 35.0557 318.501 34.3437 318.501 33.5117C318.501 32.6797 318.349 31.9837 318.045 31.4237C317.757 30.8477 317.373 30.4237 316.893 30.1517C316.429 29.8797 315.941 29.7437 315.429 29.7437C314.933 29.7437 314.493 29.9197 314.109 30.2717C313.725 30.6077 313.405 30.9997 313.149 31.4477V35.9597C313.373 36.3757 313.693 36.7277 314.109 37.0157C314.541 37.3037 315.021 37.4477 315.549 37.4477Z" fill="url(#paint49_linear_510_140)"/>
<path d="M334.118 29.2157L336.494 36.0317L338.438 30.9677C338.47 30.8877 338.55 30.6557 338.678 30.2717L339.062 29.2157H340.55L340.742 30.2237C340.79 30.4637 341.006 31.5757 341.39 33.5597C341.614 34.7117 341.814 35.6957 341.99 36.5117C342.182 37.3277 342.31 37.8237 342.374 37.9997H340.598C340.582 37.7437 340.518 37.2717 340.406 36.5837C340.31 35.8797 340.174 34.9837 339.998 33.8957L339.71 32.2637L339.398 30.5837L336.542 37.9997H335.798C335.574 37.3597 335.198 36.3437 334.67 34.9517C334.158 33.5437 333.63 32.1117 333.086 30.6557L332.534 33.5597L331.91 37.9997H330.83C330.83 37.9677 330.902 37.6637 331.046 37.0877C331.206 36.5117 331.39 35.6317 331.598 34.4477C332.254 30.9597 332.566 29.2157 332.534 29.2157H334.118Z" fill="url(#paint50_linear_510_140)"/>
<path d="M352.865 33.6557C352.865 34.6477 352.873 35.5357 352.889 36.3197C352.905 37.0877 352.921 37.6477 352.937 37.9997H351.305C351.321 37.6477 351.345 37.0557 351.377 36.2237C351.409 35.3917 351.425 34.5357 351.425 33.6557V30.7037C350.449 31.9677 349.425 33.3517 348.353 34.8557C347.297 36.3437 346.689 37.1997 346.529 37.4237L346.121 37.9997H344.561C344.577 37.5837 344.601 36.9437 344.633 36.0797C344.665 35.1997 344.681 34.3837 344.681 33.6317V33.5117C344.681 32.5037 344.665 31.6157 344.633 30.8477C344.617 30.0637 344.601 29.4957 344.585 29.1437H346.217C346.201 29.4957 346.177 30.0637 346.145 30.8477C346.129 31.6157 346.121 32.5037 346.121 33.5117V36.4397C346.617 35.8797 347.849 34.2077 349.817 31.4237C350.089 31.0557 350.361 30.6797 350.633 30.2957C350.905 29.8957 351.177 29.5117 351.449 29.1437H352.937C352.921 29.4957 352.905 30.0637 352.889 30.8477C352.873 31.6317 352.865 32.5277 352.865 33.5357V33.6557Z" fill="url(#paint51_linear_510_140)"/>
<path d="M39.8933 29.148C38.5984 29.5425 37.9712 31.2867 38.74 32.408C39.0233 32.844 39.0233 32.8856 38.5579 33.0517C37.7082 33.3839 37 34.4637 37 35.4188C37.0202 36.7893 37.951 37.7029 39.6505 37.9521C40.8645 38.1389 42.1392 37.7652 42.645 37.08C43.0092 36.6231 43.0699 36.6024 43.0699 36.9554C43.0699 37.5575 43.4746 37.8482 44.3648 37.8482C45.1135 37.8482 45.1337 37.8275 44.7695 37.5575C44.4255 37.2876 44.3648 36.9138 44.2839 34.1729C44.2232 32.4703 44.0816 30.913 43.9399 30.6845C43.4746 29.854 42.726 29.3349 41.6738 29.1272C41.0668 29.0234 40.5 29 40.5 29C40.5 29 40.1765 29.0617 39.8933 29.148ZM42.1999 29.8955C42.6653 30.207 43.0699 31.1621 43.0699 31.9304C43.0699 32.3872 42.9485 32.408 41.2287 32.5533C39.5898 32.6779 39.3673 32.6572 39.1245 32.3249C38.821 31.9096 38.74 30.8507 38.9424 30.2693C39.2661 29.3972 41.1275 29.1895 42.1999 29.8955ZM42.9688 34.4221C42.9688 36.2286 42.4629 37.1007 41.2489 37.4329C39.7112 37.8482 38.4163 36.8515 38.4163 35.2319C38.4163 34.1107 39.1245 33.3424 40.298 33.197C40.7634 33.1347 41.3703 33.0309 41.6536 32.9894C42.9081 32.7817 42.9688 32.844 42.9688 34.4221Z" fill="url(#paint52_linear_510_140)"/>
<path d="M58.8933 29.148C57.5984 29.5425 56.9712 31.2867 57.74 32.408C58.0233 32.844 58.0233 32.8856 57.5579 33.0517C56.7082 33.3839 56 34.4637 56 35.4188C56.0202 36.7893 56.951 37.7029 58.6505 37.9521C59.8645 38.1389 61.1392 37.7652 61.645 37.08C62.0092 36.6231 62.0699 36.6024 62.0699 36.9554C62.0699 37.5575 62.4746 37.8482 63.3648 37.8482C64.1135 37.8482 64.1337 37.8275 63.7695 37.5575C63.4255 37.2876 63.3648 36.9138 63.2839 34.1729C63.2232 32.4703 63.0816 30.913 62.9399 30.6845C62.4746 29.854 61.726 29.3349 60.6738 29.1272C60.0668 29.0234 59.5 29 59.5 29C59.5 29 59.1765 29.0617 58.8933 29.148ZM61.1999 29.8955C61.6653 30.207 62.0699 31.1621 62.0699 31.9304C62.0699 32.3872 61.9485 32.408 60.2287 32.5533C58.5898 32.6779 58.3673 32.6572 58.1245 32.3249C57.821 31.9096 57.74 30.8507 57.9424 30.2693C58.2661 29.3972 60.1275 29.1895 61.1999 29.8955ZM61.9688 34.4221C61.9688 36.2286 61.4629 37.1007 60.2489 37.4329C58.7112 37.8482 57.4163 36.8515 57.4163 35.2319C57.4163 34.1107 58.1245 33.3424 59.298 33.197C59.7634 33.1347 60.3703 33.0309 60.6536 32.9894C61.9081 32.7817 61.9688 32.844 61.9688 34.4221Z" fill="url(#paint53_linear_510_140)"/>
<path d="M237.893 29.148C236.598 29.5425 235.971 31.2867 236.74 32.408C237.023 32.844 237.023 32.8856 236.558 33.0517C235.708 33.3839 235 34.4637 235 35.4188C235.02 36.7893 235.951 37.7029 237.651 37.9521C238.865 38.1389 240.139 37.7652 240.645 37.08C241.009 36.6231 241.07 36.6024 241.07 36.9554C241.07 37.5575 241.475 37.8482 242.365 37.8482C243.113 37.8482 243.134 37.8275 242.77 37.5575C242.426 37.2876 242.365 36.9138 242.284 34.1729C242.223 32.4703 242.082 30.913 241.94 30.6845C241.475 29.854 240.726 29.3349 239.674 29.1272C239.067 29.0234 238.5 29 238.5 29C238.5 29 238.176 29.0617 237.893 29.148ZM240.2 29.8955C240.665 30.207 241.07 31.1621 241.07 31.9304C241.07 32.3872 240.949 32.408 239.229 32.5533C237.59 32.6779 237.367 32.6572 237.124 32.3249C236.821 31.9096 236.74 30.8507 236.942 30.2693C237.266 29.3972 239.128 29.1895 240.2 29.8955ZM240.969 34.4221C240.969 36.2286 240.463 37.1007 239.249 37.4329C237.711 37.8482 236.416 36.8515 236.416 35.2319C236.416 34.1107 237.124 33.3424 238.298 33.197C238.763 33.1347 239.37 33.0309 239.654 32.9894C240.908 32.7817 240.969 32.844 240.969 34.4221Z" fill="url(#paint54_linear_510_140)"/>
<path d="M303.893 29.148C302.598 29.5425 301.971 31.2867 302.74 32.408C303.023 32.844 303.023 32.8856 302.558 33.0517C301.708 33.3839 301 34.4637 301 35.4188C301.02 36.7893 301.951 37.7029 303.651 37.9521C304.865 38.1389 306.139 37.7652 306.645 37.08C307.009 36.6231 307.07 36.6024 307.07 36.9554C307.07 37.5575 307.475 37.8482 308.365 37.8482C309.113 37.8482 309.134 37.8275 308.77 37.5575C308.426 37.2876 308.365 36.9138 308.284 34.1729C308.223 32.4703 308.082 30.913 307.94 30.6845C307.475 29.854 306.726 29.3349 305.674 29.1272C305.067 29.0234 304.5 29 304.5 29C304.5 29 304.176 29.0617 303.893 29.148ZM306.2 29.8955C306.665 30.207 307.07 31.1621 307.07 31.9304C307.07 32.3872 306.949 32.408 305.229 32.5533C303.59 32.6779 303.367 32.6572 303.124 32.3249C302.821 31.9096 302.74 30.8507 302.942 30.2693C303.266 29.3972 305.128 29.1895 306.2 29.8955ZM306.969 34.4221C306.969 36.2286 306.463 37.1007 305.249 37.4329C303.711 37.8482 302.416 36.8515 302.416 35.2319C302.416 34.1107 303.124 33.3424 304.298 33.197C304.763 33.1347 305.37 33.0309 305.654 32.9894C306.908 32.7817 306.969 32.844 306.969 34.4221Z" fill="url(#paint55_linear_510_140)"/>
<path d="M323.893 29.148C322.598 29.5425 321.971 31.2867 322.74 32.408C323.023 32.844 323.023 32.8856 322.558 33.0517C321.708 33.3839 321 34.4637 321 35.4188C321.02 36.7893 321.951 37.7029 323.651 37.9521C324.865 38.1389 326.139 37.7652 326.645 37.08C327.009 36.6231 327.07 36.6024 327.07 36.9554C327.07 37.5575 327.475 37.8482 328.365 37.8482C329.113 37.8482 329.134 37.8275 328.77 37.5575C328.426 37.2876 328.365 36.9138 328.284 34.1729C328.223 32.4703 328.082 30.913 327.94 30.6845C327.475 29.854 326.726 29.3349 325.674 29.1272C325.067 29.0234 324.5 29 324.5 29C324.5 29 324.176 29.0617 323.893 29.148ZM326.2 29.8955C326.665 30.207 327.07 31.1621 327.07 31.9304C327.07 32.3872 326.949 32.408 325.229 32.5533C323.59 32.6779 323.367 32.6572 323.124 32.3249C322.821 31.9096 322.74 30.8507 322.942 30.2693C323.266 29.3972 325.128 29.1895 326.2 29.8955ZM326.969 34.4221C326.969 36.2286 326.463 37.1007 325.249 37.4329C323.711 37.8482 322.416 36.8515 322.416 35.2319C322.416 34.1107 323.124 33.3424 324.298 33.197C324.763 33.1347 325.37 33.0309 325.654 32.9894C326.908 32.7817 326.969 32.844 326.969 34.4221Z" fill="url(#paint56_linear_510_140)"/>
<line x1="56" y1="86.5" x2="310" y2="86.5" stroke="#DB291C"/>
<defs>
<linearGradient id="paint0_linear_510_140" x1="199.415" y1="71.9092" x2="199.415" y2="48.0004" gradientUnits="userSpaceOnUse">
<stop stop-color="#D31217"/>
<stop offset="1" stop-color="#EF6628"/>
</linearGradient>
<linearGradient id="paint1_linear_510_140" x1="171.045" y1="55.082" x2="171.045" y2="52.2738" gradientUnits="userSpaceOnUse">
<stop stop-color="#D31217"/>
<stop offset="1" stop-color="#EF6628"/>
</linearGradient>
<linearGradient id="paint2_linear_510_140" x1="158.333" y1="72.2051" x2="158.333" y2="55.3134" gradientUnits="userSpaceOnUse">
<stop stop-color="#D31217"/>
<stop offset="1" stop-color="#EF6628"/>
</linearGradient>
<linearGradient id="paint3_linear_510_140" x1="182.931" y1="72.1387" x2="182.931" y2="55.3105" gradientUnits="userSpaceOnUse">
<stop stop-color="#D31217"/>
<stop offset="1" stop-color="#EF6628"/>
</linearGradient>
<linearGradient id="paint4_linear_510_140" x1="217.381" y1="72.1924" x2="217.381" y2="55.4241" gradientUnits="userSpaceOnUse">
<stop stop-color="#D31217"/>
<stop offset="1" stop-color="#EF6628"/>
</linearGradient>
<linearGradient id="paint5_linear_510_140" x1="139.633" y1="78.7402" x2="139.633" y2="55.6858" gradientUnits="userSpaceOnUse">
<stop stop-color="#D31217"/>
<stop offset="1" stop-color="#EF6628"/>
</linearGradient>
<linearGradient id="paint6_linear_510_140" x1="171.442" y1="71.9092" x2="171.442" y2="56.8213" gradientUnits="userSpaceOnUse">
<stop stop-color="#D31217"/>
<stop offset="1" stop-color="#EF6628"/>
</linearGradient>
<linearGradient id="paint7_linear_510_140" x1="176.889" y1="0.0956989" x2="177" y2="38.5" gradientUnits="userSpaceOnUse">
<stop stop-color="#FF4700"/>
<stop offset="0.154167" stop-color="#EA3125"/>
<stop offset="0.648958" stop-color="#FF4700"/>
<stop offset="1" stop-color="#DE331E"/>
</linearGradient>
<linearGradient id="paint8_linear_510_140" x1="176.889" y1="0.0956989" x2="177" y2="38.5" gradientUnits="userSpaceOnUse">
<stop stop-color="#FF4700"/>
<stop offset="0.154167" stop-color="#EA3125"/>
<stop offset="0.648958" stop-color="#FF4700"/>
<stop offset="1" stop-color="#DE331E"/>
</linearGradient>
<linearGradient id="paint9_linear_510_140" x1="176.889" y1="0.0956989" x2="177" y2="38.5" gradientUnits="userSpaceOnUse">
<stop stop-color="#FF4700"/>
<stop offset="0.154167" stop-color="#EA3125"/>
<stop offset="0.648958" stop-color="#FF4700"/>
<stop offset="1" stop-color="#DE331E"/>
</linearGradient>
<linearGradient id="paint10_linear_510_140" x1="176.889" y1="0.0956989" x2="177" y2="38.5" gradientUnits="userSpaceOnUse">
<stop stop-color="#FF4700"/>
<stop offset="0.154167" stop-color="#EA3125"/>
<stop offset="0.648958" stop-color="#FF4700"/>
<stop offset="1" stop-color="#DE331E"/>
</linearGradient>
<linearGradient id="paint11_linear_510_140" x1="176.889" y1="0.0956989" x2="177" y2="38.5" gradientUnits="userSpaceOnUse">
<stop stop-color="#FF4700"/>
<stop offset="0.154167" stop-color="#EA3125"/>
<stop offset="0.648958" stop-color="#FF4700"/>
<stop offset="1" stop-color="#DE331E"/>
</linearGradient>
<linearGradient id="paint12_linear_510_140" x1="176.889" y1="0.0956989" x2="177" y2="38.5" gradientUnits="userSpaceOnUse">
<stop stop-color="#FF4700"/>
<stop offset="0.154167" stop-color="#EA3125"/>
<stop offset="0.648958" stop-color="#FF4700"/>
<stop offset="1" stop-color="#DE331E"/>
</linearGradient>
<linearGradient id="paint13_linear_510_140" x1="176.889" y1="0.0956989" x2="177" y2="38.5" gradientUnits="userSpaceOnUse">
<stop stop-color="#FF4700"/>
<stop offset="0.154167" stop-color="#EA3125"/>
<stop offset="0.648958" stop-color="#FF4700"/>
<stop offset="1" stop-color="#DE331E"/>
</linearGradient>
<linearGradient id="paint14_linear_510_140" x1="176.889" y1="0.0956989" x2="177" y2="38.5" gradientUnits="userSpaceOnUse">
<stop stop-color="#FF4700"/>
<stop offset="0.154167" stop-color="#EA3125"/>
<stop offset="0.648958" stop-color="#FF4700"/>
<stop offset="1" stop-color="#DE331E"/>
</linearGradient>
<linearGradient id="paint15_linear_510_140" x1="176.889" y1="0.0956989" x2="177" y2="38.5" gradientUnits="userSpaceOnUse">
<stop stop-color="#FF4700"/>
<stop offset="0.154167" stop-color="#EA3125"/>
<stop offset="0.648958" stop-color="#FF4700"/>
<stop offset="1" stop-color="#DE331E"/>
</linearGradient>
<linearGradient id="paint16_linear_510_140" x1="176.889" y1="0.0956989" x2="177" y2="38.5" gradientUnits="userSpaceOnUse">
<stop stop-color="#FF4700"/>
<stop offset="0.154167" stop-color="#EA3125"/>
<stop offset="0.648958" stop-color="#FF4700"/>
<stop offset="1" stop-color="#DE331E"/>
</linearGradient>
<linearGradient id="paint17_linear_510_140" x1="176.889" y1="0.0956989" x2="177" y2="38.5" gradientUnits="userSpaceOnUse">
<stop stop-color="#FF4700"/>
<stop offset="0.154167" stop-color="#EA3125"/>
<stop offset="0.648958" stop-color="#FF4700"/>
<stop offset="1" stop-color="#DE331E"/>
</linearGradient>
<linearGradient id="paint18_linear_510_140" x1="176.889" y1="0.0956989" x2="177" y2="38.5" gradientUnits="userSpaceOnUse">
<stop stop-color="#FF4700"/>
<stop offset="0.154167" stop-color="#EA3125"/>
<stop offset="0.648958" stop-color="#FF4700"/>
<stop offset="1" stop-color="#DE331E"/>
</linearGradient>
<linearGradient id="paint19_linear_510_140" x1="176.889" y1="0.0956989" x2="177" y2="38.5" gradientUnits="userSpaceOnUse">
<stop stop-color="#FF4700"/>
<stop offset="0.154167" stop-color="#EA3125"/>
<stop offset="0.648958" stop-color="#FF4700"/>
<stop offset="1" stop-color="#DE331E"/>
</linearGradient>
<linearGradient id="paint20_linear_510_140" x1="176.889" y1="0.0956989" x2="177" y2="38.5" gradientUnits="userSpaceOnUse">
<stop stop-color="#FF4700"/>
<stop offset="0.154167" stop-color="#EA3125"/>
<stop offset="0.648958" stop-color="#FF4700"/>
<stop offset="1" stop-color="#DE331E"/>
</linearGradient>
<linearGradient id="paint21_linear_510_140" x1="176.889" y1="0.0956989" x2="177" y2="38.5" gradientUnits="userSpaceOnUse">
<stop stop-color="#FF4700"/>
<stop offset="0.154167" stop-color="#EA3125"/>
<stop offset="0.648958" stop-color="#FF4700"/>
<stop offset="1" stop-color="#DE331E"/>
</linearGradient>
<linearGradient id="paint22_linear_510_140" x1="176.889" y1="0.0956989" x2="177" y2="38.5" gradientUnits="userSpaceOnUse">
<stop stop-color="#FF4700"/>
<stop offset="0.154167" stop-color="#EA3125"/>
<stop offset="0.648958" stop-color="#FF4700"/>
<stop offset="1" stop-color="#DE331E"/>
</linearGradient>
<linearGradient id="paint23_linear_510_140" x1="176.889" y1="0.0956989" x2="177" y2="38.5" gradientUnits="userSpaceOnUse">
<stop stop-color="#FF4700"/>
<stop offset="0.154167" stop-color="#EA3125"/>
<stop offset="0.648958" stop-color="#FF4700"/>
<stop offset="1" stop-color="#DE331E"/>
</linearGradient>
<linearGradient id="paint24_linear_510_140" x1="176.889" y1="0.0956989" x2="177" y2="38.5" gradientUnits="userSpaceOnUse">
<stop stop-color="#FF4700"/>
<stop offset="0.154167" stop-color="#EA3125"/>
<stop offset="0.648958" stop-color="#FF4700"/>
<stop offset="1" stop-color="#DE331E"/>
</linearGradient>
<linearGradient id="paint25_linear_510_140" x1="176.889" y1="0.0956989" x2="177" y2="38.5" gradientUnits="userSpaceOnUse">
<stop stop-color="#FF4700"/>
<stop offset="0.154167" stop-color="#EA3125"/>
<stop offset="0.648958" stop-color="#FF4700"/>
<stop offset="1" stop-color="#DE331E"/>
</linearGradient>
<linearGradient id="paint26_linear_510_140" x1="176.889" y1="0.0956989" x2="177" y2="38.5" gradientUnits="userSpaceOnUse">
<stop stop-color="#FF4700"/>
<stop offset="0.154167" stop-color="#EA3125"/>
<stop offset="0.648958" stop-color="#FF4700"/>
<stop offset="1" stop-color="#DE331E"/>
</linearGradient>
<linearGradient id="paint27_linear_510_140" x1="176.889" y1="0.0956989" x2="177" y2="38.5" gradientUnits="userSpaceOnUse">
<stop stop-color="#FF4700"/>
<stop offset="0.154167" stop-color="#EA3125"/>
<stop offset="0.648958" stop-color="#FF4700"/>
<stop offset="1" stop-color="#DE331E"/>
</linearGradient>
<linearGradient id="paint28_linear_510_140" x1="176.889" y1="0.0956989" x2="177" y2="38.5" gradientUnits="userSpaceOnUse">
<stop stop-color="#FF4700"/>
<stop offset="0.154167" stop-color="#EA3125"/>
<stop offset="0.648958" stop-color="#FF4700"/>
<stop offset="1" stop-color="#DE331E"/>
</linearGradient>
<linearGradient id="paint29_linear_510_140" x1="176.889" y1="0.0956989" x2="177" y2="38.5" gradientUnits="userSpaceOnUse">
<stop stop-color="#FF4700"/>
<stop offset="0.154167" stop-color="#EA3125"/>
<stop offset="0.648958" stop-color="#FF4700"/>
<stop offset="1" stop-color="#DE331E"/>
</linearGradient>
<linearGradient id="paint30_linear_510_140" x1="176.889" y1="0.0956989" x2="177" y2="38.5" gradientUnits="userSpaceOnUse">
<stop stop-color="#FF4700"/>
<stop offset="0.154167" stop-color="#EA3125"/>
<stop offset="0.648958" stop-color="#FF4700"/>
<stop offset="1" stop-color="#DE331E"/>
</linearGradient>
<linearGradient id="paint31_linear_510_140" x1="176.889" y1="0.0956989" x2="177" y2="38.5" gradientUnits="userSpaceOnUse">
<stop stop-color="#FF4700"/>
<stop offset="0.154167" stop-color="#EA3125"/>
<stop offset="0.648958" stop-color="#FF4700"/>
<stop offset="1" stop-color="#DE331E"/>
</linearGradient>
<linearGradient id="paint32_linear_510_140" x1="176.889" y1="0.0956989" x2="177" y2="38.5" gradientUnits="userSpaceOnUse">
<stop stop-color="#FF4700"/>
<stop offset="0.154167" stop-color="#EA3125"/>
<stop offset="0.648958" stop-color="#FF4700"/>
<stop offset="1" stop-color="#DE331E"/>
</linearGradient>
<linearGradient id="paint33_linear_510_140" x1="176.889" y1="0.0956989" x2="177" y2="38.5" gradientUnits="userSpaceOnUse">
<stop stop-color="#FF4700"/>
<stop offset="0.154167" stop-color="#EA3125"/>
<stop offset="0.648958" stop-color="#FF4700"/>
<stop offset="1" stop-color="#DE331E"/>
</linearGradient>
<linearGradient id="paint34_linear_510_140" x1="176.889" y1="0.0956989" x2="177" y2="38.5" gradientUnits="userSpaceOnUse">
<stop stop-color="#FF4700"/>
<stop offset="0.154167" stop-color="#EA3125"/>
<stop offset="0.648958" stop-color="#FF4700"/>
<stop offset="1" stop-color="#DE331E"/>
</linearGradient>
<linearGradient id="paint35_linear_510_140" x1="176.889" y1="0.0956989" x2="177" y2="38.5" gradientUnits="userSpaceOnUse">
<stop stop-color="#FF4700"/>
<stop offset="0.154167" stop-color="#EA3125"/>
<stop offset="0.648958" stop-color="#FF4700"/>
<stop offset="1" stop-color="#DE331E"/>
</linearGradient>
<linearGradient id="paint36_linear_510_140" x1="176.889" y1="0.0956989" x2="177" y2="38.5" gradientUnits="userSpaceOnUse">
<stop stop-color="#FF4700"/>
<stop offset="0.154167" stop-color="#EA3125"/>
<stop offset="0.648958" stop-color="#FF4700"/>
<stop offset="1" stop-color="#DE331E"/>
</linearGradient>
<linearGradient id="paint37_linear_510_140" x1="176.889" y1="0.0956989" x2="177" y2="38.5" gradientUnits="userSpaceOnUse">
<stop stop-color="#FF4700"/>
<stop offset="0.154167" stop-color="#EA3125"/>
<stop offset="0.648958" stop-color="#FF4700"/>
<stop offset="1" stop-color="#DE331E"/>
</linearGradient>
<linearGradient id="paint38_linear_510_140" x1="176.889" y1="0.0956989" x2="177" y2="38.5" gradientUnits="userSpaceOnUse">
<stop stop-color="#FF4700"/>
<stop offset="0.154167" stop-color="#EA3125"/>
<stop offset="0.648958" stop-color="#FF4700"/>
<stop offset="1" stop-color="#DE331E"/>
</linearGradient>
<linearGradient id="paint39_linear_510_140" x1="176.889" y1="0.0956989" x2="177" y2="38.5" gradientUnits="userSpaceOnUse">
<stop stop-color="#FF4700"/>
<stop offset="0.154167" stop-color="#EA3125"/>
<stop offset="0.648958" stop-color="#FF4700"/>
<stop offset="1" stop-color="#DE331E"/>
</linearGradient>
<linearGradient id="paint40_linear_510_140" x1="176.889" y1="0.0956989" x2="177" y2="38.5" gradientUnits="userSpaceOnUse">
<stop stop-color="#FF4700"/>
<stop offset="0.154167" stop-color="#EA3125"/>
<stop offset="0.648958" stop-color="#FF4700"/>
<stop offset="1" stop-color="#DE331E"/>
</linearGradient>
<linearGradient id="paint41_linear_510_140" x1="176.889" y1="0.0956989" x2="177" y2="38.5" gradientUnits="userSpaceOnUse">
<stop stop-color="#FF4700"/>
<stop offset="0.154167" stop-color="#EA3125"/>
<stop offset="0.648958" stop-color="#FF4700"/>
<stop offset="1" stop-color="#DE331E"/>
</linearGradient>
<linearGradient id="paint42_linear_510_140" x1="176.889" y1="0.0956989" x2="177" y2="38.5" gradientUnits="userSpaceOnUse">
<stop stop-color="#FF4700"/>
<stop offset="0.154167" stop-color="#EA3125"/>
<stop offset="0.648958" stop-color="#FF4700"/>
<stop offset="1" stop-color="#DE331E"/>
</linearGradient>
<linearGradient id="paint43_linear_510_140" x1="176.889" y1="0.0956989" x2="177" y2="38.5" gradientUnits="userSpaceOnUse">
<stop stop-color="#FF4700"/>
<stop offset="0.154167" stop-color="#EA3125"/>
<stop offset="0.648958" stop-color="#FF4700"/>
<stop offset="1" stop-color="#DE331E"/>
</linearGradient>
<linearGradient id="paint44_linear_510_140" x1="176.889" y1="0.0956989" x2="177" y2="38.5" gradientUnits="userSpaceOnUse">
<stop stop-color="#FF4700"/>
<stop offset="0.154167" stop-color="#EA3125"/>
<stop offset="0.648958" stop-color="#FF4700"/>
<stop offset="1" stop-color="#DE331E"/>
</linearGradient>
<linearGradient id="paint45_linear_510_140" x1="176.889" y1="0.0956989" x2="177" y2="38.5" gradientUnits="userSpaceOnUse">
<stop stop-color="#FF4700"/>
<stop offset="0.154167" stop-color="#EA3125"/>
<stop offset="0.648958" stop-color="#FF4700"/>
<stop offset="1" stop-color="#DE331E"/>
</linearGradient>
<linearGradient id="paint46_linear_510_140" x1="176.889" y1="0.0956989" x2="177" y2="38.5" gradientUnits="userSpaceOnUse">
<stop stop-color="#FF4700"/>
<stop offset="0.154167" stop-color="#EA3125"/>
<stop offset="0.648958" stop-color="#FF4700"/>
<stop offset="1" stop-color="#DE331E"/>
</linearGradient>
<linearGradient id="paint47_linear_510_140" x1="176.889" y1="0.0956989" x2="177" y2="38.5" gradientUnits="userSpaceOnUse">
<stop stop-color="#FF4700"/>
<stop offset="0.154167" stop-color="#EA3125"/>
<stop offset="0.648958" stop-color="#FF4700"/>
<stop offset="1" stop-color="#DE331E"/>
</linearGradient>
<linearGradient id="paint48_linear_510_140" x1="176.889" y1="0.0956989" x2="177" y2="38.5" gradientUnits="userSpaceOnUse">
<stop stop-color="#FF4700"/>
<stop offset="0.154167" stop-color="#EA3125"/>
<stop offset="0.648958" stop-color="#FF4700"/>
<stop offset="1" stop-color="#DE331E"/>
</linearGradient>
<linearGradient id="paint49_linear_510_140" x1="176.889" y1="0.0956989" x2="177" y2="38.5" gradientUnits="userSpaceOnUse">
<stop stop-color="#FF4700"/>
<stop offset="0.154167" stop-color="#EA3125"/>
<stop offset="0.648958" stop-color="#FF4700"/>
<stop offset="1" stop-color="#DE331E"/>
</linearGradient>
<linearGradient id="paint50_linear_510_140" x1="176.889" y1="0.0956989" x2="177" y2="38.5" gradientUnits="userSpaceOnUse">
<stop stop-color="#FF4700"/>
<stop offset="0.154167" stop-color="#EA3125"/>
<stop offset="0.648958" stop-color="#FF4700"/>
<stop offset="1" stop-color="#DE331E"/>
</linearGradient>
<linearGradient id="paint51_linear_510_140" x1="176.889" y1="0.0956989" x2="177" y2="38.5" gradientUnits="userSpaceOnUse">
<stop stop-color="#FF4700"/>
<stop offset="0.154167" stop-color="#EA3125"/>
<stop offset="0.648958" stop-color="#FF4700"/>
<stop offset="1" stop-color="#DE331E"/>
</linearGradient>
<linearGradient id="paint52_linear_510_140" x1="41" y1="38" x2="41" y2="29" gradientUnits="userSpaceOnUse">
<stop stop-color="#D31217"/>
<stop offset="1" stop-color="#EF6628"/>
</linearGradient>
<linearGradient id="paint53_linear_510_140" x1="60" y1="38" x2="60" y2="29" gradientUnits="userSpaceOnUse">
<stop stop-color="#D31217"/>
<stop offset="1" stop-color="#EF6628"/>
</linearGradient>
<linearGradient id="paint54_linear_510_140" x1="239" y1="38" x2="239" y2="29" gradientUnits="userSpaceOnUse">
<stop stop-color="#D31217"/>
<stop offset="1" stop-color="#EF6628"/>
</linearGradient>
<linearGradient id="paint55_linear_510_140" x1="305" y1="38" x2="305" y2="29" gradientUnits="userSpaceOnUse">
<stop stop-color="#D31217"/>
<stop offset="1" stop-color="#EF6628"/>
</linearGradient>
<linearGradient id="paint56_linear_510_140" x1="325" y1="38" x2="325" y2="29" gradientUnits="userSpaceOnUse">
<stop stop-color="#D31217"/>
<stop offset="1" stop-color="#EF6628"/>
</linearGradient>
</defs>
</svg>
