<svg width="1860" height="185" viewBox="0 0 1860 185" fill="none" xmlns="http://www.w3.org/2000/svg">
<path d="M16.6798 37.8799L39.7198 70.9999H49.7998L25.7998 37.8799H16.6798ZM4.67984 3.79994V70.9999H12.8398V3.79994H4.67984ZM9.19184 10.9999H22.9198C25.7998 10.9999 28.3278 11.5119 30.5038 12.5359C32.7438 13.5599 34.4718 15.0319 35.6878 16.9519C36.9678 18.8719 37.6078 21.2079 37.6078 23.9599C37.6078 26.7119 36.9678 29.0479 35.6878 30.9679C34.4718 32.8879 32.7438 34.3599 30.5038 35.3839C28.3278 36.4079 25.7998 36.9199 22.9198 36.9199H9.19184V44.1199H22.9198C27.2718 44.1199 31.1438 43.3199 34.5358 41.7199C37.9918 40.0559 40.7118 37.7199 42.6958 34.7119C44.7438 31.6399 45.7678 28.0559 45.7678 23.9599C45.7678 19.7999 44.7438 16.2159 42.6958 13.2079C40.7118 10.1999 37.9918 7.89594 34.5358 6.29594C31.1438 4.63194 27.2718 3.79994 22.9198 3.79994H9.19184V10.9999Z" fill="#FF3C00"/>
<path d="M57.9186 3.79994V48.9199C57.9186 52.2479 58.4306 55.3199 59.4546 58.1359C60.5426 60.9519 62.0786 63.3839 64.0626 65.4319C66.1106 67.4799 68.5426 69.0799 71.3586 70.2319C74.1746 71.3839 77.3106 71.9599 80.7666 71.9599C84.2226 71.9599 87.3586 71.3839 90.1746 70.2319C92.9906 69.0799 95.3906 67.4799 97.3746 65.4319C99.4226 63.3839 100.959 60.9519 101.983 58.1359C103.071 55.3199 103.615 52.2479 103.615 48.9199V3.79994H95.4546V48.9199C95.4546 53.5279 94.2066 57.2399 91.7106 60.0559C89.2146 62.8719 85.5666 64.2799 80.7666 64.2799C75.9666 64.2799 72.3186 62.8719 69.8226 60.0559C67.3266 57.2399 66.0786 53.5279 66.0786 48.9199V3.79994H57.9186Z" fill="#FF3C00"/>
<path d="M120.988 50.6479L114.46 55.0639C115.932 58.0079 117.82 60.7919 120.124 63.4159C122.492 65.9759 125.212 68.0559 128.284 69.6559C131.42 71.1919 134.812 71.9599 138.46 71.9599C141.148 71.9599 143.708 71.5119 146.14 70.6159C148.636 69.7199 150.844 68.4399 152.764 66.7759C154.748 65.1119 156.284 63.0959 157.372 60.7279C158.524 58.3599 159.1 55.7039 159.1 52.7599C159.1 49.6879 158.556 47.0639 157.468 44.8879C156.38 42.6479 154.972 40.7599 153.244 39.2239C151.58 37.6239 149.756 36.3119 147.772 35.2879C145.788 34.2639 143.9 33.4319 142.108 32.7919C138.204 31.4479 135.1 30.1039 132.796 28.7599C130.556 27.3519 128.956 25.8799 127.996 24.3439C127.036 22.7439 126.556 21.0159 126.556 19.1599C126.556 16.9839 127.388 15.0319 129.052 13.3039C130.716 11.5119 133.372 10.6159 137.02 10.6159C139.644 10.6159 141.852 11.1279 143.644 12.1519C145.5 13.1759 147.068 14.4879 148.348 16.0879C149.628 17.6879 150.684 19.3199 151.516 20.9839L158.524 16.9519C157.436 14.5839 155.932 12.3439 154.012 10.2319C152.092 8.05594 149.756 6.29594 147.004 4.95194C144.316 3.54394 141.148 2.83994 137.5 2.83994C133.724 2.83994 130.364 3.60794 127.42 5.14394C124.476 6.61594 122.172 8.66394 120.508 11.2879C118.844 13.9119 118.012 16.8879 118.012 20.2159C118.012 23.2879 118.588 25.8799 119.74 27.9919C120.956 30.1039 122.492 31.8959 124.348 33.3679C126.204 34.7759 128.156 35.9599 130.204 36.9199C132.252 37.8159 134.108 38.5519 135.772 39.1279C138.332 40.0239 140.732 41.0479 142.972 42.1999C145.276 43.2879 147.132 44.7279 148.54 46.5199C149.948 48.3119 150.652 50.7119 150.652 53.7199C150.652 56.7919 149.564 59.3199 147.388 61.3039C145.212 63.2879 142.332 64.2799 138.748 64.2799C136.06 64.2799 133.66 63.7039 131.548 62.5519C129.436 61.3999 127.516 59.7999 125.788 57.7519C124.124 55.7039 122.524 53.3359 120.988 50.6479Z" fill="#FF3C00"/>
<path d="M173.582 50.6479L167.054 55.0639C168.526 58.0079 170.414 60.7919 172.718 63.4159C175.086 65.9759 177.806 68.0559 180.878 69.6559C184.014 71.1919 187.406 71.9599 191.054 71.9599C193.742 71.9599 196.302 71.5119 198.734 70.6159C201.23 69.7199 203.438 68.4399 205.358 66.7759C207.342 65.1119 208.878 63.0959 209.966 60.7279C211.118 58.3599 211.694 55.7039 211.694 52.7599C211.694 49.6879 211.15 47.0639 210.062 44.8879C208.974 42.6479 207.566 40.7599 205.838 39.2239C204.174 37.6239 202.35 36.3119 200.366 35.2879C198.382 34.2639 196.494 33.4319 194.702 32.7919C190.798 31.4479 187.694 30.1039 185.39 28.7599C183.15 27.3519 181.55 25.8799 180.59 24.3439C179.63 22.7439 179.15 21.0159 179.15 19.1599C179.15 16.9839 179.982 15.0319 181.646 13.3039C183.31 11.5119 185.966 10.6159 189.614 10.6159C192.238 10.6159 194.446 11.1279 196.238 12.1519C198.094 13.1759 199.662 14.4879 200.942 16.0879C202.222 17.6879 203.278 19.3199 204.11 20.9839L211.118 16.9519C210.03 14.5839 208.526 12.3439 206.606 10.2319C204.686 8.05594 202.35 6.29594 199.598 4.95194C196.91 3.54394 193.742 2.83994 190.094 2.83994C186.318 2.83994 182.958 3.60794 180.014 5.14394C177.07 6.61594 174.766 8.66394 173.102 11.2879C171.438 13.9119 170.606 16.8879 170.606 20.2159C170.606 23.2879 171.182 25.8799 172.334 27.9919C173.55 30.1039 175.086 31.8959 176.942 33.3679C178.798 34.7759 180.75 35.9599 182.798 36.9199C184.846 37.8159 186.702 38.5519 188.366 39.1279C190.926 40.0239 193.326 41.0479 195.566 42.1999C197.87 43.2879 199.726 44.7279 201.134 46.5199C202.542 48.3119 203.246 50.7119 203.246 53.7199C203.246 56.7919 202.158 59.3199 199.982 61.3039C197.806 63.2879 194.926 64.2799 191.342 64.2799C188.654 64.2799 186.254 63.7039 184.142 62.5519C182.03 61.3999 180.11 59.7999 178.382 57.7519C176.718 55.7039 175.118 53.3359 173.582 50.6479Z" fill="#FF3C00"/>
<path d="M223.68 3.79994V70.9999H231.84V3.79994H223.68Z" fill="#FF3C00"/>
<path d="M253.643 50.8399H289.163L286.283 43.1599H256.523L253.643 50.8399ZM271.211 18.9679L282.731 46.0399L283.499 47.9599L293.291 70.9999H302.411L271.211 0.439941L240.011 70.9999H249.131L259.115 47.3839L259.883 45.6559L271.211 18.9679Z" fill="#FF3C00"/>
<path d="M361.466 3.79994V53.8159L310.586 0.439941V70.9999H318.746V20.9839L369.626 74.3599V3.79994H361.466Z" fill="#FF3C00"/>
<path d="M413.805 3.79994V70.9999H448.365V63.3199H421.965V3.79994H413.805Z" fill="#FF3C00"/>
<path d="M457.024 3.79994V70.9999H465.184V3.79994H457.024Z" fill="#FF3C00"/>
<path d="M531.435 3.79994V53.8159L480.555 0.439941V70.9999H488.715V20.9839L539.595 74.3599V3.79994H531.435Z" fill="#FF3C00"/>
<path d="M586.192 44.5999H608.56C607.984 47.2239 607.056 49.6879 605.776 51.9919C604.56 54.2959 602.992 56.3439 601.072 58.1359C599.152 59.9279 596.848 61.3359 594.16 62.3599C591.536 63.3199 588.56 63.7999 585.232 63.7999C580.496 63.7999 576.208 62.6799 572.368 60.4399C568.528 58.1999 565.456 55.0959 563.152 51.1279C560.912 47.1599 559.792 42.5839 559.792 37.3999C559.792 32.1519 560.912 27.5759 563.152 23.6719C565.456 19.7039 568.528 16.5999 572.368 14.3599C576.208 12.1199 580.496 10.9999 585.232 10.9999C590.352 10.9999 594.8 12.0239 598.576 14.0719C602.352 16.0559 605.296 18.8399 607.408 22.4239L613.168 17.1439C611.248 14.0079 608.88 11.3839 606.064 9.27194C603.312 7.15994 600.176 5.55994 596.656 4.47194C593.2 3.38394 589.392 2.83994 585.232 2.83994C580.368 2.83994 575.856 3.70394 571.696 5.43194C567.536 7.09594 563.92 9.49594 560.848 12.6319C557.776 15.7039 555.376 19.3519 553.648 23.5759C551.984 27.7999 551.152 32.4079 551.152 37.3999C551.152 42.3919 551.984 46.9999 553.648 51.2239C555.376 55.4479 557.776 59.1279 560.848 62.2639C563.92 65.3359 567.536 67.7359 571.696 69.4639C575.856 71.1279 580.368 71.9599 585.232 71.9599C590.352 71.9599 594.896 71.0319 598.864 69.1759C602.896 67.2559 606.288 64.6639 609.04 61.3999C611.792 58.1359 613.872 54.4239 615.28 50.2639C616.688 46.0399 617.392 41.5919 617.392 36.9199H586.192V44.5999Z" fill="#FF3C00"/>
<path d="M633.942 70.9999H667.83V63.3199H633.942V70.9999ZM633.942 11.4799H667.83V3.79994H633.942V11.4799ZM633.942 38.3599H665.91V30.6799H633.942V38.3599ZM629.43 3.79994V70.9999H637.59V3.79994H629.43Z" fill="#FF3C00"/>
<path d="M694.211 37.8799L717.251 70.9999H727.331L703.331 37.8799H694.211ZM682.211 3.79994V70.9999H690.371V3.79994H682.211ZM686.723 10.9999H700.451C703.331 10.9999 705.859 11.5119 708.035 12.5359C710.275 13.5599 712.003 15.0319 713.219 16.9519C714.499 18.8719 715.139 21.2079 715.139 23.9599C715.139 26.7119 714.499 29.0479 713.219 30.9679C712.003 32.8879 710.275 34.3599 708.035 35.3839C705.859 36.4079 703.331 36.9199 700.451 36.9199H686.723V44.1199H700.451C704.803 44.1199 708.675 43.3199 712.067 41.7199C715.523 40.0559 718.243 37.7199 720.227 34.7119C722.275 31.6399 723.299 28.0559 723.299 23.9599C723.299 19.7999 722.275 16.2159 720.227 13.2079C718.243 10.1999 715.523 7.89594 712.067 6.29594C708.675 4.63194 704.803 3.79994 700.451 3.79994H686.723V10.9999Z" fill="#FF3C00"/>
<path d="M735.93 3.79994V70.9999H744.09V3.79994H735.93Z" fill="#FF3C00"/>
<path d="M763.973 70.9999H797.861V63.3199H763.973V70.9999ZM763.973 11.4799H797.861V3.79994H763.973V11.4799ZM763.973 38.3599H795.941V30.6799H763.973V38.3599ZM759.461 3.79994V70.9999H767.621V3.79994H759.461Z" fill="#FF3C00"/>
<path d="M847.456 35.4799H858.304C862.336 35.4799 865.824 34.9039 868.768 33.7519C871.776 32.5999 874.112 30.9039 875.776 28.6639C877.44 26.4239 878.272 23.7359 878.272 20.5999C878.272 16.7599 877.44 13.6239 875.776 11.1919C874.112 8.69594 871.776 6.83994 868.768 5.62394C865.824 4.40794 862.336 3.79994 858.304 3.79994H841.024V70.9999H859.264C863.616 70.9999 867.488 70.2959 870.88 68.8879C874.336 67.4159 877.056 65.2399 879.04 62.3599C881.088 59.4159 882.112 55.7359 882.112 51.3199C882.112 48.2479 881.536 45.5919 880.384 43.3519C879.232 41.1119 877.6 39.2879 875.488 37.8799C873.44 36.4079 871.04 35.3199 868.288 34.6159C865.536 33.9119 862.528 33.5599 859.264 33.5599H847.456V38.0719H859.264C861.44 38.0719 863.424 38.3599 865.216 38.9359C867.008 39.4479 868.544 40.2479 869.824 41.3359C871.168 42.4239 872.192 43.7679 872.896 45.3679C873.6 46.9679 873.952 48.7919 873.952 50.8399C873.952 53.5919 873.312 55.9279 872.032 57.8479C870.816 59.7679 869.088 61.2399 866.848 62.2639C864.672 63.2879 862.144 63.7999 859.264 63.7999H849.184V10.9999H858.304C861.696 10.9999 864.512 11.8959 866.752 13.6879C868.992 15.4159 870.112 17.8799 870.112 21.0799C870.112 23.1919 869.6 24.9839 868.576 26.4559C867.552 27.9279 866.144 29.0479 864.352 29.8159C862.56 30.5839 860.544 30.9679 858.304 30.9679H847.456V35.4799Z" fill="#FF3C00"/>
<path d="M906.555 37.8799L929.595 70.9999H939.675L915.675 37.8799H906.555ZM894.555 3.79994V70.9999H902.715V3.79994H894.555ZM899.067 10.9999H912.795C915.675 10.9999 918.203 11.5119 920.379 12.5359C922.619 13.5599 924.347 15.0319 925.563 16.9519C926.843 18.8719 927.483 21.2079 927.483 23.9599C927.483 26.7119 926.843 29.0479 925.563 30.9679C924.347 32.8879 922.619 34.3599 920.379 35.3839C918.203 36.4079 915.675 36.9199 912.795 36.9199H899.067V44.1199H912.795C917.147 44.1199 921.019 43.3199 924.411 41.7199C927.867 40.0559 930.587 37.7199 932.571 34.7119C934.619 31.6399 935.643 28.0559 935.643 23.9599C935.643 19.7999 934.619 16.2159 932.571 13.2079C930.587 10.1999 927.867 7.89594 924.411 6.29594C921.019 4.63194 917.147 3.79994 912.795 3.79994H899.067V10.9999Z" fill="#FF3C00"/>
<path d="M954.706 50.8399H990.226L987.346 43.1599H957.586L954.706 50.8399ZM972.274 18.9679L983.794 46.0399L984.562 47.9599L994.354 70.9999H1003.47L972.274 0.439941L941.074 70.9999H950.194L960.178 47.3839L960.946 45.6559L972.274 18.9679Z" fill="#FF3C00"/>
<path d="M1062.53 3.79994V53.8159L1011.65 0.439941V70.9999H1019.81V20.9839L1070.69 74.3599V3.79994H1062.53Z" fill="#FF3C00"/>
<path d="M1086.09 3.79994V70.9999H1094.25V3.79994H1086.09ZM1106.25 70.9999C1112.77 70.9999 1118.57 69.5919 1123.62 66.7759C1128.68 63.9599 1132.65 60.0559 1135.53 55.0639C1138.41 50.0079 1139.85 44.1199 1139.85 37.3999C1139.85 30.6799 1138.41 24.8239 1135.53 19.8319C1132.65 14.7759 1128.68 10.8399 1123.62 8.02394C1118.57 5.20794 1112.77 3.79994 1106.25 3.79994H1090.6V11.9599H1106.25C1110.02 11.9599 1113.48 12.5679 1116.61 13.7839C1119.75 14.9359 1122.44 16.6319 1124.68 18.8719C1126.92 21.0479 1128.65 23.7039 1129.86 26.8399C1131.08 29.9759 1131.69 33.4959 1131.69 37.3999C1131.69 41.3039 1131.08 44.8239 1129.86 47.9599C1128.65 51.0959 1126.92 53.7839 1124.68 56.0239C1122.44 58.1999 1119.75 59.8959 1116.61 61.1119C1113.48 62.2639 1110.02 62.8399 1106.25 62.8399H1090.6V70.9999H1106.25Z" fill="#FF3C00"/>
<path d="M9.47984 147.4C9.47984 142.152 10.6318 137.576 12.9358 133.672C15.3038 129.704 18.3758 126.6 22.1518 124.36C25.9278 122.12 30.0238 121 34.4398 121C37.6398 121 40.5518 121.416 43.1758 122.248C45.8638 123.08 48.2958 124.264 50.4718 125.8C52.6478 127.272 54.5038 129 56.0398 130.984V120.232C53.2238 117.736 50.1518 115.88 46.8238 114.664C43.4958 113.448 39.3678 112.84 34.4398 112.84C29.7678 112.84 25.3838 113.704 21.2878 115.432C17.2558 117.096 13.7038 119.496 10.6318 122.632C7.55984 125.704 5.15984 129.352 3.43184 133.576C1.70384 137.8 0.839844 142.408 0.839844 147.4C0.839844 152.392 1.70384 157 3.43184 161.224C5.15984 165.448 7.55984 169.128 10.6318 172.264C13.7038 175.336 17.2558 177.736 21.2878 179.464C25.3838 181.128 29.7678 181.96 34.4398 181.96C39.3678 181.96 43.4958 181.352 46.8238 180.136C50.1518 178.92 53.2238 177.064 56.0398 174.568V163.816C54.5038 165.8 52.6478 167.56 50.4718 169.096C48.2958 170.568 45.8638 171.72 43.1758 172.552C40.5518 173.384 37.6398 173.8 34.4398 173.8C30.0238 173.8 25.9278 172.68 22.1518 170.44C18.3758 168.2 15.3038 165.096 12.9358 161.128C10.6318 157.16 9.47984 152.584 9.47984 147.4Z" fill="#FF3C00"/>
<path d="M82.3986 147.88L105.439 181H115.519L91.5186 147.88H82.3986ZM70.3986 113.8V181H78.5586V113.8H70.3986ZM74.9106 121H88.6386C91.5186 121 94.0466 121.512 96.2226 122.536C98.4626 123.56 100.191 125.032 101.407 126.952C102.687 128.872 103.327 131.208 103.327 133.96C103.327 136.712 102.687 139.048 101.407 140.968C100.191 142.888 98.4626 144.36 96.2226 145.384C94.0466 146.408 91.5186 146.92 88.6386 146.92H74.9106V154.12H88.6386C92.9906 154.12 96.8626 153.32 100.255 151.72C103.711 150.056 106.431 147.72 108.415 144.712C110.463 141.64 111.487 138.056 111.487 133.96C111.487 129.8 110.463 126.216 108.415 123.208C106.431 120.2 103.711 117.896 100.255 116.296C96.8626 114.632 92.9906 113.8 88.6386 113.8H74.9106V121Z" fill="#FF3C00"/>
<path d="M128.629 181H162.517V173.32H128.629V181ZM128.629 121.48H162.517V113.8H128.629V121.48ZM128.629 148.36H160.597V140.68H128.629V148.36ZM124.117 113.8V181H132.277V113.8H124.117Z" fill="#FF3C00"/>
<path d="M183.331 160.84H218.851L215.971 153.16H186.211L183.331 160.84ZM200.899 128.968L212.419 156.04L213.187 157.96L222.979 181H232.099L200.899 110.44L169.699 181H178.819L188.803 157.384L189.571 155.656L200.899 128.968Z" fill="#FF3C00"/>
<path d="M226.804 121.48H244.084V181H252.244V121.48H269.524V113.8H226.804V121.48Z" fill="#FF3C00"/>
<path d="M282.661 181H316.549V173.32H282.661V181ZM282.661 121.48H316.549V113.8H282.661V121.48ZM282.661 148.36H314.629V140.68H282.661V148.36ZM278.149 113.8V181H286.309V113.8H278.149Z" fill="#FF3C00"/>
<path d="M330.93 113.8V181H339.09V113.8H330.93ZM351.09 181C357.618 181 363.41 179.592 368.466 176.776C373.522 173.96 377.49 170.056 380.37 165.064C383.25 160.008 384.69 154.12 384.69 147.4C384.69 140.68 383.25 134.824 380.37 129.832C377.49 124.776 373.522 120.84 368.466 118.024C363.41 115.208 357.618 113.8 351.09 113.8H335.442V121.96H351.09C354.866 121.96 358.322 122.568 361.458 123.784C364.594 124.936 367.282 126.632 369.522 128.872C371.762 131.048 373.49 133.704 374.706 136.84C375.922 139.976 376.53 143.496 376.53 147.4C376.53 151.304 375.922 154.824 374.706 157.96C373.49 161.096 371.762 163.784 369.522 166.024C367.282 168.2 364.594 169.896 361.458 171.112C358.322 172.264 354.866 172.84 351.09 172.84H335.442V181H351.09Z" fill="#FF3C00"/>
<path d="M429.473 121.48H459.521V113.8H429.473V121.48ZM429.473 148.36H458.561V140.68H429.473V148.36ZM424.961 113.8V181H433.121V113.8H424.961Z" fill="#FF3C00"/>
<path d="M477.761 147.4C477.761 142.344 478.849 137.832 481.025 133.864C483.265 129.896 486.305 126.76 490.145 124.456C493.985 122.152 498.337 121 503.201 121C508.129 121 512.481 122.152 516.257 124.456C520.097 126.76 523.105 129.896 525.281 133.864C527.521 137.832 528.641 142.344 528.641 147.4C528.641 152.456 527.521 156.968 525.281 160.936C523.105 164.904 520.097 168.04 516.257 170.344C512.481 172.648 508.129 173.8 503.201 173.8C498.337 173.8 493.985 172.648 490.145 170.344C486.305 168.04 483.265 164.904 481.025 160.936C478.849 156.968 477.761 152.456 477.761 147.4ZM469.121 147.4C469.121 152.264 469.953 156.808 471.617 161.032C473.345 165.256 475.745 168.936 478.817 172.072C481.889 175.144 485.505 177.576 489.665 179.368C493.825 181.096 498.337 181.96 503.201 181.96C508.129 181.96 512.641 181.096 516.737 179.368C520.897 177.576 524.513 175.144 527.585 172.072C530.657 168.936 533.025 165.256 534.689 161.032C536.417 156.808 537.281 152.264 537.281 147.4C537.281 142.472 536.417 137.928 534.689 133.768C533.025 129.544 530.657 125.896 527.585 122.824C524.513 119.688 520.897 117.256 516.737 115.528C512.641 113.736 508.129 112.84 503.201 112.84C498.337 112.84 493.825 113.736 489.665 115.528C485.505 117.256 481.889 119.688 478.817 122.824C475.745 125.896 473.345 129.544 471.617 133.768C469.953 137.928 469.121 142.472 469.121 147.4Z" fill="#FF3C00"/>
<path d="M560.805 147.88L583.845 181H593.925L569.925 147.88H560.805ZM548.805 113.8V181H556.965V113.8H548.805ZM553.317 121H567.045C569.925 121 572.453 121.512 574.629 122.536C576.869 123.56 578.597 125.032 579.813 126.952C581.093 128.872 581.733 131.208 581.733 133.96C581.733 136.712 581.093 139.048 579.813 140.968C578.597 142.888 576.869 144.36 574.629 145.384C572.453 146.408 569.925 146.92 567.045 146.92H553.317V154.12H567.045C571.397 154.12 575.269 153.32 578.661 151.72C582.117 150.056 584.837 147.72 586.821 144.712C588.869 141.64 589.893 138.056 589.893 133.96C589.893 129.8 588.869 126.216 586.821 123.208C584.837 120.2 582.117 117.896 578.661 116.296C575.269 114.632 571.397 113.8 567.045 113.8H553.317V121Z" fill="#FF3C00"/>
<path d="M624.585 121.48H641.865V181H650.025V121.48H667.305V113.8H624.585V121.48Z" fill="#FF3C00"/>
<path d="M680.442 148.36H726.522V140.68H680.442V148.36ZM721.05 113.8V181H729.21V113.8H721.05ZM675.93 113.8V181H684.09V113.8H675.93Z" fill="#FF3C00"/>
<path d="M749.067 181H782.955V173.32H749.067V181ZM749.067 121.48H782.955V113.8H749.067V121.48ZM749.067 148.36H781.035V140.68H749.067V148.36ZM744.555 113.8V181H752.715V113.8H744.555Z" fill="#FF3C00"/>
<path d="M835.429 135.592L857.317 174.76L879.205 135.592L884.197 181H892.357L884.197 110.44L857.317 159.112L830.437 110.44L822.277 181H830.437L835.429 135.592Z" fill="#FF3C00"/>
<path d="M908.636 147.4C908.636 142.344 909.724 137.832 911.9 133.864C914.14 129.896 917.18 126.76 921.02 124.456C924.86 122.152 929.212 121 934.076 121C939.004 121 943.356 122.152 947.132 124.456C950.972 126.76 953.98 129.896 956.156 133.864C958.396 137.832 959.516 142.344 959.516 147.4C959.516 152.456 958.396 156.968 956.156 160.936C953.98 164.904 950.972 168.04 947.132 170.344C943.356 172.648 939.004 173.8 934.076 173.8C929.212 173.8 924.86 172.648 921.02 170.344C917.18 168.04 914.14 164.904 911.9 160.936C909.724 156.968 908.636 152.456 908.636 147.4ZM899.996 147.4C899.996 152.264 900.828 156.808 902.492 161.032C904.22 165.256 906.62 168.936 909.692 172.072C912.764 175.144 916.38 177.576 920.54 179.368C924.7 181.096 929.212 181.96 934.076 181.96C939.004 181.96 943.516 181.096 947.612 179.368C951.772 177.576 955.388 175.144 958.46 172.072C961.532 168.936 963.9 165.256 965.564 161.032C967.292 156.808 968.156 152.264 968.156 147.4C968.156 142.472 967.292 137.928 965.564 133.768C963.9 129.544 961.532 125.896 958.46 122.824C955.388 119.688 951.772 117.256 947.612 115.528C943.516 113.736 939.004 112.84 934.076 112.84C929.212 112.84 924.7 113.736 920.54 115.528C916.38 117.256 912.764 119.688 909.692 122.824C906.62 125.896 904.22 129.544 902.492 133.768C900.828 137.928 899.996 142.472 899.996 147.4Z" fill="#FF3C00"/>
<path d="M982.176 160.648L975.648 165.064C977.12 168.008 979.008 170.792 981.312 173.416C983.68 175.976 986.4 178.056 989.472 179.656C992.608 181.192 996 181.96 999.648 181.96C1002.34 181.96 1004.9 181.512 1007.33 180.616C1009.82 179.72 1012.03 178.44 1013.95 176.776C1015.94 175.112 1017.47 173.096 1018.56 170.728C1019.71 168.36 1020.29 165.704 1020.29 162.76C1020.29 159.688 1019.74 157.064 1018.66 154.888C1017.57 152.648 1016.16 150.76 1014.43 149.224C1012.77 147.624 1010.94 146.312 1008.96 145.288C1006.98 144.264 1005.09 143.432 1003.3 142.792C999.392 141.448 996.288 140.104 993.984 138.76C991.744 137.352 990.144 135.88 989.184 134.344C988.224 132.744 987.744 131.016 987.744 129.16C987.744 126.984 988.576 125.032 990.24 123.304C991.904 121.512 994.56 120.616 998.208 120.616C1000.83 120.616 1003.04 121.128 1004.83 122.152C1006.69 123.176 1008.26 124.488 1009.54 126.088C1010.82 127.688 1011.87 129.32 1012.7 130.984L1019.71 126.952C1018.62 124.584 1017.12 122.344 1015.2 120.232C1013.28 118.056 1010.94 116.296 1008.19 114.952C1005.5 113.544 1002.34 112.84 998.688 112.84C994.912 112.84 991.552 113.608 988.608 115.144C985.664 116.616 983.36 118.664 981.696 121.288C980.032 123.912 979.2 126.888 979.2 130.216C979.2 133.288 979.776 135.88 980.928 137.992C982.144 140.104 983.68 141.896 985.536 143.368C987.392 144.776 989.344 145.96 991.392 146.92C993.44 147.816 995.296 148.552 996.96 149.128C999.52 150.024 1001.92 151.048 1004.16 152.2C1006.46 153.288 1008.32 154.728 1009.73 156.52C1011.14 158.312 1011.84 160.712 1011.84 163.72C1011.84 166.792 1010.75 169.32 1008.58 171.304C1006.4 173.288 1003.52 174.28 999.936 174.28C997.248 174.28 994.848 173.704 992.736 172.552C990.624 171.4 988.704 169.8 986.976 167.752C985.312 165.704 983.712 163.336 982.176 160.648Z" fill="#FF3C00"/>
<path d="M1025.55 121.48H1042.83V181H1050.99V121.48H1068.27V113.8H1025.55V121.48Z" fill="#FF3C00"/>
<path d="M1108.18 160.648L1101.65 165.064C1103.12 168.008 1105.01 170.792 1107.31 173.416C1109.68 175.976 1112.4 178.056 1115.47 179.656C1118.61 181.192 1122 181.96 1125.65 181.96C1128.34 181.96 1130.9 181.512 1133.33 180.616C1135.82 179.72 1138.03 178.44 1139.95 176.776C1141.94 175.112 1143.47 173.096 1144.56 170.728C1145.71 168.36 1146.29 165.704 1146.29 162.76C1146.29 159.688 1145.74 157.064 1144.66 154.888C1143.57 152.648 1142.16 150.76 1140.43 149.224C1138.77 147.624 1136.94 146.312 1134.96 145.288C1132.98 144.264 1131.09 143.432 1129.3 142.792C1125.39 141.448 1122.29 140.104 1119.98 138.76C1117.74 137.352 1116.14 135.88 1115.18 134.344C1114.22 132.744 1113.74 131.016 1113.74 129.16C1113.74 126.984 1114.58 125.032 1116.24 123.304C1117.9 121.512 1120.56 120.616 1124.21 120.616C1126.83 120.616 1129.04 121.128 1130.83 122.152C1132.69 123.176 1134.26 124.488 1135.54 126.088C1136.82 127.688 1137.87 129.32 1138.7 130.984L1145.71 126.952C1144.62 124.584 1143.12 122.344 1141.2 120.232C1139.28 118.056 1136.94 116.296 1134.19 114.952C1131.5 113.544 1128.34 112.84 1124.69 112.84C1120.91 112.84 1117.55 113.608 1114.61 115.144C1111.66 116.616 1109.36 118.664 1107.7 121.288C1106.03 123.912 1105.2 126.888 1105.2 130.216C1105.2 133.288 1105.78 135.88 1106.93 137.992C1108.14 140.104 1109.68 141.896 1111.54 143.368C1113.39 144.776 1115.34 145.96 1117.39 146.92C1119.44 147.816 1121.3 148.552 1122.96 149.128C1125.52 150.024 1127.92 151.048 1130.16 152.2C1132.46 153.288 1134.32 154.728 1135.73 156.52C1137.14 158.312 1137.84 160.712 1137.84 163.72C1137.84 166.792 1136.75 169.32 1134.58 171.304C1132.4 173.288 1129.52 174.28 1125.94 174.28C1123.25 174.28 1120.85 173.704 1118.74 172.552C1116.62 171.4 1114.7 169.8 1112.98 167.752C1111.31 165.704 1109.71 163.336 1108.18 160.648Z" fill="#FF3C00"/>
<path d="M1162.79 181H1196.67V173.32H1162.79V181ZM1162.79 121.48H1196.67V113.8H1162.79V121.48ZM1162.79 148.36H1194.75V140.68H1162.79V148.36ZM1158.27 113.8V181H1166.43V113.8H1158.27Z" fill="#FF3C00"/>
<path d="M1261.93 113.8V163.816L1211.05 110.44V181H1219.21V130.984L1270.09 184.36V113.8H1261.93Z" fill="#FF3C00"/>
<path d="M1287.99 160.648L1281.46 165.064C1282.93 168.008 1284.82 170.792 1287.12 173.416C1289.49 175.976 1292.21 178.056 1295.28 179.656C1298.42 181.192 1301.81 181.96 1305.46 181.96C1308.15 181.96 1310.71 181.512 1313.14 180.616C1315.64 179.72 1317.84 178.44 1319.76 176.776C1321.75 175.112 1323.28 173.096 1324.37 170.728C1325.52 168.36 1326.1 165.704 1326.1 162.76C1326.1 159.688 1325.56 157.064 1324.47 154.888C1323.38 152.648 1321.97 150.76 1320.24 149.224C1318.58 147.624 1316.76 146.312 1314.77 145.288C1312.79 144.264 1310.9 143.432 1309.11 142.792C1305.2 141.448 1302.1 140.104 1299.8 138.76C1297.56 137.352 1295.96 135.88 1295 134.344C1294.04 132.744 1293.56 131.016 1293.56 129.16C1293.56 126.984 1294.39 125.032 1296.05 123.304C1297.72 121.512 1300.37 120.616 1304.02 120.616C1306.64 120.616 1308.85 121.128 1310.64 122.152C1312.5 123.176 1314.07 124.488 1315.35 126.088C1316.63 127.688 1317.68 129.32 1318.52 130.984L1325.52 126.952C1324.44 124.584 1322.93 122.344 1321.01 120.232C1319.09 118.056 1316.76 116.296 1314 114.952C1311.32 113.544 1308.15 112.84 1304.5 112.84C1300.72 112.84 1297.36 113.608 1294.42 115.144C1291.48 116.616 1289.17 118.664 1287.51 121.288C1285.84 123.912 1285.01 126.888 1285.01 130.216C1285.01 133.288 1285.59 135.88 1286.74 137.992C1287.96 140.104 1289.49 141.896 1291.35 143.368C1293.2 144.776 1295.16 145.96 1297.2 146.92C1299.25 147.816 1301.11 148.552 1302.77 149.128C1305.33 150.024 1307.73 151.048 1309.97 152.2C1312.28 153.288 1314.13 154.728 1315.54 156.52C1316.95 158.312 1317.65 160.712 1317.65 163.72C1317.65 166.792 1316.56 169.32 1314.39 171.304C1312.21 173.288 1309.33 174.28 1305.75 174.28C1303.06 174.28 1300.66 173.704 1298.55 172.552C1296.44 171.4 1294.52 169.8 1292.79 167.752C1291.12 165.704 1289.52 163.336 1287.99 160.648Z" fill="#FF3C00"/>
<path d="M1337.61 113.8V158.92C1337.61 162.248 1338.12 165.32 1339.14 168.136C1340.23 170.952 1341.77 173.384 1343.75 175.432C1345.8 177.48 1348.23 179.08 1351.05 180.232C1353.86 181.384 1357 181.96 1360.45 181.96C1363.91 181.96 1367.05 181.384 1369.86 180.232C1372.68 179.08 1375.08 177.48 1377.06 175.432C1379.11 173.384 1380.65 170.952 1381.67 168.136C1382.76 165.32 1383.3 162.248 1383.3 158.92V113.8H1375.14V158.92C1375.14 163.528 1373.89 167.24 1371.4 170.056C1368.9 172.872 1365.25 174.28 1360.45 174.28C1355.65 174.28 1352.01 172.872 1349.51 170.056C1347.01 167.24 1345.77 163.528 1345.77 158.92V113.8H1337.61Z" fill="#FF3C00"/>
<path d="M1404.61 160.84H1440.13L1437.25 153.16H1407.49L1404.61 160.84ZM1422.18 128.968L1433.7 156.04L1434.47 157.96L1444.26 181H1453.38L1422.18 110.44L1390.98 181H1400.1L1410.08 157.384L1410.85 155.656L1422.18 128.968Z" fill="#FF3C00"/>
<path d="M1461.55 113.8V181H1496.11V173.32H1469.71V113.8H1461.55Z" fill="#FF3C00"/>
<path d="M1584.43 113.8V163.816L1533.55 110.44V181H1541.71V130.984L1592.59 184.36V113.8H1584.43Z" fill="#FF3C00"/>
<path d="M1607.99 113.8V181H1616.15V113.8H1607.99Z" fill="#FF3C00"/>
<path d="M1662.72 154.6H1685.09C1684.52 157.224 1683.59 159.688 1682.31 161.992C1681.09 164.296 1679.52 166.344 1677.6 168.136C1675.68 169.928 1673.38 171.336 1670.69 172.36C1668.07 173.32 1665.09 173.8 1661.76 173.8C1657.03 173.8 1652.74 172.68 1648.9 170.44C1645.06 168.2 1641.99 165.096 1639.68 161.128C1637.44 157.16 1636.32 152.584 1636.32 147.4C1636.32 142.152 1637.44 137.576 1639.68 133.672C1641.99 129.704 1645.06 126.6 1648.9 124.36C1652.74 122.12 1657.03 121 1661.76 121C1666.88 121 1671.33 122.024 1675.11 124.072C1678.88 126.056 1681.83 128.84 1683.94 132.424L1689.7 127.144C1687.78 124.008 1685.41 121.384 1682.6 119.272C1679.84 117.16 1676.71 115.56 1673.19 114.472C1669.73 113.384 1665.92 112.84 1661.76 112.84C1656.9 112.84 1652.39 113.704 1648.23 115.432C1644.07 117.096 1640.45 119.496 1637.38 122.632C1634.31 125.704 1631.91 129.352 1630.18 133.576C1628.52 137.8 1627.68 142.408 1627.68 147.4C1627.68 152.392 1628.52 157 1630.18 161.224C1631.91 165.448 1634.31 169.128 1637.38 172.264C1640.45 175.336 1644.07 177.736 1648.23 179.464C1652.39 181.128 1656.9 181.96 1661.76 181.96C1666.88 181.96 1671.43 181.032 1675.4 179.176C1679.43 177.256 1682.82 174.664 1685.57 171.4C1688.32 168.136 1690.4 164.424 1691.81 160.264C1693.22 156.04 1693.92 151.592 1693.92 146.92H1662.72V154.6Z" fill="#FF3C00"/>
<path d="M1710.47 148.36H1756.55V140.68H1710.47V148.36ZM1751.08 113.8V181H1759.24V113.8H1751.08ZM1705.96 113.8V181H1714.12V113.8H1705.96Z" fill="#FF3C00"/>
<path d="M1767.87 121.48H1785.15V181H1793.31V121.48H1810.59V113.8H1767.87V121.48Z" fill="#FF3C00"/>
<path d="M1821.71 160.648L1815.18 165.064C1816.65 168.008 1818.54 170.792 1820.84 173.416C1823.21 175.976 1825.93 178.056 1829 179.656C1832.14 181.192 1835.53 181.96 1839.18 181.96C1841.87 181.96 1844.43 181.512 1846.86 180.616C1849.36 179.72 1851.56 178.44 1853.48 176.776C1855.47 175.112 1857 173.096 1858.09 170.728C1859.24 168.36 1859.82 165.704 1859.82 162.76C1859.82 159.688 1859.28 157.064 1858.19 154.888C1857.1 152.648 1855.69 150.76 1853.96 149.224C1852.3 147.624 1850.48 146.312 1848.49 145.288C1846.51 144.264 1844.62 143.432 1842.83 142.792C1838.92 141.448 1835.82 140.104 1833.52 138.76C1831.28 137.352 1829.68 135.88 1828.72 134.344C1827.76 132.744 1827.28 131.016 1827.28 129.16C1827.28 126.984 1828.11 125.032 1829.77 123.304C1831.44 121.512 1834.09 120.616 1837.74 120.616C1840.36 120.616 1842.57 121.128 1844.36 122.152C1846.22 123.176 1847.79 124.488 1849.07 126.088C1850.35 127.688 1851.4 129.32 1852.24 130.984L1859.24 126.952C1858.16 124.584 1856.65 122.344 1854.73 120.232C1852.81 118.056 1850.48 116.296 1847.72 114.952C1845.04 113.544 1841.87 112.84 1838.22 112.84C1834.44 112.84 1831.08 113.608 1828.14 115.144C1825.2 116.616 1822.89 118.664 1821.23 121.288C1819.56 123.912 1818.73 126.888 1818.73 130.216C1818.73 133.288 1819.31 135.88 1820.46 137.992C1821.68 140.104 1823.21 141.896 1825.07 143.368C1826.92 144.776 1828.88 145.96 1830.92 146.92C1832.97 147.816 1834.83 148.552 1836.49 149.128C1839.05 150.024 1841.45 151.048 1843.69 152.2C1846 153.288 1847.85 154.728 1849.26 156.52C1850.67 158.312 1851.37 160.712 1851.37 163.72C1851.37 166.792 1850.28 169.32 1848.11 171.304C1845.93 173.288 1843.05 174.28 1839.47 174.28C1836.78 174.28 1834.38 173.704 1832.27 172.552C1830.16 171.4 1828.24 169.8 1826.51 167.752C1824.84 165.704 1823.24 163.336 1821.71 160.648Z" fill="#FF3C00"/>
</svg>
