<svg width="1048" height="235" viewBox="0 0 1048 235" fill="none" xmlns="http://www.w3.org/2000/svg">
<path d="M4.62589 24.32H11.8579C14.5459 24.32 16.8712 23.936 18.8339 23.168C20.8392 22.4 22.3966 21.2693 23.5059 19.776C24.6152 18.2827 25.1699 16.4907 25.1699 14.4C25.1699 11.84 24.6152 9.74932 23.5059 8.12799C22.3966 6.46399 20.8392 5.22666 18.8339 4.41599C16.8712 3.60532 14.5459 3.19999 11.8579 3.19999H0.337891V48H12.4979C15.3992 48 17.9806 47.5307 20.2419 46.592C22.5459 45.6107 24.3592 44.16 25.6819 42.24C27.0472 40.2773 27.7299 37.824 27.7299 34.88C27.7299 32.832 27.3459 31.0613 26.5779 29.568C25.8099 28.0747 24.7219 26.8587 23.3139 25.92C21.9486 24.9387 20.3486 24.2133 18.5139 23.744C16.6792 23.2747 14.6739 23.04 12.4979 23.04H4.62589V26.048H12.4979C13.9486 26.048 15.2712 26.24 16.4659 26.624C17.6606 26.9653 18.6846 27.4987 19.5379 28.224C20.4339 28.9493 21.1166 29.8453 21.5859 30.912C22.0552 31.9787 22.2899 33.1947 22.2899 34.56C22.2899 36.3947 21.8632 37.952 21.0099 39.232C20.1992 40.512 19.0472 41.4933 17.5539 42.176C16.1032 42.8587 14.4179 43.2 12.4979 43.2H5.77789V7.99999H11.8579C14.1192 7.99999 15.9966 8.59733 17.4899 9.79199C18.9832 10.944 19.7299 12.5867 19.7299 14.72C19.7299 16.128 19.3886 17.3227 18.7059 18.304C18.0232 19.2853 17.0846 20.032 15.8899 20.544C14.6952 21.056 13.3512 21.312 11.8579 21.312H4.62589V24.32Z" fill="white"/>
<path d="M39.0334 48H61.6254V42.88H39.0334V48ZM39.0334 8.31999H61.6254V3.19999H39.0334V8.31999ZM39.0334 26.24H60.3454V21.12H39.0334V26.24ZM36.0254 3.19999V48H41.4654V3.19999H36.0254Z" fill="white"/>
<path d="M94.6884 24.32H101.92C104.608 24.32 106.934 23.936 108.896 23.168C110.902 22.4 112.459 21.2693 113.568 19.776C114.678 18.2827 115.232 16.4907 115.232 14.4C115.232 11.84 114.678 9.74932 113.568 8.12799C112.459 6.46399 110.902 5.22666 108.896 4.41599C106.934 3.60532 104.608 3.19999 101.92 3.19999H90.4004V48H102.56C105.462 48 108.043 47.5307 110.304 46.592C112.608 45.6107 114.422 44.16 115.744 42.24C117.11 40.2773 117.792 37.824 117.792 34.88C117.792 32.832 117.408 31.0613 116.64 29.568C115.872 28.0747 114.784 26.8587 113.376 25.92C112.011 24.9387 110.411 24.2133 108.576 23.744C106.742 23.2747 104.736 23.04 102.56 23.04H94.6884V26.048H102.56C104.011 26.048 105.334 26.24 106.528 26.624C107.723 26.9653 108.747 27.4987 109.6 28.224C110.496 28.9493 111.179 29.8453 111.648 30.912C112.118 31.9787 112.352 33.1947 112.352 34.56C112.352 36.3947 111.926 37.952 111.072 39.232C110.262 40.512 109.11 41.4933 107.616 42.176C106.166 42.8587 104.48 43.2 102.56 43.2H95.8404V7.99999H101.92C104.182 7.99999 106.059 8.59733 107.552 9.79199C109.046 10.944 109.792 12.5867 109.792 14.72C109.792 16.128 109.451 17.3227 108.768 18.304C108.086 19.2853 107.147 20.032 105.952 20.544C104.758 21.056 103.414 21.312 101.92 21.312H94.6884V24.32Z" fill="white"/>
<path d="M134.088 25.92L149.448 48H156.168L140.168 25.92H134.088ZM126.088 3.19999V48H131.528V3.19999H126.088ZM129.096 7.99999H138.248C140.168 7.99999 141.853 8.34133 143.304 9.02399C144.797 9.70666 145.949 10.688 146.76 11.968C147.613 13.248 148.04 14.8053 148.04 16.64C148.04 18.4747 147.613 20.032 146.76 21.312C145.949 22.592 144.797 23.5733 143.304 24.256C141.853 24.9387 140.168 25.28 138.248 25.28H129.096V30.08H138.248C141.149 30.08 143.731 29.5467 145.992 28.48C148.296 27.3707 150.109 25.8133 151.432 23.808C152.797 21.76 153.48 19.3707 153.48 16.64C153.48 13.8667 152.797 11.4773 151.432 9.47199C150.109 7.46666 148.296 5.93066 145.992 4.86399C143.731 3.75466 141.149 3.19999 138.248 3.19999H129.096V7.99999Z" fill="white"/>
<path d="M166.188 34.56H189.868L187.948 29.44H168.108L166.188 34.56ZM177.9 13.312L185.58 31.36L186.092 32.64L192.62 48H198.7L177.9 0.959991L157.1 48H163.18L169.836 32.256L170.348 31.104L177.9 13.312Z" fill="white"/>
<path d="M213.775 37.888L199.055 3.19999H192.975L213.775 50.24L234.575 3.19999H228.495L213.775 37.888Z" fill="white"/>
<path d="M243.033 48H265.625V42.88H243.033V48ZM243.033 8.31999H265.625V3.19999H243.033V8.31999ZM243.033 26.24H264.345V21.12H243.033V26.24ZM240.025 3.19999V48H245.465V3.19999H240.025Z" fill="white"/>
<path d="M298.688 34.56H322.368L320.448 29.44H300.608L298.688 34.56ZM310.4 13.312L318.08 31.36L318.592 32.64L325.12 48H331.2L310.4 0.959991L289.6 48H295.68L302.336 32.256L302.848 31.104L310.4 13.312Z" fill="white"/>
<path d="M370.57 3.19999V36.544L336.65 0.959991V48H342.09V14.656L376.01 50.24V3.19999H370.57Z" fill="white"/>
<path d="M386.275 3.19999V48H391.715V3.19999H386.275ZM399.715 48C404.067 48 407.929 47.0613 411.299 45.184C414.67 43.3067 417.315 40.704 419.235 37.376C421.155 34.0053 422.115 30.08 422.115 25.6C422.115 21.12 421.155 17.216 419.235 13.888C417.315 10.5173 414.67 7.89332 411.299 6.01599C407.929 4.13866 404.067 3.19999 399.715 3.19999H389.283V8.63999H399.715C402.233 8.63999 404.537 9.04532 406.627 9.85599C408.718 10.624 410.51 11.7547 412.003 13.248C413.497 14.6987 414.649 16.4693 415.459 18.56C416.27 20.6507 416.675 22.9973 416.675 25.6C416.675 28.2027 416.27 30.5493 415.459 32.64C414.649 34.7307 413.497 36.5227 412.003 38.016C410.51 39.4667 408.718 40.5973 406.627 41.408C404.537 42.176 402.233 42.56 399.715 42.56H389.283V48H399.715Z" fill="white"/>
<path d="M450.627 34.432L446.275 37.376C447.256 39.3387 448.515 41.1947 450.051 42.944C451.63 44.6507 453.443 46.0373 455.491 47.104C457.582 48.128 459.843 48.64 462.275 48.64C464.067 48.64 465.774 48.3413 467.395 47.744C469.059 47.1467 470.531 46.2933 471.811 45.184C473.134 44.0747 474.158 42.7307 474.883 41.152C475.651 39.5733 476.035 37.8027 476.035 35.84C476.035 33.792 475.672 32.0427 474.947 30.592C474.222 29.0987 473.283 27.84 472.131 26.816C471.022 25.7493 469.806 24.8747 468.483 24.192C467.16 23.5093 465.902 22.9547 464.707 22.528C462.104 21.632 460.035 20.736 458.499 19.84C457.006 18.9013 455.939 17.92 455.299 16.896C454.659 15.8293 454.339 14.6773 454.339 13.44C454.339 11.9893 454.894 10.688 456.003 9.53599C457.112 8.34133 458.883 7.74399 461.315 7.74399C463.064 7.74399 464.536 8.08532 465.731 8.76799C466.968 9.45066 468.014 10.3253 468.867 11.392C469.72 12.4587 470.424 13.5467 470.979 14.656L475.651 11.968C474.926 10.3893 473.923 8.89599 472.643 7.48799C471.363 6.03732 469.806 4.86399 467.971 3.96799C466.179 3.02932 464.067 2.55999 461.635 2.55999C459.118 2.55999 456.878 3.07199 454.915 4.09599C452.952 5.07732 451.416 6.44266 450.307 8.19199C449.198 9.94132 448.643 11.9253 448.643 14.144C448.643 16.192 449.027 17.92 449.795 19.328C450.606 20.736 451.63 21.9307 452.867 22.912C454.104 23.8507 455.406 24.64 456.771 25.28C458.136 25.8773 459.374 26.368 460.483 26.752C462.19 27.3493 463.79 28.032 465.283 28.8C466.819 29.5253 468.056 30.4853 468.995 31.68C469.934 32.8747 470.403 34.4747 470.403 36.48C470.403 38.528 469.678 40.2133 468.227 41.536C466.776 42.8587 464.856 43.52 462.467 43.52C460.675 43.52 459.075 43.136 457.667 42.368C456.259 41.6 454.979 40.5333 453.827 39.168C452.718 37.8027 451.651 36.224 450.627 34.432Z" fill="white"/>
<path d="M487.033 48H509.625V42.88H487.033V48ZM487.033 8.31999H509.625V3.19999H487.033V8.31999ZM487.033 26.24H508.345V21.12H487.033V26.24ZM484.025 3.19999V48H489.465V3.19999H484.025Z" fill="white"/>
<path d="M553.133 3.19999V36.544L519.213 0.959991V48H524.653V14.656L558.573 50.24V3.19999H553.133Z" fill="white"/>
<path d="M570.502 34.432L566.15 37.376C567.131 39.3387 568.39 41.1947 569.926 42.944C571.505 44.6507 573.318 46.0373 575.366 47.104C577.457 48.128 579.718 48.64 582.15 48.64C583.942 48.64 585.649 48.3413 587.27 47.744C588.934 47.1467 590.406 46.2933 591.686 45.184C593.009 44.0747 594.033 42.7307 594.758 41.152C595.526 39.5733 595.91 37.8027 595.91 35.84C595.91 33.792 595.547 32.0427 594.822 30.592C594.097 29.0987 593.158 27.84 592.006 26.816C590.897 25.7493 589.681 24.8747 588.358 24.192C587.035 23.5093 585.777 22.9547 584.582 22.528C581.979 21.632 579.91 20.736 578.374 19.84C576.881 18.9013 575.814 17.92 575.174 16.896C574.534 15.8293 574.214 14.6773 574.214 13.44C574.214 11.9893 574.769 10.688 575.878 9.53599C576.987 8.34133 578.758 7.74399 581.19 7.74399C582.939 7.74399 584.411 8.08532 585.606 8.76799C586.843 9.45066 587.889 10.3253 588.742 11.392C589.595 12.4587 590.299 13.5467 590.854 14.656L595.526 11.968C594.801 10.3893 593.798 8.89599 592.518 7.48799C591.238 6.03732 589.681 4.86399 587.846 3.96799C586.054 3.02932 583.942 2.55999 581.51 2.55999C578.993 2.55999 576.753 3.07199 574.79 4.09599C572.827 5.07732 571.291 6.44266 570.182 8.19199C569.073 9.94132 568.518 11.9253 568.518 14.144C568.518 16.192 568.902 17.92 569.67 19.328C570.481 20.736 571.505 21.9307 572.742 22.912C573.979 23.8507 575.281 24.64 576.646 25.28C578.011 25.8773 579.249 26.368 580.358 26.752C582.065 27.3493 583.665 28.032 585.158 28.8C586.694 29.5253 587.931 30.4853 588.87 31.68C589.809 32.8747 590.278 34.4747 590.278 36.48C590.278 38.528 589.553 40.2133 588.102 41.536C586.651 42.8587 584.731 43.52 582.342 43.52C580.55 43.52 578.95 43.136 577.542 42.368C576.134 41.6 574.854 40.5333 573.702 39.168C572.593 37.8027 571.526 36.224 570.502 34.432Z" fill="white"/>
<path d="M603.58 3.19999V33.28C603.58 35.4987 603.922 37.5467 604.604 39.424C605.33 41.3013 606.354 42.9227 607.676 44.288C609.042 45.6533 610.663 46.72 612.54 47.488C614.418 48.256 616.508 48.64 618.812 48.64C621.116 48.64 623.207 48.256 625.084 47.488C626.962 46.72 628.562 45.6533 629.884 44.288C631.25 42.9227 632.274 41.3013 632.956 39.424C633.682 37.5467 634.044 35.4987 634.044 33.28V3.19999H628.604V33.28C628.604 36.352 627.772 38.8267 626.108 40.704C624.444 42.5813 622.012 43.52 618.812 43.52C615.612 43.52 613.18 42.5813 611.516 40.704C609.852 38.8267 609.02 36.352 609.02 33.28V3.19999H603.58Z" fill="white"/>
<path d="M648.251 34.56H671.931L670.011 29.44H650.171L648.251 34.56ZM659.963 13.312L667.643 31.36L668.155 32.64L674.683 48H680.763L659.963 0.959991L639.163 48H645.243L651.899 32.256L652.411 31.104L659.963 13.312Z" fill="white"/>
<path d="M686.213 3.19999V48H709.253V42.88H691.653V3.19999H686.213Z" fill="white"/>
<path d="M737.221 48H759.813V42.88H737.221V48ZM737.221 8.31999H759.813V3.19999H737.221V8.31999ZM737.221 26.24H758.533V21.12H737.221V26.24ZM734.213 3.19999V48H739.653V3.19999H734.213Z" fill="white"/>
<path d="M785.4 37.888L770.68 3.19999H764.6L785.4 50.24L806.2 3.19999H800.12L785.4 37.888Z" fill="white"/>
<path d="M814.658 48H837.25V42.88H814.658V48ZM814.658 8.31999H837.25V3.19999H814.658V8.31999ZM814.658 26.24H835.97V21.12H814.658V26.24ZM811.65 3.19999V48H817.09V3.19999H811.65Z" fill="white"/>
<path d="M854.838 25.92L870.198 48H876.918L860.918 25.92H854.838ZM846.838 3.19999V48H852.278V3.19999H846.838ZM849.846 7.99999H858.998C860.918 7.99999 862.603 8.34133 864.054 9.02399C865.547 9.70666 866.699 10.688 867.51 11.968C868.363 13.248 868.79 14.8053 868.79 16.64C868.79 18.4747 868.363 20.032 867.51 21.312C866.699 22.592 865.547 23.5733 864.054 24.256C862.603 24.9387 860.918 25.28 858.998 25.28H849.846V30.08H858.998C861.899 30.08 864.481 29.5467 866.742 28.48C869.046 27.3707 870.859 25.8133 872.182 23.808C873.547 21.76 874.23 19.3707 874.23 16.64C874.23 13.8667 873.547 11.4773 872.182 9.47199C870.859 7.46666 869.046 5.93066 866.742 4.86399C864.481 3.75466 861.899 3.19999 858.998 3.19999H849.846V7.99999Z" fill="white"/>
<path d="M907.034 3.19999L895.45 23.936L883.93 3.19999H877.85L892.762 28.736V48H898.202V28.672L913.114 3.19999H907.034Z" fill="white"/>
<path d="M937.713 3.19999V48H943.153V3.19999H937.713ZM951.153 48C955.505 48 959.366 47.0613 962.737 45.184C966.108 43.3067 968.753 40.704 970.673 37.376C972.593 34.0053 973.553 30.08 973.553 25.6C973.553 21.12 972.593 17.216 970.673 13.888C968.753 10.5173 966.108 7.89332 962.737 6.01599C959.366 4.13866 955.505 3.19999 951.153 3.19999H940.721V8.63999H951.153C953.67 8.63999 955.974 9.04532 958.065 9.85599C960.156 10.624 961.948 11.7547 963.441 13.248C964.934 14.6987 966.086 16.4693 966.897 18.56C967.708 20.6507 968.113 22.9973 968.113 25.6C968.113 28.2027 967.708 30.5493 966.897 32.64C966.086 34.7307 964.934 36.5227 963.441 38.016C961.948 39.4667 960.156 40.5973 958.065 41.408C955.974 42.176 953.67 42.56 951.153 42.56H940.721V48H951.153Z" fill="white"/>
<path d="M983.563 34.56H1007.24L1005.32 29.44H985.483L983.563 34.56ZM995.275 13.312L1002.96 31.36L1003.47 32.64L1010 48H1016.08L995.275 0.959991L974.475 48H980.555L987.211 32.256L987.723 31.104L995.275 13.312Z" fill="white"/>
<path d="M1041.41 3.19999L1029.83 23.936L1018.31 3.19999H1012.23L1027.14 28.736V48H1032.58V28.672L1047.49 3.19999H1041.41Z" fill="white"/>
<path d="M210.429 128.16L197.117 92.96L184.061 128.16L172.157 95.2H166.077L183.677 142.24L197.117 107.424L210.557 142.24L228.157 95.2H222.077L210.429 128.16Z" fill="white"/>
<path d="M233.932 95.2V140H239.372V95.2H233.932Z" fill="white"/>
<path d="M245.139 100.32H256.659V140H262.099V100.32H273.619V95.2H245.139V100.32Z" fill="white"/>
<path d="M282.377 118.24H313.097V113.12H282.377V118.24ZM309.449 95.2V140H314.889V95.2H309.449ZM279.369 95.2V140H284.809V95.2H279.369Z" fill="white"/>
<path d="M352.307 117.92L367.667 140H374.387L358.387 117.92H352.307ZM344.307 95.2V140H349.747V95.2H344.307ZM347.315 100H356.467C358.387 100 360.072 100.341 361.523 101.024C363.016 101.707 364.168 102.688 364.979 103.968C365.832 105.248 366.259 106.805 366.259 108.64C366.259 110.475 365.832 112.032 364.979 113.312C364.168 114.592 363.016 115.573 361.523 116.256C360.072 116.939 358.387 117.28 356.467 117.28H347.315V122.08H356.467C359.368 122.08 361.949 121.547 364.211 120.48C366.515 119.371 368.328 117.813 369.651 115.808C371.016 113.76 371.699 111.371 371.699 108.64C371.699 105.867 371.016 103.477 369.651 101.472C368.328 99.4667 366.515 97.9307 364.211 96.864C361.949 95.7547 359.368 95.2 356.467 95.2H347.315V100Z" fill="white"/>
<path d="M379.799 95.2V125.28C379.799 127.499 380.14 129.547 380.823 131.424C381.548 133.301 382.572 134.923 383.895 136.288C385.26 137.653 386.882 138.72 388.759 139.488C390.636 140.256 392.727 140.64 395.031 140.64C397.335 140.64 399.426 140.256 401.303 139.488C403.18 138.72 404.78 137.653 406.103 136.288C407.468 134.923 408.492 133.301 409.175 131.424C409.9 129.547 410.263 127.499 410.263 125.28V95.2H404.823V125.28C404.823 128.352 403.991 130.827 402.327 132.704C400.663 134.581 398.231 135.52 395.031 135.52C391.831 135.52 389.399 134.581 387.735 132.704C386.071 130.827 385.239 128.352 385.239 125.28V95.2H379.799Z" fill="white"/>
<path d="M421.846 126.432L417.494 129.376C418.475 131.339 419.734 133.195 421.27 134.944C422.848 136.651 424.662 138.037 426.71 139.104C428.8 140.128 431.062 140.64 433.494 140.64C435.286 140.64 436.992 140.341 438.614 139.744C440.278 139.147 441.75 138.293 443.03 137.184C444.352 136.075 445.376 134.731 446.102 133.152C446.87 131.573 447.254 129.803 447.254 127.84C447.254 125.792 446.891 124.043 446.166 122.592C445.44 121.099 444.502 119.84 443.35 118.816C442.24 117.749 441.024 116.875 439.702 116.192C438.379 115.509 437.12 114.955 435.926 114.528C433.323 113.632 431.254 112.736 429.718 111.84C428.224 110.901 427.158 109.92 426.518 108.896C425.878 107.829 425.558 106.677 425.558 105.44C425.558 103.989 426.112 102.688 427.222 101.536C428.331 100.341 430.102 99.744 432.534 99.744C434.283 99.744 435.755 100.085 436.95 100.768C438.187 101.451 439.232 102.325 440.086 103.392C440.939 104.459 441.643 105.547 442.198 106.656L446.87 103.968C446.144 102.389 445.142 100.896 443.862 99.488C442.582 98.0373 441.024 96.864 439.19 95.968C437.398 95.0293 435.286 94.56 432.854 94.56C430.336 94.56 428.096 95.072 426.134 96.096C424.171 97.0773 422.635 98.4427 421.526 100.192C420.416 101.941 419.862 103.925 419.862 106.144C419.862 108.192 420.246 109.92 421.014 111.328C421.824 112.736 422.848 113.931 424.086 114.912C425.323 115.851 426.624 116.64 427.99 117.28C429.355 117.877 430.592 118.368 431.702 118.752C433.408 119.349 435.008 120.032 436.502 120.8C438.038 121.525 439.275 122.485 440.214 123.68C441.152 124.875 441.622 126.475 441.622 128.48C441.622 130.528 440.896 132.213 439.446 133.536C437.995 134.859 436.075 135.52 433.686 135.52C431.894 135.52 430.294 135.136 428.886 134.368C427.478 133.6 426.198 132.533 425.046 131.168C423.936 129.803 422.87 128.224 421.846 126.432Z" fill="white"/>
<path d="M456.908 126.432L452.556 129.376C453.537 131.339 454.796 133.195 456.332 134.944C457.911 136.651 459.724 138.037 461.772 139.104C463.863 140.128 466.124 140.64 468.556 140.64C470.348 140.64 472.055 140.341 473.676 139.744C475.34 139.147 476.812 138.293 478.092 137.184C479.415 136.075 480.439 134.731 481.164 133.152C481.932 131.573 482.316 129.803 482.316 127.84C482.316 125.792 481.953 124.043 481.228 122.592C480.503 121.099 479.564 119.84 478.412 118.816C477.303 117.749 476.087 116.875 474.764 116.192C473.441 115.509 472.183 114.955 470.988 114.528C468.385 113.632 466.316 112.736 464.78 111.84C463.287 110.901 462.22 109.92 461.58 108.896C460.94 107.829 460.62 106.677 460.62 105.44C460.62 103.989 461.175 102.688 462.284 101.536C463.393 100.341 465.164 99.744 467.596 99.744C469.345 99.744 470.817 100.085 472.012 100.768C473.249 101.451 474.295 102.325 475.148 103.392C476.001 104.459 476.705 105.547 477.26 106.656L481.932 103.968C481.207 102.389 480.204 100.896 478.924 99.488C477.644 98.0373 476.087 96.864 474.252 95.968C472.46 95.0293 470.348 94.56 467.916 94.56C465.399 94.56 463.159 95.072 461.196 96.096C459.233 97.0773 457.697 98.4427 456.588 100.192C455.479 101.941 454.924 103.925 454.924 106.144C454.924 108.192 455.308 109.92 456.076 111.328C456.887 112.736 457.911 113.931 459.148 114.912C460.385 115.851 461.687 116.64 463.052 117.28C464.417 117.877 465.655 118.368 466.764 118.752C468.471 119.349 470.071 120.032 471.564 120.8C473.1 121.525 474.337 122.485 475.276 123.68C476.215 124.875 476.684 126.475 476.684 128.48C476.684 130.528 475.959 132.213 474.508 133.536C473.057 134.859 471.137 135.52 468.748 135.52C466.956 135.52 465.356 135.136 463.948 134.368C462.54 133.6 461.26 132.533 460.108 131.168C458.999 129.803 457.932 128.224 456.908 126.432Z" fill="white"/>
<path d="M490.307 95.2V140H495.747V95.2H490.307Z" fill="white"/>
<path d="M510.282 126.56H533.962L532.042 121.44H512.202L510.282 126.56ZM521.994 105.312L529.674 123.36L530.186 124.64L536.714 140H542.794L521.994 92.96L501.194 140H507.274L513.93 124.256L514.442 123.104L521.994 105.312Z" fill="white"/>
<path d="M582.164 95.2V128.544L548.244 92.96V140H553.684V106.656L587.604 142.24V95.2H582.164Z" fill="white"/>
<path d="M617.057 95.2V140H640.097V134.88H622.497V95.2H617.057Z" fill="white"/>
<path d="M645.869 95.2V140H651.309V95.2H645.869Z" fill="white"/>
<path d="M695.477 95.2V128.544L661.557 92.96V140H666.997V106.656L700.917 142.24V95.2H695.477Z" fill="white"/>
<path d="M731.982 122.4H746.894C746.51 124.149 745.891 125.792 745.038 127.328C744.227 128.864 743.182 130.229 741.902 131.424C740.622 132.619 739.086 133.557 737.294 134.24C735.544 134.88 733.56 135.2 731.342 135.2C728.184 135.2 725.326 134.453 722.766 132.96C720.206 131.467 718.158 129.397 716.622 126.752C715.128 124.107 714.382 121.056 714.382 117.6C714.382 114.101 715.128 111.051 716.622 108.448C718.158 105.803 720.206 103.733 722.766 102.24C725.326 100.747 728.184 100 731.342 100C734.755 100 737.72 100.683 740.238 102.048C742.755 103.371 744.718 105.227 746.126 107.616L749.966 104.096C748.686 102.005 747.107 100.256 745.23 98.848C743.395 97.44 741.304 96.3733 738.958 95.648C736.654 94.9227 734.115 94.56 731.342 94.56C728.099 94.56 725.091 95.136 722.318 96.288C719.544 97.3973 717.134 98.9973 715.086 101.088C713.038 103.136 711.438 105.568 710.286 108.384C709.176 111.2 708.622 114.272 708.622 117.6C708.622 120.928 709.176 124 710.286 126.816C711.438 129.632 713.038 132.085 715.086 134.176C717.134 136.224 719.544 137.824 722.318 138.976C725.091 140.085 728.099 140.64 731.342 140.64C734.755 140.64 737.784 140.021 740.43 138.784C743.118 137.504 745.379 135.776 747.214 133.6C749.048 131.424 750.435 128.949 751.374 126.176C752.312 123.36 752.782 120.395 752.782 117.28H731.982V122.4Z" fill="white"/>
<path d="M763.815 140H786.407V134.88H763.815V140ZM763.815 100.32H786.407V95.2H763.815V100.32ZM763.815 118.24H785.127V113.12H763.815V118.24ZM760.807 95.2V140H766.247V95.2H760.807Z" fill="white"/>
<path d="M803.994 117.92L819.354 140H826.074L810.074 117.92H803.994ZM795.994 95.2V140H801.434V95.2H795.994ZM799.002 100H808.154C810.074 100 811.759 100.341 813.21 101.024C814.703 101.707 815.855 102.688 816.666 103.968C817.519 105.248 817.946 106.805 817.946 108.64C817.946 110.475 817.519 112.032 816.666 113.312C815.855 114.592 814.703 115.573 813.21 116.256C811.759 116.939 810.074 117.28 808.154 117.28H799.002V122.08H808.154C811.055 122.08 813.637 121.547 815.898 120.48C818.202 119.371 820.015 117.813 821.338 115.808C822.703 113.76 823.386 111.371 823.386 108.64C823.386 105.867 822.703 103.477 821.338 101.472C820.015 99.4667 818.202 97.9307 815.898 96.864C813.637 95.7547 811.055 95.2 808.154 95.2H799.002V100Z" fill="white"/>
<path d="M831.807 95.2V140H837.247V95.2H831.807Z" fill="white"/>
<path d="M850.502 140H873.094V134.88H850.502V140ZM850.502 100.32H873.094V95.2H850.502V100.32ZM850.502 118.24H871.814V113.12H850.502V118.24ZM847.494 95.2V140H852.934V95.2H847.494Z" fill="white"/>
<path d="M306.095 208.32H313.327C316.015 208.32 318.34 207.936 320.303 207.168C322.308 206.4 323.865 205.269 324.975 203.776C326.084 202.283 326.639 200.491 326.639 198.4C326.639 195.84 326.084 193.749 324.975 192.128C323.865 190.464 322.308 189.227 320.303 188.416C318.34 187.605 316.015 187.2 313.327 187.2H301.807V232H313.967C316.868 232 319.449 231.531 321.711 230.592C324.015 229.611 325.828 228.16 327.151 226.24C328.516 224.277 329.199 221.824 329.199 218.88C329.199 216.832 328.815 215.061 328.047 213.568C327.279 212.075 326.191 210.859 324.783 209.92C323.417 208.939 321.817 208.213 319.983 207.744C318.148 207.275 316.143 207.04 313.967 207.04H306.095V210.048H313.967C315.417 210.048 316.74 210.24 317.935 210.624C319.129 210.965 320.153 211.499 321.007 212.224C321.903 212.949 322.585 213.845 323.055 214.912C323.524 215.979 323.759 217.195 323.759 218.56C323.759 220.395 323.332 221.952 322.479 223.232C321.668 224.512 320.516 225.493 319.023 226.176C317.572 226.859 315.887 227.2 313.967 227.2H307.247V192H313.327C315.588 192 317.465 192.597 318.959 193.792C320.452 194.944 321.199 196.587 321.199 198.72C321.199 200.128 320.857 201.323 320.175 202.304C319.492 203.285 318.553 204.032 317.359 204.544C316.164 205.056 314.82 205.312 313.327 205.312H306.095V208.32Z" fill="white"/>
<path d="M345.494 209.92L360.854 232H367.574L351.574 209.92H345.494ZM337.494 187.2V232H342.934V187.2H337.494ZM340.502 192H349.654C351.574 192 353.259 192.341 354.71 193.024C356.203 193.707 357.355 194.688 358.166 195.968C359.019 197.248 359.446 198.805 359.446 200.64C359.446 202.475 359.019 204.032 358.166 205.312C357.355 206.592 356.203 207.573 354.71 208.256C353.259 208.939 351.574 209.28 349.654 209.28H340.502V214.08H349.654C352.555 214.08 355.137 213.547 357.398 212.48C359.702 211.371 361.515 209.813 362.838 207.808C364.203 205.76 364.886 203.371 364.886 200.64C364.886 197.867 364.203 195.477 362.838 193.472C361.515 191.467 359.702 189.931 357.398 188.864C355.137 187.755 352.555 187.2 349.654 187.2H340.502V192Z" fill="white"/>
<path d="M377.595 218.56H401.275L399.355 213.44H379.515L377.595 218.56ZM389.307 197.312L396.987 215.36L397.499 216.64L404.027 232H410.107L389.307 184.96L368.507 232H374.587L381.243 216.256L381.755 215.104L389.307 197.312Z" fill="white"/>
<path d="M449.477 187.2V220.544L415.557 184.96V232H420.997V198.656L454.917 234.24V187.2H449.477Z" fill="white"/>
<path d="M465.182 187.2V232H470.622V187.2H465.182ZM478.622 232C482.974 232 486.835 231.061 490.206 229.184C493.576 227.307 496.222 224.704 498.142 221.376C500.062 218.005 501.022 214.08 501.022 209.6C501.022 205.12 500.062 201.216 498.142 197.888C496.222 194.517 493.576 191.893 490.206 190.016C486.835 188.139 482.974 187.2 478.622 187.2H468.19V192.64H478.622C481.139 192.64 483.443 193.045 485.534 193.856C487.624 194.624 489.416 195.755 490.91 197.248C492.403 198.699 493.555 200.469 494.366 202.56C495.176 204.651 495.582 206.997 495.582 209.6C495.582 212.203 495.176 214.549 494.366 216.64C493.555 218.731 492.403 220.523 490.91 222.016C489.416 223.467 487.624 224.597 485.534 225.408C483.443 226.176 481.139 226.56 478.622 226.56H468.19V232H478.622Z" fill="white"/>
<path d="M548.669 214.4H563.581C563.197 216.149 562.578 217.792 561.725 219.328C560.914 220.864 559.869 222.229 558.589 223.424C557.309 224.619 555.773 225.557 553.981 226.24C552.232 226.88 550.248 227.2 548.029 227.2C544.872 227.2 542.013 226.453 539.453 224.96C536.893 223.467 534.845 221.397 533.309 218.752C531.816 216.107 531.069 213.056 531.069 209.6C531.069 206.101 531.816 203.051 533.309 200.448C534.845 197.803 536.893 195.733 539.453 194.24C542.013 192.747 544.872 192 548.029 192C551.442 192 554.408 192.683 556.925 194.048C559.443 195.371 561.405 197.227 562.813 199.616L566.653 196.096C565.373 194.005 563.794 192.256 561.917 190.848C560.082 189.44 557.992 188.373 555.645 187.648C553.341 186.923 550.802 186.56 548.029 186.56C544.786 186.56 541.778 187.136 539.005 188.288C536.232 189.397 533.821 190.997 531.773 193.088C529.725 195.136 528.125 197.568 526.973 200.384C525.864 203.2 525.309 206.272 525.309 209.6C525.309 212.928 525.864 216 526.973 218.816C528.125 221.632 529.725 224.085 531.773 226.176C533.821 228.224 536.232 229.824 539.005 230.976C541.778 232.085 544.786 232.64 548.029 232.64C551.442 232.64 554.472 232.021 557.117 230.784C559.805 229.504 562.066 227.776 563.901 225.6C565.736 223.424 567.122 220.949 568.061 218.176C569 215.36 569.469 212.395 569.469 209.28H548.669V214.4Z" fill="white"/>
<path d="M580.502 232H603.094V226.88H580.502V232ZM580.502 192.32H603.094V187.2H580.502V192.32ZM580.502 210.24H601.814V205.12H580.502V210.24ZM577.494 187.2V232H582.934V187.2H577.494Z" fill="white"/>
<path d="M612.682 187.2V232H618.122V187.2H612.682Z" fill="white"/>
<path d="M630.033 218.432L625.681 221.376C626.662 223.339 627.921 225.195 629.457 226.944C631.036 228.651 632.849 230.037 634.897 231.104C636.988 232.128 639.249 232.64 641.681 232.64C643.473 232.64 645.18 232.341 646.801 231.744C648.465 231.147 649.937 230.293 651.217 229.184C652.54 228.075 653.564 226.731 654.289 225.152C655.057 223.573 655.441 221.803 655.441 219.84C655.441 217.792 655.078 216.043 654.353 214.592C653.628 213.099 652.689 211.84 651.537 210.816C650.428 209.749 649.212 208.875 647.889 208.192C646.566 207.509 645.308 206.955 644.113 206.528C641.51 205.632 639.441 204.736 637.905 203.84C636.412 202.901 635.345 201.92 634.705 200.896C634.065 199.829 633.745 198.677 633.745 197.44C633.745 195.989 634.3 194.688 635.409 193.536C636.518 192.341 638.289 191.744 640.721 191.744C642.47 191.744 643.942 192.085 645.137 192.768C646.374 193.451 647.42 194.325 648.273 195.392C649.126 196.459 649.83 197.547 650.385 198.656L655.057 195.968C654.332 194.389 653.329 192.896 652.049 191.488C650.769 190.037 649.212 188.864 647.377 187.968C645.585 187.029 643.473 186.56 641.041 186.56C638.524 186.56 636.284 187.072 634.321 188.096C632.359 189.077 630.822 190.443 629.713 192.192C628.604 193.941 628.049 195.925 628.049 198.144C628.049 200.192 628.433 201.92 629.201 203.328C630.012 204.736 631.036 205.931 632.273 206.912C633.51 207.851 634.812 208.64 636.177 209.28C637.542 209.877 638.78 210.368 639.889 210.752C641.596 211.349 643.196 212.032 644.689 212.8C646.225 213.525 647.462 214.485 648.401 215.68C649.34 216.875 649.809 218.475 649.809 220.48C649.809 222.528 649.084 224.213 647.633 225.536C646.182 226.859 644.263 227.52 641.873 227.52C640.081 227.52 638.481 227.136 637.073 226.368C635.665 225.6 634.385 224.533 633.233 223.168C632.124 221.803 631.057 220.224 630.033 218.432Z" fill="white"/>
<path d="M666.44 210.24H697.16V205.12H666.44V210.24ZM693.512 187.2V232H698.952V187.2H693.512ZM663.432 187.2V232H668.872V187.2H663.432Z" fill="white"/>
<path d="M713.47 218.56H737.15L735.23 213.44H715.39L713.47 218.56ZM725.182 197.312L732.862 215.36L733.374 216.64L739.902 232H745.982L725.182 184.96L704.382 232H710.462L717.118 216.256L717.63 215.104L725.182 197.312Z" fill="white"/>
</svg>
