<svg width="32" height="37" viewBox="0 0 32 37" fill="none" xmlns="http://www.w3.org/2000/svg">
<path d="M5.7319 5.75H26.2681C27.4294 5.75 28.3999 6.63378 28.5083 7.78998L30.9458 33.79C31.0695 35.1098 30.0312 36.25 28.7056 36.25H3.2944C1.96881 36.25 0.930496 35.1098 1.05423 33.79L3.49173 7.78999C3.60012 6.63378 4.57063 5.75 5.7319 5.75Z" stroke="black" stroke-width="1.5"/>
<path fill-rule="evenodd" clip-rule="evenodd" d="M12 1.5H20.195C21.5272 1.5 22.6254 2.54463 22.6919 3.87516L22.7919 5.87515C22.794 5.91698 22.795 5.9586 22.7951 6H24.2951C24.295 5.93376 24.2934 5.86716 24.29 5.80025L24.19 3.80025C24.0836 1.67141 22.3265 0 20.195 0H12C9.79086 0 8 1.79086 8 4V6H9.5V4C9.5 2.61929 10.6193 1.5 12 1.5Z" fill="black"/>
</svg>
