<svg width="164" height="164" viewBox="0 0 164 164" fill="none" xmlns="http://www.w3.org/2000/svg">
<path d="M108.341 18.1846L114.799 20.8596C114.318 21.5483 113.756 22.1487 113.111 22.6608C112.484 23.1806 111.787 23.5844 111.018 23.8721C110.249 24.1599 109.416 24.2909 108.517 24.2651C107.645 24.2284 106.728 24.0111 105.767 23.6131C104.4 23.0467 103.296 22.2106 102.455 21.1047C101.614 19.9987 101.099 18.7352 100.908 17.314C100.736 15.9005 100.96 14.4455 101.58 12.9488C102.207 11.4336 103.078 10.2464 104.191 9.38715C105.331 8.51707 106.589 7.98828 107.966 7.80079C109.342 7.61329 110.714 7.80273 112.082 8.3691C113.56 8.9814 114.722 9.80897 115.567 10.8518C116.42 11.8762 116.937 13.032 117.118 14.3193L119.412 13.4838C119.233 12.3488 118.863 11.308 118.303 10.3615C117.761 9.42261 117.047 8.58564 116.161 7.85057C115.293 7.12315 114.259 6.5107 113.057 6.01321C111.653 5.43153 110.247 5.14139 108.839 5.1428C107.439 5.12573 106.108 5.38621 104.847 5.92423C103.592 6.44378 102.463 7.20999 101.459 8.22286C100.473 9.24339 99.6822 10.4743 99.0852 11.9155C98.4882 13.3568 98.1773 14.7867 98.1526 16.2052C98.1464 17.6314 98.3992 18.9808 98.9111 20.2536C99.4306 21.5079 100.188 22.6332 101.182 23.6296C102.184 24.6075 103.387 25.3873 104.792 25.969C106.27 26.5813 107.693 26.8568 109.06 26.7955C110.454 26.7233 111.743 26.3806 112.928 25.7674C114.113 25.1541 115.157 24.3312 116.061 23.2985C116.973 22.2474 117.708 21.0474 118.267 19.6985L109.259 15.9673L108.341 18.1846Z" fill="#1C1A1A"/>
<path d="M121.474 35.8606L128.962 43.3488L130.659 41.6518L123.171 34.1635L121.474 35.8606ZM134.626 22.7084L142.114 30.1966L143.811 28.4996L136.323 21.0113L134.626 22.7084ZM128.686 28.6481L135.75 35.7121L137.447 34.015L130.383 26.951L128.686 28.6481ZM135.326 20.0143L120.477 34.8635L122.28 36.6667L137.129 21.8174L135.326 20.0143Z" fill="#1C1A1A"/>
<path d="M156.38 49.1549L136.978 57.1912L137.954 59.5471L157.356 51.5108L156.38 49.1549Z" fill="#1C1A1A"/>
<path d="M148.435 76.8773L147.055 74.8373C146.135 75.2973 145.265 75.8873 144.445 76.6073C143.645 77.3473 142.995 78.1973 142.495 79.1573C142.015 80.1373 141.775 81.1973 141.775 82.3373C141.775 83.1773 141.915 83.9773 142.195 84.7373C142.475 85.5173 142.875 86.2073 143.395 86.8073C143.915 87.4273 144.545 87.9073 145.285 88.2473C146.025 88.6073 146.855 88.7873 147.775 88.7873C148.735 88.7873 149.555 88.6173 150.235 88.2773C150.935 87.9373 151.525 87.4973 152.005 86.9573C152.505 86.4373 152.915 85.8673 153.235 85.2473C153.555 84.6273 153.815 84.0373 154.015 83.4773C154.435 82.2573 154.855 81.2873 155.275 80.5673C155.715 79.8673 156.175 79.3673 156.655 79.0673C157.155 78.7673 157.695 78.6173 158.275 78.6173C158.955 78.6173 159.565 78.8773 160.105 79.3973C160.665 79.9173 160.945 80.7473 160.945 81.8873C160.945 82.7073 160.785 83.3973 160.465 83.9573C160.145 84.5373 159.735 85.0273 159.235 85.4273C158.735 85.8273 158.225 86.1573 157.705 86.4173L158.965 88.6073C159.705 88.2673 160.405 87.7973 161.065 87.1973C161.745 86.5973 162.295 85.8673 162.715 85.0073C163.155 84.1673 163.375 83.1773 163.375 82.0373C163.375 80.8573 163.135 79.8073 162.655 78.8873C162.195 77.9673 161.555 77.2473 160.735 76.7273C159.915 76.2073 158.985 75.9473 157.945 75.9473C156.985 75.9473 156.175 76.1273 155.515 76.4873C154.855 76.8673 154.295 77.3473 153.835 77.9273C153.395 78.5073 153.025 79.1173 152.725 79.7573C152.445 80.3973 152.215 80.9773 152.035 81.4973C151.755 82.2973 151.435 83.0473 151.075 83.7473C150.735 84.4673 150.285 85.0473 149.725 85.4873C149.165 85.9273 148.415 86.1473 147.475 86.1473C146.515 86.1473 145.725 85.8073 145.105 85.1273C144.485 84.4473 144.175 83.5473 144.175 82.4273C144.175 81.5873 144.355 80.8373 144.715 80.1773C145.075 79.5173 145.575 78.9173 146.215 78.3773C146.855 77.8573 147.595 77.3573 148.435 76.8773Z" fill="#1C1A1A"/>
<path d="M149.536 102.221L144.026 115.525L146.243 116.444L151.754 103.14L149.536 102.221ZM154.658 118.078L135.256 110.042L134.281 112.398L153.682 120.434L154.658 118.078ZM160.054 105.052L140.652 97.0152L139.676 99.3711L159.078 107.407L160.054 105.052Z" fill="#1C1A1A"/>
<path d="M132.683 124.915L124.834 132.764L127.167 133.825L133.744 127.249L132.683 124.915ZM135.844 135.84L127.316 132.403L126.722 132.149L119.467 129.221L117.452 131.237L139.938 139.934L131.24 117.448L129.225 119.463L132.237 126.888L132.45 127.439L135.844 135.84Z" fill="#1C1A1A"/>
<path d="M88.2994 163.075V148.975C88.2994 147.935 88.1394 146.975 87.8194 146.095C87.4794 145.215 86.9994 144.455 86.3794 143.815C85.7394 143.175 84.9794 142.675 84.0994 142.315C83.2194 141.955 82.2394 141.775 81.1594 141.775C80.0794 141.775 79.0994 141.955 78.2194 142.315C77.3394 142.675 76.5894 143.175 75.9694 143.815C75.3294 144.455 74.8494 145.215 74.5294 146.095C74.1894 146.975 74.0194 147.935 74.0194 148.975V163.075H76.5694V148.975C76.5694 147.535 76.9594 146.375 77.7394 145.495C78.5194 144.615 79.6594 144.175 81.1594 144.175C82.6594 144.175 83.7994 144.615 84.5794 145.495C85.3594 146.375 85.7494 147.535 85.7494 148.975V163.075H88.2994Z" fill="#1C1A1A"/>
<path d="M44.1735 154.316L50.1548 139.876L58.4614 161.371L66.8995 140.999L64.5436 140.024L58.5623 154.464L50.2558 132.969L41.8176 153.34L44.1735 154.316Z" fill="#1C1A1A"/>
<path d="M29.1264 144.438L43.9757 129.589L42.1725 127.786L27.3233 142.635L29.1264 144.438ZM39.5209 125.134C38.0784 123.692 36.4874 122.723 34.7479 122.228C33.0084 121.733 31.269 121.719 29.5295 122.186C27.7758 122.667 26.1566 123.649 24.6716 125.134C23.1867 126.619 22.2109 128.232 21.7442 129.971C21.2634 131.725 21.2705 133.471 21.7654 135.211C22.2604 136.95 23.2291 138.541 24.6716 139.984L28.1294 143.441L29.9325 141.638L26.4748 138.181C25.6404 137.346 25.0111 136.448 24.5868 135.486C24.1484 134.539 23.9292 133.57 23.9292 132.58C23.915 131.604 24.1201 130.636 24.5444 129.674C24.9686 128.712 25.6121 127.8 26.4748 126.938C27.3374 126.075 28.2496 125.431 29.2113 125.007C30.1729 124.583 31.1487 124.371 32.1387 124.371C33.1145 124.385 34.0832 124.604 35.0449 125.028C35.9924 125.467 36.8834 126.103 37.7178 126.938L41.1755 130.395L42.9786 128.592L39.5209 125.134Z" fill="#1C1A1A"/>
<path d="M27.1622 108.455L23.1096 98.6711L20.8923 99.5895L24.9449 109.373L27.1622 108.455ZM9.97806 115.573L5.92544 105.789L3.70813 106.707L7.76075 116.491L9.97806 115.573ZM17.7386 112.358L13.9156 103.129L11.6983 104.047L15.5213 113.277L17.7386 112.358ZM8.30033 117.794L27.7018 109.758L26.726 107.402L7.32449 115.438L8.30033 117.794Z" fill="#1C1A1A"/>
<path d="M10.65 83.4036L21 76.2036V73.0536L10.65 80.5536V83.4036ZM-1.43051e-06 87.1536H21V84.6036H-1.43051e-06L-1.43051e-06 87.1536ZM2.25 85.7436L2.25 81.4536C2.25 80.5536 2.41 79.7636 2.73 79.0836C3.05 78.3836 3.51 77.8436 4.11 77.4636C4.71 77.0636 5.44 76.8636 6.3 76.8636C7.16 76.8636 7.89 77.0636 8.49 77.4636C9.09 77.8436 9.55 78.3836 9.87 79.0836C10.19 79.7636 10.35 80.5536 10.35 81.4536V85.7436H12.6V81.4536C12.6 80.0936 12.35 78.8836 11.85 77.8236C11.33 76.7436 10.6 75.8936 9.66 75.2736C8.7 74.6336 7.58 74.3136 6.3 74.3136C5 74.3136 3.88 74.6336 2.94 75.2736C2 75.8936 1.28 76.7436 0.779999 77.8236C0.259999 78.8836 -1.43051e-06 80.0936 -1.43051e-06 81.4536L-1.43051e-06 85.7436H2.25Z" fill="#1C1A1A"/>
<path d="M24.0548 62.1214L28.1074 52.3375L25.8901 51.4191L21.8375 61.203L24.0548 62.1214ZM6.87062 55.0035L10.9232 45.2196L8.70593 44.3012L4.65331 54.085L6.87062 55.0035ZM14.6312 58.218L18.4542 48.9885L16.2369 48.07L12.4139 57.2996L14.6312 58.218ZM4.11373 55.3877L23.5152 63.4241L24.491 61.0682L5.08957 53.0318L4.11373 55.3877Z" fill="#1C1A1A"/>
<path d="M30.3923 38.1601L38.2411 30.3112L35.9077 29.2506L29.3316 35.8267L30.3923 38.1601ZM27.2315 27.2353L35.7592 30.6718L36.3532 30.9264L43.6081 33.8538L45.6233 31.8386L23.1373 23.1412L31.8348 45.6272L33.85 43.6119L30.8377 36.1873L30.6256 35.6357L27.2315 27.2353Z" fill="#1C1A1A"/>
<path d="M52.6865 16.7602L63.2992 23.567L66.2094 22.3615L55.3196 15.6695L52.6865 16.7602ZM45.1464 8.3559L53.1827 27.7574L55.5386 26.7815L47.5023 7.38006L45.1464 8.3559ZM47.3101 9.89505L51.2735 8.25334C52.105 7.90892 52.8961 7.75442 53.6468 7.78984C54.416 7.8176 55.0909 8.03594 55.6716 8.44484C56.2708 8.8461 56.7349 9.44399 57.064 10.2385C57.3931 11.0331 57.4877 11.784 57.3478 12.4914C57.2263 13.1912 56.9034 13.8228 56.3792 14.3863C55.8734 14.9422 55.2048 15.3923 54.3733 15.7368L50.4098 17.3785L51.2709 19.4572L55.2343 17.8155C56.4908 17.295 57.513 16.601 58.301 15.7334C59.0998 14.8397 59.6057 13.84 59.8188 12.7343C60.0427 11.6025 59.9097 10.4453 59.4199 9.26269C58.9224 8.06164 58.1982 7.14936 57.2472 6.52583C56.3146 5.89464 55.2538 5.55473 54.0647 5.50609C52.8864 5.43132 51.669 5.65416 50.4125 6.17461L46.4491 7.81632L47.3101 9.89505Z" fill="#1C1A1A"/>
</svg>
