<svg width="372" height="46" viewBox="0 0 372 46" fill="none" xmlns="http://www.w3.org/2000/svg">
<path d="M335.962 5.00055C332.402 7.00169 332.165 7.90696 331.88 20.3903C331.643 30.396 331.548 31.5395 330.742 32.4447L329.84 33.4453H333.067C336.246 33.4453 336.294 33.4453 335.487 32.54C334.728 31.7301 334.633 30.8248 334.823 25.7266C334.965 20.7714 335.155 19.5326 336.057 17.8174C338.002 14.101 342.606 13.3863 345.453 16.3403C346.829 17.7697 346.829 17.7697 347.067 25.4884L347.304 33.2071L349.392 33.35C351.433 33.493 351.433 33.493 350.673 32.3971C350.151 31.6824 349.914 30.253 349.914 27.7278C349.867 25.7743 349.677 22.582 349.487 20.6761C349.155 17.8174 348.822 16.9121 347.731 15.7686C347.019 15.0062 345.738 14.2439 344.836 14.101C343.982 13.958 343.27 13.7198 343.27 13.6245C343.27 13.5292 343.792 12.9575 344.456 12.2904C345.311 11.4328 345.643 10.5751 345.643 9.2887C345.595 4.90526 340.28 2.52295 335.962 5.00055ZM342.843 6.42993C346.07 8.57401 344.931 12.2428 340.707 13.4339C338.097 14.1486 336.294 15.3398 335.108 17.055L334.206 18.4368L334.348 13.6722C334.538 8.38343 335.108 7.00169 337.338 6.00112C339.426 5.09584 341.04 5.19113 342.843 6.42993Z" fill="url(#paint0_linear_509_102)"/>
<path d="M304.497 9.47888C303.643 9.76476 303.737 11.7659 304.544 12.4329C305.446 13.1953 307.202 12.3377 307.202 11.1465C307.202 9.62182 305.968 8.85948 304.497 9.47888Z" fill="url(#paint1_linear_509_102)"/>
<path d="M287.553 13.4337C281.954 15.149 278.679 21.8671 280.862 27.1558C283.33 32.9687 290.97 35.6369 296.143 32.4446C300.367 29.824 300.082 23.6777 295.621 21.7242C294.15 21.1048 294.197 21.1048 296.902 21.0571C299.465 21.0571 299.607 21.0095 299.607 19.866C299.607 15.1967 293.153 11.7661 287.553 13.4337ZM294.387 15.1967C295.336 16.0543 295.953 17.1502 296.143 18.2937L296.428 20.1042H291.018C288.028 20.1042 285.323 19.9136 284.991 19.6754C284.611 19.4372 284.469 18.8654 284.659 18.1507C285.323 15.5302 287.601 13.9102 290.686 13.9102C292.489 13.9102 293.248 14.1961 294.387 15.1967ZM295.004 22.3912C299.418 24.3447 299.702 29.0617 295.574 31.3964C291.73 33.5881 287.269 32.3969 285.465 28.8235C284.469 26.87 283.709 21.9148 284.326 21.2954C284.991 20.5807 292.679 21.3907 295.004 22.3912Z" fill="url(#paint2_linear_509_102)"/>
<path d="M316.551 13.5285C313.893 14.2432 311.947 16.4349 311.947 18.6743C311.947 21.1519 313.418 22.8195 316.693 23.9154C318.117 24.3918 319.35 25.0112 319.445 25.2495C319.493 25.4877 318.022 27.1077 316.123 28.8706C313.798 31.0146 312.849 32.1582 313.181 32.4917C313.466 32.7776 314.984 33.2064 316.598 33.4922C321.581 34.3975 326.279 32.6346 327.845 29.347C329.506 25.7736 327.56 22.7719 323.147 22.2001C321.913 22.0095 320.869 21.7236 320.727 21.5331C320.632 21.3901 321.913 19.8654 323.574 18.1978C325.283 16.4826 326.659 14.9579 326.659 14.7673C326.659 14.2432 321.913 12.9567 320.062 13.0044C319.113 13.052 317.547 13.2903 316.551 13.5285ZM323.764 14.4338C324.618 14.7197 325.235 15.1485 325.14 15.2914C325.045 15.482 323.574 17.0067 321.818 18.6266L318.639 21.5807L316.978 20.866C314.083 19.6749 314.225 16.0537 317.167 14.5291C318.639 13.7667 321.771 13.7191 323.764 14.4338ZM324.191 26.1071C325.235 26.8218 325.567 28.68 324.95 30.3476C324.239 32.1582 318.591 33.3017 315.317 32.2534C314.273 31.9199 314.368 31.777 317.452 28.6323C320.917 25.1542 322.15 24.6777 324.191 26.1071Z" fill="url(#paint3_linear_509_102)"/>
<path d="M360.023 13.482C356.985 14.3872 355.514 18.3895 357.318 20.9624C357.982 21.963 357.982 22.0583 356.89 22.4394C354.897 23.2018 353.236 25.6794 353.236 27.8711C353.284 31.0157 355.467 33.1122 359.453 33.6839C362.301 34.1128 365.29 33.2551 366.477 31.6828C367.331 30.6346 367.473 30.5869 367.473 31.3969C367.473 32.7787 368.422 33.4457 370.511 33.4457C372.266 33.4457 372.314 33.3981 371.46 32.7787C370.653 32.1593 370.511 31.3016 370.321 25.0123C370.178 21.1053 369.846 17.5319 369.514 17.0078C368.422 15.1019 366.667 13.9108 364.199 13.4343C362.775 13.1961 361.394 13.1424 361.394 13.1424C361.394 13.1424 360.983 13.1424 360.023 13.482ZM365.433 15.1972C366.524 15.9119 367.473 18.1036 367.473 19.8665C367.473 20.9148 367.189 20.9624 363.155 21.2959C359.311 21.5818 358.789 21.5342 358.219 20.7718C357.507 19.8189 357.318 17.3889 357.792 16.0548C358.551 14.0537 362.917 13.5772 365.433 15.1972ZM367.236 25.5841C367.236 29.7293 366.05 31.7304 363.202 32.4928C359.596 33.4457 356.558 31.1587 356.558 27.4423C356.558 24.8694 358.219 23.1065 360.972 22.773C362.063 22.63 363.487 22.3918 364.151 22.2965C367.094 21.82 367.236 21.963 367.236 25.5841Z" fill="url(#paint4_linear_509_102)"/>
<path d="M263.542 13.9578C260.22 15.2919 257.42 19.0083 257.373 22.1529C257.373 25.2499 259.698 28.7281 262.783 30.1098L264.586 30.9675L262.546 31.301C257.515 32.0633 255 33.9692 255 36.9709C255 41.5449 260.837 43.2125 265.203 39.8773L266.627 38.8291L268.288 39.9726C269.19 40.592 270.708 41.3067 271.657 41.5926C275.169 42.6884 278.728 40.2585 278.728 36.828C278.728 34.6839 277.827 33.3021 275.928 32.4922C273.65 31.5869 271.61 32.2539 266.627 35.5892C262.735 38.2097 261.739 38.6862 259.983 38.6862C257.705 38.6862 256.424 37.7809 256.424 36.2562C256.424 33.6833 258.607 32.5874 265.678 31.4916C271.467 30.634 274.742 28.5375 275.928 25.0117C276.45 23.3441 276.308 20.1994 275.644 18.5318C275.359 17.8648 275.501 17.7218 276.403 17.8171C277.352 17.9601 277.542 17.7218 277.684 16.3877C277.827 14.9107 277.21 14.339 276.593 15.3395C276.118 16.1495 274.22 15.8636 271.515 14.6248C268.857 13.386 265.678 13.1002 263.542 13.9578ZM269.427 14.8631C271.942 15.816 273.461 20.2471 272.796 24.7258C271.895 30.9198 264.681 32.1586 261.786 26.6317C260.742 24.5829 260.742 19.9136 261.881 17.5789C263.21 14.7678 266.295 13.6243 269.427 14.8631ZM275.359 34.6839C277.874 37.9238 275.264 41.7355 271.278 40.6397C269.617 40.1632 267.339 38.4479 267.339 37.6379C267.339 37.4474 268.098 36.3991 269.047 35.3509C270.471 33.7786 271.088 33.4451 272.559 33.4451C273.983 33.4451 274.6 33.731 275.359 34.6839Z" fill="url(#paint5_linear_509_102)"/>
<path d="M303.311 15.2445C304.355 15.9592 304.83 18.7703 304.83 24.4878C304.83 29.9195 304.403 32.3495 303.264 33.0641C302.932 33.2547 304.166 33.4453 305.969 33.4453C309.196 33.4453 309.243 33.4453 308.437 32.54C307.725 31.7777 307.535 30.253 307.345 23.249L307.06 14.8633H304.877C303.596 14.8633 302.932 15.0539 303.311 15.2445Z" fill="url(#paint6_linear_509_102)"/>
<path d="M25.0733 33.8421C24.3695 34.2281 23.3138 34.5614 21.9061 34.8421C20.4985 35.1579 18.9325 35.3158 17.2082 35.3158C13.8651 35.3158 10.8915 34.614 8.28738 33.2105C5.68328 31.7719 3.64223 29.7544 2.16422 27.1579C0.721407 24.5614 0 21.5439 0 18.1053C0 14.4561 0.791788 11.3684 2.37536 8.84211C3.95894 6.2807 6.08797 4.36842 8.76245 3.10526C11.4369 1.84211 14.3929 1.21053 17.6305 1.21053C19.2141 1.21053 20.6921 1.35088 22.0645 1.63158C23.4721 1.91228 24.5454 2.22807 25.2844 2.57895L24.7038 5.05263C24.0352 4.52632 23.0674 4.05263 21.8006 3.63158C20.5689 3.21053 19.2844 3 17.9472 3C15.695 3 13.478 3.50877 11.2962 4.52632C9.11436 5.54386 7.28445 7.19298 5.80645 9.47368C4.36363 11.7544 3.64223 14.6491 3.64223 18.1579C3.64223 20.9649 4.20527 23.5439 5.33137 25.8947C6.45747 28.2456 8.05864 30.1053 10.1349 31.4737C12.2463 32.8421 14.6921 33.5263 17.4721 33.5263C18.9149 33.5263 20.2698 33.3158 21.5366 32.8947C22.8387 32.4737 23.8416 32 24.5454 31.4737L25.0733 33.8421Z" fill="url(#paint7_linear_509_102)"/>
<path d="M38.8413 35.1053C37.0818 35.1053 35.4454 34.7193 33.9322 33.9474C32.4542 33.1754 31.2578 32.0351 30.3428 30.5263C29.463 28.9825 29.0232 27.1404 29.0232 25C29.0232 22.8596 29.4806 21.0351 30.3956 19.5263C31.3105 18.0175 32.5246 16.8772 34.0378 16.1053C35.5862 15.3333 37.2402 14.9474 38.9997 14.9474C40.7592 14.9474 42.3956 15.3509 43.9088 16.1579C45.422 16.9298 46.6184 18.0702 47.4982 19.579C48.4132 21.0877 48.8706 22.8947 48.8706 25C48.8706 27.1754 48.3956 29.0351 47.4454 30.5789C46.5305 32.0877 45.3164 33.2281 43.8032 34C42.29 34.7368 40.636 35.1053 38.8413 35.1053ZM32.3487 24.6316C32.3487 26.4211 32.6478 27.9825 33.246 29.3158C33.8443 30.614 34.6536 31.6316 35.6742 32.3684C36.7299 33.0702 37.8912 33.4211 39.158 33.4211C40.249 33.4211 41.2695 33.1228 42.2196 32.5263C43.205 31.8947 43.9967 30.9825 44.595 29.7895C45.2284 28.5965 45.5451 27.1403 45.5451 25.4211C45.5451 23.6667 45.2284 22.1228 44.595 20.7895C43.9967 19.4211 43.1874 18.3684 42.1668 17.6316C41.1463 16.8947 40.0378 16.5263 38.8413 16.5263C37.7504 16.5263 36.6947 16.8421 35.6742 17.4737C34.6888 18.1053 33.8795 19.0351 33.246 20.2632C32.6478 21.4912 32.3487 22.9474 32.3487 24.6316Z" fill="url(#paint8_linear_509_102)"/>
<path d="M54.3732 8.78947C54.3732 4.7193 54.2852 1.89474 54.1092 0.315792L57.7514 0.0526342C57.5755 1.70176 57.4875 4.56141 57.4875 8.63158V26.5263C57.4875 29.6491 57.5755 32.3509 57.7514 34.6316H54.1092C54.2852 32.3509 54.3732 29.6491 54.3732 26.5263V8.78947Z" fill="url(#paint9_linear_509_102)"/>
<path d="M64.7344 8.78947C64.7344 4.7193 64.6465 1.89474 64.4705 0.315792L68.1127 0.0526342C67.9368 1.70176 67.8488 4.56141 67.8488 8.63158V26.5263C67.8488 29.6491 67.9368 32.3509 68.1127 34.6316H64.4705C64.6465 32.3509 64.7344 29.6491 64.7344 26.5263V8.78947Z" fill="url(#paint10_linear_509_102)"/>
<path d="M104.274 16.5789C103.042 16.5789 101.863 16.9123 100.737 17.5789C99.6112 18.2105 98.6962 19.1579 97.9924 20.4211C97.2886 21.6842 96.9367 23.2105 96.9367 25C96.9719 27.7018 97.7109 29.7895 99.1537 31.2632C100.632 32.7018 102.409 33.4211 104.485 33.4211C105.541 33.4211 106.456 33.2632 107.23 32.9474C108.004 32.5965 108.761 32.1754 109.5 31.6842L110.08 33.1053C109.447 33.5965 108.567 34.0526 107.441 34.4737C106.35 34.8947 105.277 35.1053 104.221 35.1053C102.25 35.1053 100.456 34.7193 98.837 33.9474C97.2534 33.1404 96.0042 31.9825 95.0892 30.4737C94.1742 28.9649 93.7168 27.1404 93.7168 25C93.7168 22.8596 94.1918 21.0351 95.142 19.5263C96.1273 18.0175 97.4294 16.8772 99.0481 16.1053C100.667 15.3333 102.444 14.9474 104.38 14.9474C105.717 14.9474 106.755 15.0702 107.494 15.3158C108.268 15.5614 109.06 15.9123 109.869 16.3684L109.183 17.8947C108.479 17.4737 107.758 17.1404 107.019 16.8947C106.315 16.6491 105.4 16.5439 104.274 16.5789Z" fill="url(#paint11_linear_509_102)"/>
<path d="M113.61 15.9474C114.208 15.7018 115.017 15.5439 116.038 15.4737V13.5263C116.038 12.5789 116.161 11.5965 116.407 10.5789C116.654 9.5614 116.935 8.70175 117.252 8H119.31C119.24 9.33333 119.205 11.807 119.205 15.4211H125.909L125.486 17.3684C125.17 17.2632 123.076 17.1754 119.205 17.1053C119.17 18.2632 119.152 20.5614 119.152 24C119.152 26.2807 119.205 28.0526 119.31 29.3158C119.451 30.5789 119.768 31.5789 120.261 32.3158C120.753 33.0175 121.527 33.3684 122.583 33.3684C123.217 33.3684 123.868 33.2281 124.536 32.9474C125.205 32.6316 125.75 32.2807 126.173 31.8947L126.648 33.4211C126.155 33.8421 125.451 34.2281 124.536 34.5789C123.657 34.9298 122.742 35.1053 121.791 35.1053C120.243 35.1053 119.047 34.7368 118.202 34C117.393 33.2281 116.83 32.1228 116.513 30.6842C116.231 29.2105 116.073 27.2632 116.038 24.8421V17.0526H113.61V15.9474Z" fill="url(#paint12_linear_509_102)"/>
<path d="M131.902 23.4211C131.902 19.2456 131.814 16.5965 131.638 15.4737L135.281 15.1579C135.105 16.4561 135.017 19.1579 135.017 23.2632V26.5263C135.017 29.6491 135.105 32.3509 135.281 34.6316H131.638C131.814 32.3509 131.902 29.6491 131.902 26.5263V23.4211Z" fill="url(#paint13_linear_509_102)"/>
<path d="M150.341 35.1053C148.582 35.1053 146.945 34.7193 145.432 33.9474C143.954 33.1754 142.758 32.0351 141.843 30.5263C140.963 28.9825 140.523 27.1404 140.523 25C140.523 22.8596 140.98 21.0351 141.895 19.5263C142.81 18.0175 144.024 16.8772 145.538 16.1053C147.086 15.3333 148.74 14.9474 150.5 14.9474C152.259 14.9474 153.895 15.3509 155.409 16.1579C156.922 16.9298 158.118 18.0702 158.998 19.579C159.913 21.0877 160.37 22.8947 160.37 25C160.37 27.1754 159.895 29.0351 158.945 30.5789C158.03 32.0877 156.816 33.2281 155.303 34C153.79 34.7368 152.136 35.1053 150.341 35.1053ZM143.849 24.6316C143.849 26.4211 144.148 27.9825 144.746 29.3158C145.344 30.614 146.153 31.6316 147.174 32.3684C148.23 33.0702 149.391 33.4211 150.658 33.4211C151.749 33.4211 152.769 33.1228 153.719 32.5263C154.705 31.8947 155.497 30.9825 156.095 29.7895C156.728 28.5965 157.045 27.1403 157.045 25.4211C157.045 23.6667 156.728 22.1228 156.095 20.7895C155.497 19.4211 154.687 18.3684 153.667 17.6316C152.646 16.8947 151.538 16.5263 150.341 16.5263C149.25 16.5263 148.195 16.8421 147.174 17.4737C146.189 18.1053 145.379 19.0351 144.746 20.2632C144.148 21.4912 143.849 22.9474 143.849 24.6316Z" fill="url(#paint14_linear_509_102)"/>
<path d="M168.987 24.7368C168.987 27.0526 169.005 29.2105 169.04 31.2105C169.111 33.2105 169.181 34.3509 169.251 34.6316H165.609C165.785 32.3509 165.873 29.6491 165.873 26.5263V23.6316C165.873 19.4912 165.785 16.7719 165.609 15.4737L169.251 15.1579C169.181 15.5439 169.128 16.7018 169.093 18.6316L169.04 20.0526C169.498 18.7193 170.395 17.5439 171.732 16.5263C173.069 15.4737 174.512 14.9474 176.061 14.9474C178.524 14.9474 180.196 15.7895 181.075 17.4737C181.99 19.1579 182.448 21.0351 182.448 23.1053V27.4737C182.448 30.6667 182.501 33.0526 182.606 34.6316H179.069C179.21 33.7193 179.281 31.386 179.281 27.6316V23.8421C179.281 21.9474 178.981 20.3158 178.383 18.9474C177.82 17.5789 176.553 16.8947 174.583 16.8947C173.562 16.8947 172.612 17.2982 171.732 18.1053C170.888 18.9123 170.219 19.9298 169.726 21.1579C169.234 22.386 168.987 23.5789 168.987 24.7368Z" fill="url(#paint15_linear_509_102)"/>
<path d="M211.608 14.9474C213.192 14.9474 214.652 15.3333 215.989 16.1053C217.327 16.8421 218.4 17.9825 219.209 19.5263C220.019 21.0351 220.423 22.8596 220.423 25C220.423 27.1053 219.984 28.9123 219.104 30.4211C218.224 31.9298 217.045 33.0877 215.567 33.8947C214.124 34.6667 212.576 35.0526 210.922 35.0526C209.127 35.0526 207.526 34.7544 206.118 34.1579C204.711 33.5614 203.391 32.807 202.16 31.8947H202.107C202.248 31.3333 202.318 29.3509 202.318 25.9474V8.78947C202.318 4.68421 202.23 1.84211 202.054 0.263158L205.696 0C205.52 1.64912 205.432 4.52632 205.432 8.63158V18.1579C207.086 16.0175 209.145 14.9474 211.608 14.9474ZM210.711 33.5789C211.767 33.5439 212.787 33.193 213.772 32.5263C214.793 31.8246 215.62 30.8246 216.253 29.5263C216.887 28.2281 217.204 26.7018 217.204 24.9474C217.204 23.1228 216.869 21.5789 216.201 20.3158C215.567 19.0526 214.723 18.1053 213.667 17.4737C212.646 16.8421 211.573 16.5263 210.447 16.5263C209.356 16.5263 208.388 16.9123 207.544 17.6842C206.699 18.4561 205.995 19.3333 205.432 20.3158V26.3684C205.432 29.3509 205.467 31.193 205.538 31.8947C207.121 33.0175 208.846 33.5789 210.711 33.5789Z" fill="url(#paint16_linear_509_102)"/>
<path d="M226.351 23.1579C225.964 22.0702 225.612 21.1754 225.295 20.4737C224.345 18.0526 223.641 16.3684 223.184 15.4211H227.037C227.389 16.8947 227.987 18.8246 228.832 21.2105C229.465 22.7895 230.574 25.6316 232.157 29.7368L233.107 32.3158C234.585 30.5614 235.975 28.4912 237.277 26.1053C238.579 23.7193 239.23 21.5263 239.23 19.5263C239.23 18.2281 239.055 16.7719 238.703 15.1579L240.972 15.5263C241.148 16.2982 241.236 17.2105 241.236 18.2632C241.307 20.9298 240.708 23.5088 239.442 26C238.21 28.4561 236.398 31.1579 234.005 34.1053C232.456 36.0351 230.926 38.0877 229.412 40.2632C227.934 42.4737 226.843 44.3684 226.14 45.9474H224.714L224.662 45.2632C227.09 40.4211 229.324 36.7895 231.365 34.3684L230.521 34L226.351 23.1579Z" fill="url(#paint17_linear_509_102)"/>
<circle cx="133.5" cy="8.5" r="2.5" fill="url(#paint18_linear_509_102)"/>
<path d="M79.3738 15.4279C73.7739 17.1432 70.4994 23.8613 72.6824 29.15C75.1501 34.9628 82.7906 37.631 87.9634 34.4387C92.187 31.8182 91.9023 25.6718 87.4414 23.7183C85.9702 23.0989 86.0177 23.0989 88.7227 23.0513C91.2854 23.0513 91.4277 23.0036 91.4277 21.8601C91.4277 17.1908 84.9736 13.7603 79.3738 15.4279ZM86.2075 17.1908C87.1566 18.0484 87.7736 19.1443 87.9634 20.2878L88.2481 22.0984H82.8381C79.8483 22.0984 77.1433 21.9078 76.8111 21.6695C76.4315 21.4313 76.2891 20.8596 76.4789 20.1449C77.1433 17.5243 79.4212 15.9044 82.5059 15.9044C84.3093 15.9044 85.0686 16.1902 86.2075 17.1908ZM86.8245 24.3854C91.2379 26.3389 91.5226 31.0558 87.3939 33.3905C83.5499 35.5822 79.089 34.3911 77.2857 30.8176C76.2891 28.8641 75.5298 23.9089 76.1467 23.2895C76.8111 22.5748 84.4991 23.3848 86.8245 24.3854Z" fill="url(#paint19_linear_509_102)"/>
<defs>
<linearGradient id="paint0_linear_509_102" x1="340.49" y1="33.4453" x2="340.49" y2="3.99959" gradientUnits="userSpaceOnUse">
<stop stop-color="#D31217"/>
<stop offset="1" stop-color="#EF6628"/>
</linearGradient>
<linearGradient id="paint1_linear_509_102" x1="305.549" y1="12.7217" x2="305.549" y2="9.26308" gradientUnits="userSpaceOnUse">
<stop stop-color="#D31217"/>
<stop offset="1" stop-color="#EF6628"/>
</linearGradient>
<linearGradient id="paint2_linear_509_102" x1="289.894" y1="33.8096" x2="289.894" y2="13.006" gradientUnits="userSpaceOnUse">
<stop stop-color="#D31217"/>
<stop offset="1" stop-color="#EF6628"/>
</linearGradient>
<linearGradient id="paint3_linear_509_102" x1="320.19" y1="33.7285" x2="320.19" y2="13.0031" gradientUnits="userSpaceOnUse">
<stop stop-color="#D31217"/>
<stop offset="1" stop-color="#EF6628"/>
</linearGradient>
<linearGradient id="paint4_linear_509_102" x1="362.618" y1="33.7939" x2="362.618" y2="13.1424" gradientUnits="userSpaceOnUse">
<stop stop-color="#D31217"/>
<stop offset="1" stop-color="#EF6628"/>
</linearGradient>
<linearGradient id="paint5_linear_509_102" x1="266.864" y1="41.8584" x2="266.864" y2="13.4648" gradientUnits="userSpaceOnUse">
<stop stop-color="#D31217"/>
<stop offset="1" stop-color="#EF6628"/>
</linearGradient>
<linearGradient id="paint6_linear_509_102" x1="306.039" y1="33.4453" x2="306.039" y2="14.8633" gradientUnits="userSpaceOnUse">
<stop stop-color="#D31217"/>
<stop offset="1" stop-color="#EF6628"/>
</linearGradient>
<linearGradient id="paint7_linear_509_102" x1="120.621" y1="0" x2="120.621" y2="45.9474" gradientUnits="userSpaceOnUse">
<stop stop-color="#D31217"/>
<stop offset="1" stop-color="#EF6628"/>
</linearGradient>
<linearGradient id="paint8_linear_509_102" x1="120.621" y1="0" x2="120.621" y2="45.9474" gradientUnits="userSpaceOnUse">
<stop stop-color="#D31217"/>
<stop offset="1" stop-color="#EF6628"/>
</linearGradient>
<linearGradient id="paint9_linear_509_102" x1="120.621" y1="0" x2="120.621" y2="45.9474" gradientUnits="userSpaceOnUse">
<stop stop-color="#D31217"/>
<stop offset="1" stop-color="#EF6628"/>
</linearGradient>
<linearGradient id="paint10_linear_509_102" x1="120.621" y1="0" x2="120.621" y2="45.9474" gradientUnits="userSpaceOnUse">
<stop stop-color="#D31217"/>
<stop offset="1" stop-color="#EF6628"/>
</linearGradient>
<linearGradient id="paint11_linear_509_102" x1="120.621" y1="0" x2="120.621" y2="45.9474" gradientUnits="userSpaceOnUse">
<stop stop-color="#D31217"/>
<stop offset="1" stop-color="#EF6628"/>
</linearGradient>
<linearGradient id="paint12_linear_509_102" x1="120.621" y1="0" x2="120.621" y2="45.9474" gradientUnits="userSpaceOnUse">
<stop stop-color="#D31217"/>
<stop offset="1" stop-color="#EF6628"/>
</linearGradient>
<linearGradient id="paint13_linear_509_102" x1="120.621" y1="0" x2="120.621" y2="45.9474" gradientUnits="userSpaceOnUse">
<stop stop-color="#D31217"/>
<stop offset="1" stop-color="#EF6628"/>
</linearGradient>
<linearGradient id="paint14_linear_509_102" x1="120.621" y1="0" x2="120.621" y2="45.9474" gradientUnits="userSpaceOnUse">
<stop stop-color="#D31217"/>
<stop offset="1" stop-color="#EF6628"/>
</linearGradient>
<linearGradient id="paint15_linear_509_102" x1="120.621" y1="0" x2="120.621" y2="45.9474" gradientUnits="userSpaceOnUse">
<stop stop-color="#D31217"/>
<stop offset="1" stop-color="#EF6628"/>
</linearGradient>
<linearGradient id="paint16_linear_509_102" x1="120.621" y1="0" x2="120.621" y2="45.9474" gradientUnits="userSpaceOnUse">
<stop stop-color="#D31217"/>
<stop offset="1" stop-color="#EF6628"/>
</linearGradient>
<linearGradient id="paint17_linear_509_102" x1="120.621" y1="0" x2="120.621" y2="45.9474" gradientUnits="userSpaceOnUse">
<stop stop-color="#D31217"/>
<stop offset="1" stop-color="#EF6628"/>
</linearGradient>
<linearGradient id="paint18_linear_509_102" x1="133.5" y1="6" x2="133.5" y2="11" gradientUnits="userSpaceOnUse">
<stop stop-color="#D31217"/>
<stop offset="1" stop-color="#EF6628"/>
</linearGradient>
<linearGradient id="paint19_linear_509_102" x1="81.7139" y1="35.8037" x2="81.7139" y2="15.0001" gradientUnits="userSpaceOnUse">
<stop stop-color="#D31217"/>
<stop offset="1" stop-color="#EF6628"/>
</linearGradient>
</defs>
</svg>
