<svg width="38" height="35" viewBox="0 0 38 35" fill="none" xmlns="http://www.w3.org/2000/svg">
<path d="M9.56333 0.88596L9.56183 0.88623C2.86975 2.09271 -0.995384 9.0751 1.52808 15.3534L1.52897 15.3556C1.91873 16.3344 2.47395 17.2702 3.09298 18.0268L2.51252 18.5017L3.09116 18.0246C3.09056 18.0238 3.09071 18.024 3.09178 18.0252C3.09491 18.0288 3.1059 18.0411 3.12895 18.0658C3.15663 18.0954 3.19408 18.1346 3.24179 18.1838C3.33703 18.2821 3.4669 18.4138 3.62883 18.5764C3.95235 18.9012 4.3977 19.3431 4.937 19.8749C6.01525 20.9381 7.46459 22.3561 9.05613 23.9059C12.2395 27.0058 15.9877 30.6287 18.468 32.9884L18.4687 32.9891C18.6195 33.1329 18.7274 33.2337 18.8121 33.3073C18.8808 33.3671 18.921 33.3972 18.9429 33.4121C18.955 33.4126 18.9734 33.4131 19.0001 33.4131C19.0281 33.4131 19.0469 33.4125 19.059 33.412C19.0814 33.3972 19.1231 33.3665 19.1957 33.3042C19.2814 33.2306 19.3904 33.1303 19.5421 32.9878C23.0538 29.6199 26.7995 25.9995 29.7216 23.1539C31.1832 21.7306 32.4378 20.5021 33.3537 19.5963C33.8119 19.1432 34.1839 18.7722 34.4541 18.4986C34.5894 18.3617 34.6975 18.2509 34.7773 18.1673C34.8173 18.1254 34.8486 18.092 34.8719 18.0666C34.8933 18.0432 34.9028 18.0321 34.9047 18.0299C34.9051 18.0294 34.9052 18.0293 34.905 18.0295L34.9083 18.0255C37.1808 15.2604 37.8697 11.3209 36.6644 7.87852C35.1544 3.57456 31.1677 0.749592 26.6126 0.749592C24.1045 0.749592 21.8225 1.54856 19.9656 3.05997L19.9647 3.06072L19.4726 3.45992L19.0001 3.84329L18.5276 3.45992L18.0356 3.06072L18.0334 3.05899C17.0433 2.24964 15.611 1.49915 14.428 1.15627L14.4255 1.15551C13.0503 0.751568 10.9222 0.638123 9.56333 0.88596Z" stroke="black" stroke-width="1.5"/>
</svg>
