<svg width="34" height="32" viewBox="0 0 34 32" fill="none" xmlns="http://www.w3.org/2000/svg">
<path d="M1.4102 14.5338L1.41079 14.5353C1.76103 15.4148 2.25964 16.2557 2.81687 16.9371C2.81688 16.9371 2.81688 16.9371 2.81688 16.9371C2.8172 16.9374 2.81817 16.9386 2.81994 16.9406C2.82157 16.9425 2.8239 16.9451 2.82702 16.9486C2.83436 16.9567 2.8442 16.9674 2.85688 16.981C2.88226 17.0082 2.91609 17.0436 2.9586 17.0874C3.0435 17.175 3.15885 17.292 3.30216 17.4359C3.58853 17.7234 3.98246 18.1143 4.45912 18.5843C5.41222 19.5241 6.69314 20.7773 8.09959 22.1469C10.9127 24.8862 14.2252 28.0879 16.4175 30.1737L16.4179 30.1741C16.6981 30.4413 16.8086 30.5359 16.8771 30.5771C16.8889 30.5842 16.895 30.5868 16.8967 30.5875C16.898 30.588 16.8988 30.5883 16.9011 30.5888C16.909 30.5904 16.9308 30.5938 16.9998 30.5938C17.0687 30.5938 17.0906 30.5904 17.0988 30.5887L17.0989 30.5887C17.0997 30.5886 17.1051 30.5881 17.125 30.5762C17.1953 30.5343 17.3078 30.439 17.5907 30.1733C20.6942 27.1969 24.0045 23.9973 26.587 21.4824C27.8786 20.2246 28.9875 19.1387 29.7973 18.3379C30.2023 17.9374 30.5315 17.6091 30.771 17.3667C30.8909 17.2454 30.987 17.1467 31.0585 17.0719C31.0942 17.0345 31.1228 17.0041 31.1444 16.9804C31.1552 16.9687 31.1636 16.9592 31.1701 16.952L31.1774 16.9434L31.1794 16.9411L31.1801 16.9403L31.1823 16.9376C33.227 14.4497 33.8453 10.909 32.7619 7.81445C31.4047 3.94616 27.8205 1.40625 23.7264 1.40625C21.4742 1.40625 19.4211 2.12419 17.7502 3.48427L17.7496 3.48477L17.3148 3.8375L16.9998 4.09308L16.6848 3.8375L16.25 3.48477L16.2486 3.48361C15.3569 2.75472 14.0717 2.08118 13.0051 1.77203L13.0034 1.77153C11.7644 1.40757 9.8582 1.30576 8.63208 1.52939L8.63108 1.52957C2.61683 2.61385 -0.858207 8.89012 1.4102 14.5338Z" stroke-width="1" stroke="#fff"/>
</svg>
