<svg width="34" height="31" viewBox="0 0 34 31" fill="none" xmlns="http://www.w3.org/2000/svg">
<path d="M8.50885 1.11539L8.51086 1.11502C9.65881 0.905649 11.486 1.00264 12.6515 1.34501L12.655 1.34602C13.6561 1.6362 14.8811 2.27781 15.7212 2.96449L15.724 2.9668L16.1588 3.31953L16.7889 3.8307L17.4189 3.31953L17.8537 2.96679L17.8549 2.9658C19.4331 1.6812 21.3736 1 23.5154 1C27.3972 1 30.7924 3.40584 32.0792 7.074C33.1057 10.0063 32.517 13.3633 30.585 15.7139L30.5814 15.7183C30.5817 15.7179 30.5805 15.7192 30.5776 15.7224C30.5682 15.7327 30.541 15.7627 30.4859 15.8204C30.4173 15.8923 30.3233 15.9887 30.2044 16.1091C29.9669 16.3494 29.6393 16.6761 29.2348 17.0762C28.4263 17.8757 27.3184 18.9606 26.0272 20.2179C23.4462 22.7314 20.1376 25.9293 17.0356 28.9044C16.9316 29.0021 16.8533 29.0744 16.791 29.1297C16.7301 29.0747 16.6535 29.0028 16.5521 28.9061L16.5512 28.9052C14.3609 26.8214 11.05 23.6211 8.23747 20.8824C6.83141 19.5132 5.55131 18.2608 4.59924 17.322C4.12298 16.8524 3.73029 16.4627 3.44548 16.1768C3.30284 16.0336 3.18931 15.9184 3.1067 15.8332C3.04263 15.7671 3.00962 15.7317 2.99697 15.7181C2.99208 15.7128 2.99023 15.7108 2.99081 15.7116M8.50885 1.11539L2.99164 15.7126C2.99123 15.7122 2.99095 15.7118 2.99081 15.7116M8.50885 1.11539C2.80497 2.14371 -0.486512 8.09273 1.66319 13.4411L1.66438 13.4441C1.99551 14.2756 2.46734 15.0709 2.99081 15.7116M8.50885 1.11539L2.99081 15.7116" stroke="#1C1A1A" stroke-width="2"/>
</svg>
