<svg width="904" height="142" viewBox="0 0 904 142" fill="none" xmlns="http://www.w3.org/2000/svg">
<path d="M0.347656 1.63632H7.60902L22.1317 26.0795H22.7454L37.2681 1.63632H44.5295L25.609 32.4204V54H19.2681V32.4204L0.347656 1.63632Z" fill="white"/>
<path d="M94.4513 27.8181C94.4513 33.3409 93.4542 38.1136 91.4599 42.1363C89.4656 46.159 86.7298 49.2613 83.2525 51.4431C79.7752 53.625 75.8036 54.7159 71.3377 54.7159C66.8718 54.7159 62.9002 53.625 59.4229 51.4431C55.9457 49.2613 53.2099 46.159 51.2156 42.1363C49.2212 38.1136 48.2241 33.3409 48.2241 27.8181C48.2241 22.2954 49.2212 17.5227 51.2156 13.5C53.2099 9.47723 55.9457 6.37496 59.4229 4.19314C62.9002 2.01132 66.8718 0.92041 71.3377 0.92041C75.8036 0.92041 79.7752 2.01132 83.2525 4.19314C86.7298 6.37496 89.4656 9.47723 91.4599 13.5C93.4542 17.5227 94.4513 22.2954 94.4513 27.8181ZM88.315 27.8181C88.315 23.284 87.5565 19.4573 86.0394 16.338C84.5394 13.2187 82.5025 10.8579 79.9286 9.25564C77.3718 7.65337 74.5082 6.85223 71.3377 6.85223C68.1673 6.85223 65.2951 7.65337 62.7212 9.25564C60.1644 10.8579 58.1275 13.2187 56.6104 16.338C55.1104 19.4573 54.3604 23.284 54.3604 27.8181C54.3604 32.3522 55.1104 36.1789 56.6104 39.2983C58.1275 42.4176 60.1644 44.7784 62.7212 46.3806C65.2951 47.9829 68.1673 48.784 71.3377 48.784C74.5082 48.784 77.3718 47.9829 79.9286 46.3806C82.5025 44.7784 84.5394 42.4176 86.0394 39.2983C87.5565 36.1789 88.315 32.3522 88.315 27.8181Z" fill="white"/>
<path d="M139.477 1.63632H145.818V36.3068C145.818 39.8863 144.974 43.0823 143.287 45.8948C141.616 48.6903 139.255 50.8977 136.204 52.517C133.153 54.1193 129.574 54.9204 125.466 54.9204C121.358 54.9204 117.778 54.1193 114.727 52.517C111.676 50.8977 109.306 48.6903 107.619 45.8948C105.949 43.0823 105.113 39.8863 105.113 36.3068V1.63632H111.454V35.7954C111.454 38.3522 112.017 40.6278 113.142 42.6221C114.267 44.5994 115.869 46.159 117.949 47.3011C120.045 48.4261 122.551 48.9886 125.466 48.9886C128.38 48.9886 130.886 48.4261 132.983 47.3011C135.079 46.159 136.681 44.5994 137.789 42.6221C138.914 40.6278 139.477 38.3522 139.477 35.7954V1.63632Z" fill="white"/>
<path d="M158.48 54V1.63632H176.174C180.265 1.63632 183.623 2.33518 186.248 3.73291C188.873 5.11359 190.816 7.01416 192.077 9.43462C193.338 11.8551 193.969 14.6079 193.969 17.6931C193.969 20.7784 193.338 23.5142 192.077 25.9005C190.816 28.2869 188.881 30.1619 186.273 31.5255C183.665 32.8721 180.333 33.5454 176.276 33.5454H161.958V27.8181H176.071C178.867 27.8181 181.117 27.409 182.821 26.5909C184.543 25.7727 185.787 24.6136 186.554 23.1136C187.338 21.5965 187.73 19.7897 187.73 17.6931C187.73 15.5965 187.338 13.7642 186.554 12.196C185.77 10.6278 184.517 9.41757 182.796 8.5653C181.074 7.69598 178.799 7.26132 175.969 7.26132H164.821V54H158.48ZM183.128 30.4772L196.015 54H188.651L175.969 30.4772H183.128Z" fill="white"/>
<path d="M224.785 54V1.63632H256.183V7.26132H231.126V24.9545H253.831V30.5795H231.126V54H224.785Z" fill="white"/>
<path d="M267.043 54V1.63632H298.645V7.26132H273.384V24.9545H297.009V30.5795H273.384V48.375H299.054V54H267.043Z" fill="white"/>
<path d="M310.074 54V1.63632H341.676V7.26132H316.415V24.9545H340.04V30.5795H316.415V48.375H342.086V54H310.074Z" fill="white"/>
<path d="M353.105 54V1.63632H359.446V48.375H383.787V54H353.105Z" fill="white"/>
<path d="M422.242 14.7272C421.935 12.1363 420.691 10.125 418.509 8.69314C416.327 7.26132 413.651 6.54541 410.48 6.54541C408.162 6.54541 406.134 6.92041 404.395 7.67041C402.674 8.42041 401.327 9.45166 400.355 10.7642C399.401 12.0767 398.924 13.5681 398.924 15.2386C398.924 16.6363 399.256 17.838 399.921 18.8437C400.603 19.8323 401.472 20.659 402.529 21.3238C403.586 21.9715 404.694 22.5085 405.853 22.9346C407.012 23.3437 408.077 23.6761 409.049 23.9318L414.367 25.3636C415.73 25.7215 417.248 26.2159 418.918 26.8465C420.605 27.4772 422.216 28.338 423.75 29.4289C425.302 30.5028 426.58 31.8835 427.586 33.571C428.591 35.2585 429.094 37.3295 429.094 39.784C429.094 42.6136 428.353 45.1704 426.87 47.4545C425.404 49.7386 423.256 51.5539 420.426 52.9005C417.614 54.2471 414.196 54.9204 410.174 54.9204C406.424 54.9204 403.176 54.3153 400.432 53.1051C397.705 51.8948 395.557 50.2073 393.989 48.0426C392.438 45.8778 391.56 43.3636 391.355 40.5H397.901C398.071 42.4772 398.736 44.1136 399.895 45.409C401.071 46.6875 402.554 47.642 404.344 48.2727C406.151 48.8863 408.094 49.1931 410.174 49.1931C412.594 49.1931 414.767 48.8011 416.694 48.017C418.62 47.2159 420.145 46.1079 421.27 44.6931C422.395 43.2613 422.958 41.5909 422.958 39.6818C422.958 37.9431 422.472 36.5284 421.5 35.4375C420.529 34.3465 419.25 33.4602 417.665 32.7784C416.08 32.0965 414.367 31.5 412.526 30.9886L406.083 29.1477C401.992 27.9715 398.753 26.2926 396.367 24.1108C393.98 21.9289 392.787 19.0738 392.787 15.5454C392.787 12.6136 393.58 10.0568 395.165 7.87496C396.767 5.67609 398.915 3.97155 401.608 2.76132C404.319 1.53405 407.344 0.92041 410.685 0.92041C414.06 0.92041 417.06 1.52552 419.685 2.73575C422.31 3.92893 424.39 5.5653 425.924 7.64484C427.475 9.72439 428.293 12.0852 428.378 14.7272H422.242Z" fill="white"/>
<path d="M459.77 1.63632H467.338L485.133 45.1022H485.747L503.542 1.63632H511.11V54H505.179V14.2159H504.667L488.304 54H482.576L466.213 14.2159H465.701V54H459.77V1.63632Z" fill="white"/>
<path d="M525.972 54H519.324L538.552 1.63632H545.097L564.324 54H557.677L542.029 9.92041H541.62L525.972 54ZM528.427 33.5454H555.222V39.1704H528.427V33.5454Z" fill="white"/>
<path d="M572.48 54V1.63632H578.821V27.6136H579.435L602.958 1.63632H611.242L589.253 25.2613L611.242 54H603.571L585.367 29.659L578.821 37.0227V54H572.48Z" fill="white"/>
<path d="M619.449 54V1.63632H651.052V7.26132H625.79V24.9545H649.415V30.5795H625.79V48.375H651.461V54H619.449Z" fill="white"/>
<path d="M711.367 14.7272C711.06 12.1363 709.816 10.125 707.634 8.69314C705.452 7.26132 702.776 6.54541 699.605 6.54541C697.287 6.54541 695.259 6.92041 693.52 7.67041C691.799 8.42041 690.452 9.45166 689.48 10.7642C688.526 12.0767 688.049 13.5681 688.049 15.2386C688.049 16.6363 688.381 17.838 689.046 18.8437C689.728 19.8323 690.597 20.659 691.654 21.3238C692.711 21.9715 693.819 22.5085 694.978 22.9346C696.137 23.3437 697.202 23.6761 698.174 23.9318L703.492 25.3636C704.855 25.7215 706.373 26.2159 708.043 26.8465C709.73 27.4772 711.341 28.338 712.875 29.4289C714.427 30.5028 715.705 31.8835 716.711 33.571C717.716 35.2585 718.219 37.3295 718.219 39.784C718.219 42.6136 717.478 45.1704 715.995 47.4545C714.529 49.7386 712.381 51.5539 709.552 52.9005C706.739 54.2471 703.321 54.9204 699.299 54.9204C695.549 54.9204 692.302 54.3153 689.557 53.1051C686.83 51.8948 684.682 50.2073 683.114 48.0426C681.563 45.8778 680.685 43.3636 680.48 40.5H687.026C687.196 42.4772 687.861 44.1136 689.02 45.409C690.196 46.6875 691.679 47.642 693.469 48.2727C695.276 48.8863 697.219 49.1931 699.299 49.1931C701.719 49.1931 703.892 48.8011 705.819 48.017C707.745 47.2159 709.27 46.1079 710.395 44.6931C711.52 43.2613 712.083 41.5909 712.083 39.6818C712.083 37.9431 711.597 36.5284 710.625 35.4375C709.654 34.3465 708.375 33.4602 706.79 32.7784C705.205 32.0965 703.492 31.5 701.651 30.9886L695.208 29.1477C691.117 27.9715 687.878 26.2926 685.492 24.1108C683.105 21.9289 681.912 19.0738 681.912 15.5454C681.912 12.6136 682.705 10.0568 684.29 7.87496C685.892 5.67609 688.04 3.97155 690.733 2.76132C693.444 1.53405 696.469 0.92041 699.81 0.92041C703.185 0.92041 706.185 1.52552 708.81 2.73575C711.435 3.92893 713.515 5.5653 715.049 7.64484C716.6 9.72439 717.418 12.0852 717.503 14.7272H711.367Z" fill="white"/>
<path d="M728.645 54V1.63632H760.247V7.26132H734.985V24.9545H758.61V30.5795H734.985V48.375H760.656V54H728.645Z" fill="white"/>
<path d="M813.198 1.63632V54H807.062L778.528 12.8863H778.017V54H771.676V1.63632H777.812L806.448 42.8522H806.96V1.63632H813.198Z" fill="white"/>
<path d="M854.523 14.7272C854.216 12.1363 852.972 10.125 850.79 8.69314C848.608 7.26132 845.932 6.54541 842.762 6.54541C840.444 6.54541 838.415 6.92041 836.677 7.67041C834.955 8.42041 833.608 9.45166 832.637 10.7642C831.682 12.0767 831.205 13.5681 831.205 15.2386C831.205 16.6363 831.537 17.838 832.202 18.8437C832.884 19.8323 833.753 20.659 834.81 21.3238C835.867 21.9715 836.975 22.5085 838.134 22.9346C839.293 23.3437 840.358 23.6761 841.33 23.9318L846.648 25.3636C848.012 25.7215 849.529 26.2159 851.199 26.8465C852.887 27.4772 854.498 28.338 856.032 29.4289C857.583 30.5028 858.861 31.8835 859.867 33.571C860.873 35.2585 861.375 37.3295 861.375 39.784C861.375 42.6136 860.634 45.1704 859.151 47.4545C857.685 49.7386 855.537 51.5539 852.708 52.9005C849.895 54.2471 846.478 54.9204 842.455 54.9204C838.705 54.9204 835.458 54.3153 832.713 53.1051C829.986 51.8948 827.838 50.2073 826.27 48.0426C824.719 45.8778 823.841 43.3636 823.637 40.5H830.182C830.353 42.4772 831.017 44.1136 832.177 45.409C833.353 46.6875 834.836 47.642 836.625 48.2727C838.432 48.8863 840.375 49.1931 842.455 49.1931C844.875 49.1931 847.049 48.8011 848.975 48.017C850.901 47.2159 852.427 46.1079 853.552 44.6931C854.677 43.2613 855.239 41.5909 855.239 39.6818C855.239 37.9431 854.753 36.5284 853.782 35.4375C852.81 34.3465 851.532 33.4602 849.946 32.7784C848.361 32.0965 846.648 31.5 844.807 30.9886L838.364 29.1477C834.273 27.9715 831.034 26.2926 828.648 24.1108C826.262 21.9289 825.069 19.0738 825.069 15.5454C825.069 12.6136 825.861 10.0568 827.446 7.87496C829.049 5.67609 831.196 3.97155 833.89 2.76132C836.6 1.53405 839.625 0.92041 842.966 0.92041C846.341 0.92041 849.341 1.52552 851.966 2.73575C854.591 3.92893 856.671 5.5653 858.205 7.64484C859.756 9.72439 860.574 12.0852 860.659 14.7272H854.523Z" fill="white"/>
<path d="M871.801 54V1.63632H903.403V7.26132H878.142V24.9545H901.767V30.5795H878.142V48.375H903.812V54H871.801Z" fill="white"/>
<path d="M234.05 141L219.732 88.6363H226.175L237.119 131.284H237.63L248.778 88.6363H255.937L267.085 131.284H267.596L278.539 88.6363H284.982L270.664 141H264.119L252.562 99.2727H252.153L240.596 141H234.05Z" fill="white"/>
<path d="M299.224 88.6363V141H292.883V88.6363H299.224Z" fill="white"/>
<path d="M309.074 94.2613V88.6363H348.347V94.2613H331.881V141H325.54V94.2613H309.074Z" fill="white"/>
<path d="M358.133 141V88.6363H364.474V111.955H392.394V88.6363H398.735V141H392.394V117.58H364.474V141H358.133Z" fill="white"/>
<path d="M467.475 105C466.913 103.278 466.171 101.736 465.251 100.372C464.347 98.9914 463.265 97.8153 462.004 96.8437C460.759 95.8721 459.344 95.1306 457.759 94.6193C456.174 94.1079 454.435 93.8522 452.543 93.8522C449.441 93.8522 446.62 94.6534 444.08 96.2556C441.54 97.8579 439.521 100.219 438.021 103.338C436.521 106.457 435.771 110.284 435.771 114.818C435.771 119.352 436.529 123.179 438.046 126.298C439.563 129.418 441.617 131.778 444.208 133.381C446.799 134.983 449.714 135.784 452.952 135.784C455.952 135.784 458.594 135.145 460.879 133.866C463.18 132.571 464.969 130.747 466.248 128.395C467.543 126.026 468.191 123.239 468.191 120.034L470.134 120.443H454.384V114.818H474.327V120.443C474.327 124.756 473.407 128.506 471.566 131.693C469.742 134.881 467.219 137.352 463.998 139.108C460.793 140.847 457.112 141.716 452.952 141.716C448.316 141.716 444.242 140.625 440.731 138.443C437.237 136.261 434.509 133.159 432.549 129.136C430.606 125.114 429.634 120.341 429.634 114.818C429.634 110.676 430.188 106.952 431.296 103.645C432.421 100.321 434.006 97.4914 436.052 95.1562C438.097 92.821 440.518 91.0312 443.313 89.7869C446.109 88.5426 449.185 87.9204 452.543 87.9204C455.305 87.9204 457.879 88.338 460.265 89.1732C462.668 89.9914 464.808 91.159 466.683 92.6761C468.575 94.1761 470.151 95.9744 471.413 98.071C472.674 100.151 473.543 102.46 474.021 105H467.475Z" fill="white"/>
<path d="M485.188 141V88.6363H516.79V94.2613H491.528V111.955H515.153V117.58H491.528V135.375H517.199V141H485.188Z" fill="white"/>
<path d="M534.56 88.6363V141H528.219V88.6363H534.56Z" fill="white"/>
<path d="M575.91 101.727C575.603 99.1363 574.359 97.125 572.177 95.6931C569.995 94.2613 567.319 93.5454 564.148 93.5454C561.83 93.5454 559.802 93.9204 558.063 94.6704C556.342 95.4204 554.995 96.4517 554.023 97.7642C553.069 99.0767 552.592 100.568 552.592 102.239C552.592 103.636 552.924 104.838 553.589 105.844C554.271 106.832 555.14 107.659 556.197 108.324C557.254 108.972 558.361 109.508 559.521 109.935C560.68 110.344 561.745 110.676 562.717 110.932L568.035 112.364C569.398 112.722 570.915 113.216 572.586 113.847C574.273 114.477 575.884 115.338 577.418 116.429C578.969 117.503 580.248 118.883 581.254 120.571C582.259 122.258 582.762 124.33 582.762 126.784C582.762 129.614 582.021 132.17 580.538 134.454C579.072 136.739 576.924 138.554 574.094 139.901C571.282 141.247 567.864 141.92 563.842 141.92C560.092 141.92 556.844 141.315 554.1 140.105C551.373 138.895 549.225 137.207 547.657 135.043C546.106 132.878 545.228 130.364 545.023 127.5H551.569C551.739 129.477 552.404 131.114 553.563 132.409C554.739 133.687 556.222 134.642 558.012 135.273C559.819 135.886 561.762 136.193 563.842 136.193C566.262 136.193 568.435 135.801 570.362 135.017C572.288 134.216 573.813 133.108 574.938 131.693C576.063 130.261 576.626 128.591 576.626 126.682C576.626 124.943 576.14 123.528 575.168 122.437C574.197 121.347 572.918 120.46 571.333 119.778C569.748 119.097 568.035 118.5 566.194 117.989L559.751 116.148C555.66 114.972 552.421 113.293 550.035 111.111C547.648 108.929 546.455 106.074 546.455 102.545C546.455 99.6136 547.248 97.0568 548.833 94.875C550.435 92.6761 552.583 90.9715 555.276 89.7613C557.987 88.534 561.012 87.9204 564.353 87.9204C567.728 87.9204 570.728 88.5255 573.353 89.7357C575.978 90.9289 578.058 92.5653 579.592 94.6448C581.143 96.7244 581.961 99.0852 582.046 101.727H575.91Z" fill="white"/>
<path d="M593.188 141V88.6363H599.528V111.955H627.449V88.6363H633.79V141H627.449V117.58H599.528V141H593.188Z" fill="white"/>
<path d="M648.632 141H641.984L661.212 88.6363H667.757L686.984 141H680.337L664.689 96.9204H664.28L648.632 141ZM651.087 120.545H677.882V126.17H651.087V120.545Z" fill="white"/>
</svg>
