<svg width="362" height="433" viewBox="0 0 362 433" fill="none" xmlns="http://www.w3.org/2000/svg">
<path d="M130.32 7.51777C79.64 27.8626 36.924 84.5375 36.2 132.493C36.2 179.722 71.676 232.764 118.736 253.835L146.248 266.914L115.116 272C38.372 283.626 0 312.69 0 358.466C0 428.22 89.052 453.651 155.66 402.789L177.38 386.803L202.72 404.242C216.476 413.688 239.644 424.587 254.124 428.946C307.7 445.658 362 408.601 362 356.286C362 323.589 348.244 302.518 319.284 290.165C284.532 276.36 253.4 286.532 177.38 337.395C118.012 377.358 102.808 384.624 76.02 384.624C41.268 384.624 21.72 370.818 21.72 347.567C21.72 308.33 55.024 291.619 162.9 274.907C251.228 261.828 301.184 229.858 319.284 176.089C327.248 150.658 325.076 102.702 314.94 77.2715C310.596 67.099 312.768 64.9192 326.524 66.3724C341.004 68.5522 343.9 64.9192 346.072 44.5744C348.244 22.0498 338.832 13.3306 329.42 28.5892C322.18 40.9414 293.22 36.5818 251.952 17.6902C211.408 -1.20144 162.9 -5.56105 130.32 7.51777ZM220.096 21.3232C258.468 35.8552 281.636 103.429 271.5 171.73C257.744 266.188 147.696 285.079 103.532 200.794C87.604 169.55 87.604 98.3429 104.98 62.7394C125.252 19.87 172.312 2.43156 220.096 21.3232ZM310.596 323.589C348.968 372.998 309.148 431.126 248.332 414.414C222.992 407.148 188.24 380.991 188.24 368.638C188.24 365.732 199.824 349.747 214.304 333.762C236.024 309.784 245.436 304.697 267.88 304.697C289.6 304.697 299.012 309.057 310.596 323.589Z" fill="#FFEDED"/>
</svg>
