<svg width="180" height="63" viewBox="0 0 180 63" fill="none" xmlns="http://www.w3.org/2000/svg">
<path d="M124.218 1.53571C118.757 4.60605 118.393 5.99502 117.956 25.1481C117.592 40.4998 117.446 42.2543 116.209 43.6433L114.825 45.1785H119.776C124.655 45.1785 124.728 45.1785 123.49 43.7895C122.325 42.5467 122.179 41.1578 122.471 33.3357C122.689 25.7329 122.98 23.8323 124.364 21.2005C127.349 15.4985 134.412 14.4019 138.781 18.9343C140.892 21.1274 140.892 21.1274 141.256 32.9702L141.62 44.8129L144.824 45.0323C147.955 45.2516 147.955 45.2516 146.79 43.5702C145.989 42.4736 145.625 40.2805 145.625 36.4061C145.552 33.4088 145.261 28.5109 144.97 25.5867C144.46 21.2005 143.95 19.8116 142.276 18.0571C141.183 16.8874 139.217 15.7178 137.834 15.4985C136.523 15.2792 135.431 14.9136 135.431 14.7674C135.431 14.6212 136.232 13.744 137.251 12.7205C138.562 11.4047 139.072 10.0888 139.072 8.11502C138.999 1.3895 130.844 -2.26567 124.218 1.53571ZM134.776 3.72881C139.727 7.01847 137.98 12.6474 131.499 14.475C127.495 15.5716 124.728 17.3992 122.907 20.0309L121.524 22.1509L121.742 14.8405C122.034 6.72605 122.907 4.60605 126.33 3.07088C129.533 1.68192 132.009 1.82812 134.776 3.72881Z" fill="url(#paint0_linear_438_156)"/>
<path d="M75.9435 8.4074C74.6328 8.84602 74.7785 11.9164 76.0163 12.9398C77.3997 14.1095 80.0938 12.7936 80.0938 10.966C80.0938 8.62671 78.2007 7.45705 75.9435 8.4074Z" fill="url(#paint1_radial_438_156)"/>
<path d="M49.9493 14.475C41.3574 17.1067 36.3334 27.4143 39.6827 35.5287C43.469 44.4474 55.1918 48.5412 63.1284 43.6432C69.6087 39.6225 69.1718 30.1922 62.3274 27.195C60.0702 26.2446 60.1431 26.2446 64.2934 26.1715C68.2253 26.1715 68.4437 26.0984 68.4437 24.3439C68.4437 17.1798 58.5412 11.9163 49.9493 14.475ZM60.4343 17.1798C61.8906 18.4956 62.8371 20.177 63.1284 21.9315L63.5653 24.7094H55.2646C50.6774 24.7094 46.5271 24.417 46.0174 24.0515C45.4349 23.686 45.2165 22.8088 45.5077 21.7122C46.5271 17.6915 50.0221 15.206 54.7549 15.206C57.5218 15.206 58.6868 15.6446 60.4343 17.1798ZM61.3809 28.2184C68.1524 31.2156 68.5893 38.4529 62.2546 42.035C56.3568 45.3977 49.5124 43.5701 46.7456 38.0874C45.2165 35.0901 44.0515 27.4874 44.9981 26.537C46.0174 25.4405 57.8131 26.6832 61.3809 28.2184Z" fill="url(#paint2_linear_438_156)"/>
<path d="M94.4378 14.6212C90.3603 15.7177 87.375 19.0805 87.375 22.5163C87.375 26.3177 89.6322 28.8763 94.6563 30.5577C96.8406 31.2887 98.7338 32.2391 98.8794 32.6046C98.9522 32.9701 96.695 35.4556 93.7825 38.1605C90.2147 41.4501 88.7584 43.2046 89.2681 43.7163C89.705 44.155 92.035 44.8129 94.5106 45.2515C102.156 46.6405 109.364 43.9356 111.767 38.8915C114.316 33.4087 111.33 28.8032 104.559 27.926C102.666 27.6336 101.064 27.195 100.845 26.9025C100.7 26.6832 102.666 24.3439 105.214 21.7853C107.835 19.1536 109.947 16.8143 109.947 16.5218C109.947 15.7177 102.666 13.7439 99.8259 13.817C98.3697 13.8901 95.9669 14.2556 94.4378 14.6212ZM105.505 16.0101C106.816 16.4487 107.763 17.1067 107.617 17.326C107.471 17.6184 105.214 19.9577 102.52 22.4432L97.6416 26.9756L95.0931 25.8791C90.6516 24.0515 90.87 18.4956 95.3844 16.1563C97.6416 14.9867 102.447 14.9136 105.505 16.0101ZM106.161 33.9205C107.763 35.017 108.272 37.8681 107.326 40.4267C106.233 43.2046 97.5688 44.9591 92.5447 43.3508C90.9428 42.8391 91.0884 42.6198 95.8213 37.795C101.137 32.4584 103.03 31.7274 106.161 33.9205Z" fill="url(#paint3_linear_438_156)"/>
<path d="M161.134 14.5482C156.474 15.9372 154.217 22.0779 156.984 26.0255C158.003 27.5607 158.003 27.7069 156.328 28.2917C153.27 29.4613 150.722 33.2627 150.722 36.6255C150.794 41.4503 154.144 44.6669 160.26 45.5441C164.629 46.202 169.216 44.8862 171.036 42.4738C172.347 40.8655 172.565 40.7924 172.565 42.0351C172.565 44.1551 174.022 45.1786 177.225 45.1786C179.92 45.1786 179.992 45.1055 178.682 44.1551C177.444 43.2048 177.225 41.8889 176.934 32.2393C176.716 26.2448 176.206 20.762 175.696 19.9579C174.022 17.0338 171.328 15.2062 167.541 14.4751C165.357 14.1096 163.238 14.0272 163.238 14.0272C163.238 14.0272 162.608 14.0272 161.134 14.5482ZM169.435 17.18C171.109 18.2765 172.565 21.6393 172.565 24.3441C172.565 25.9524 172.129 26.0255 165.94 26.5372C160.042 26.9758 159.241 26.9027 158.367 25.7331C157.275 24.271 156.984 20.5427 157.712 18.4958C158.877 15.4255 165.575 14.6944 169.435 17.18ZM172.201 33.1165C172.201 39.4765 170.381 42.5469 166.012 43.7165C160.479 45.1786 155.819 41.6696 155.819 35.9675C155.819 32.02 158.367 29.3151 162.59 28.8034C164.265 28.5841 166.449 28.2186 167.469 28.0724C171.983 27.3413 172.201 27.5607 172.201 33.1165Z" fill="url(#paint4_linear_438_156)"/>
<path d="M13.1062 15.2791C8.00937 17.326 3.71344 23.028 3.64062 27.8528C3.64062 32.6046 7.20844 37.9411 11.9412 40.0611L14.7081 41.377L11.5772 41.8887C3.85906 43.0584 0 45.9825 0 50.588C0 57.606 8.95594 60.1646 15.6547 55.0473L17.8391 53.4391L20.3875 55.1935C21.7709 56.1439 24.1009 57.2404 25.5572 57.6791C30.9453 59.3604 36.4062 55.6322 36.4062 50.3687C36.4062 47.0791 35.0228 44.9591 32.1103 43.7163C28.6153 42.3273 25.4844 43.3508 17.8391 48.468C11.8684 52.4887 10.3394 53.2197 7.64531 53.2197C4.15031 53.2197 2.18437 51.8308 2.18437 49.4915C2.18437 45.5439 5.53375 43.8625 16.3828 42.1811C25.2659 40.8653 30.29 37.6487 32.1103 32.2391C32.9112 29.6804 32.6928 24.8556 31.6734 22.297C31.2366 21.2735 31.455 21.0542 32.8384 21.2004C34.2947 21.4197 34.5859 21.0542 34.8044 19.0073C35.0228 16.7411 34.0762 15.8639 33.1297 17.3991C32.4016 18.6418 29.4891 18.2032 25.3387 16.3025C21.2612 14.4018 16.3828 13.9632 13.1062 15.2791ZM22.135 16.668C25.9941 18.1301 28.3241 24.9287 27.3047 31.8004C25.9212 41.3039 14.8537 43.2046 10.4122 34.7246C8.81031 31.5811 8.81031 24.417 10.5578 20.8349C12.5966 16.5218 17.3294 14.7673 22.135 16.668ZM31.2366 47.0791C35.0956 52.0501 31.0909 57.8984 24.9747 56.217C22.4262 55.486 18.9312 52.8542 18.9312 51.6115C18.9312 51.3191 20.0962 49.7108 21.5525 48.1025C23.7369 45.6901 24.6834 45.1784 26.9406 45.1784C29.125 45.1784 30.0716 45.617 31.2366 47.0791Z" fill="url(#paint5_linear_438_156)"/>
<path d="M74.123 17.253C75.7249 18.3495 76.453 22.6626 76.453 31.435C76.453 39.7688 75.7977 43.4971 74.0502 44.5936C73.5405 44.8861 75.4336 45.1785 78.2005 45.1785C83.1518 45.1785 83.2246 45.1785 81.9868 43.7895C80.8946 42.6198 80.6033 40.2805 80.3121 29.5343L79.8752 16.6681H76.5258C74.5599 16.6681 73.5405 16.9605 74.123 17.253Z" fill="url(#paint6_linear_438_156)"/>
<ellipse cx="89.9341" cy="60.3281" rx="2.24759" ry="2.25532" fill="url(#paint7_linear_438_156)"/>
<defs>
<linearGradient id="paint0_linear_438_156" x1="131" y1="48" x2="133" y2="4.5" gradientUnits="userSpaceOnUse">
<stop stop-color="#F00000"/>
<stop offset="1" stop-color="#FD9500"/>
</linearGradient>
<radialGradient id="paint1_radial_438_156" cx="0" cy="0" r="1" gradientUnits="userSpaceOnUse" gradientTransform="translate(77.5581 10.7295) rotate(-90) scale(2.65326 2.53566)">
<stop offset="0.253125" stop-color="#FD9500"/>
<stop offset="1" stop-color="#FF2B00"/>
</radialGradient>
<linearGradient id="paint2_linear_438_156" x1="53.5397" y1="45.7375" x2="53.5397" y2="13.8186" gradientUnits="userSpaceOnUse">
<stop stop-color="#F22D01"/>
<stop offset="1" stop-color="#FD9902"/>
</linearGradient>
<linearGradient id="paint3_linear_438_156" x1="100.022" y1="45.614" x2="100.022" y2="13.815" gradientUnits="userSpaceOnUse">
<stop stop-color="#F12A00"/>
<stop offset="1" stop-color="#FFAF02"/>
</linearGradient>
<linearGradient id="paint4_linear_438_156" x1="165.116" y1="45.7129" x2="165.116" y2="14.0272" gradientUnits="userSpaceOnUse">
<stop stop-color="#DE0000"/>
<stop offset="0.596875" stop-color="#FD9500"/>
</linearGradient>
<linearGradient id="paint5_linear_438_156" x1="21" y1="15" x2="19" y2="56" gradientUnits="userSpaceOnUse">
<stop stop-color="#FE9A02"/>
<stop offset="1" stop-color="#FF1800"/>
</linearGradient>
<linearGradient id="paint6_linear_438_156" x1="78.3079" y1="45.1785" x2="78.3079" y2="16.6681" gradientUnits="userSpaceOnUse">
<stop stop-color="#F13101"/>
<stop offset="1" stop-color="#FEA101"/>
</linearGradient>
<linearGradient id="paint7_linear_438_156" x1="89.9341" y1="58.0728" x2="89.9341" y2="62.5834" gradientUnits="userSpaceOnUse">
<stop stop-color="#DE0000"/>
<stop offset="1" stop-color="#FF5C00"/>
</linearGradient>
</defs>
</svg>
