<svg width="117" height="38" viewBox="0 0 117 38" fill="none" xmlns="http://www.w3.org/2000/svg">
<path d="M80.9617 0.999571C77.4025 3.00071 77.1652 3.90599 76.8805 16.3893C76.6432 26.395 76.5483 27.5385 75.7415 28.4438L74.8398 29.4443H78.0669C81.2465 29.4443 81.2939 29.4443 80.4872 28.5391C79.7279 27.7291 79.633 26.8238 79.8228 21.7257C79.9651 16.7705 80.155 15.5317 81.0567 13.8164C83.0024 10.1 87.6057 9.3853 90.453 12.3394C91.8293 13.7687 91.8293 13.7687 92.0666 21.4874L92.3038 29.2061L94.3919 29.349C96.4326 29.492 96.4326 29.492 95.6733 28.3961C95.1512 27.6814 94.914 26.252 94.914 23.7268C94.8665 21.7733 94.6767 18.581 94.4868 16.6752C94.1547 13.8164 93.8225 12.9111 92.731 11.7676C92.0191 11.0053 90.7378 10.2429 89.8361 10.1C88.9819 9.95705 88.27 9.71882 88.27 9.62353C88.27 9.52824 88.7921 8.95648 89.4565 8.28944C90.3107 7.4318 90.6429 6.57417 90.6429 5.28773C90.5954 0.904279 85.2803 -1.47803 80.9617 0.999571ZM87.8429 2.42896C91.07 4.57303 89.931 8.24179 85.7074 9.43294C83.0973 10.1476 81.2939 11.3388 80.1075 13.0541L79.2058 14.4358L79.3482 9.67117C79.538 4.38245 80.1075 3.00071 82.338 2.00014C84.4261 1.09486 86.0396 1.19016 87.8429 2.42896Z" fill="url(#paint0_linear_509_103)"/>
<path d="M49.4968 5.47791C48.6425 5.76378 48.7375 7.76492 49.5442 8.43197C50.4459 9.19431 52.2018 8.33668 52.2018 7.14552C52.2018 5.62085 50.9679 4.85851 49.4968 5.47791Z" fill="url(#paint1_linear_509_103)"/>
<path d="M32.5535 9.43277C26.9536 11.148 23.6791 17.8661 25.8621 23.1549C28.3298 28.9677 35.9703 31.6359 41.1431 28.4436C45.3667 25.8231 45.082 19.6767 40.6211 17.7232C39.1499 17.1038 39.1974 17.1038 41.9024 17.0562C44.4651 17.0562 44.6074 17.0085 44.6074 15.865C44.6074 11.1957 38.1533 7.76516 32.5535 9.43277ZM39.3872 11.1957C40.3363 12.0533 40.9533 13.1492 41.1431 14.2927L41.4278 16.1032H36.0178C33.028 16.1032 30.323 15.9127 29.9908 15.6744C29.6112 15.4362 29.4688 14.8644 29.6586 14.1497C30.323 11.5292 32.6009 9.90923 35.6856 9.90923C37.4889 9.90923 38.2482 10.1951 39.3872 11.1957ZM40.0041 18.3903C44.4176 20.3437 44.7023 25.0607 40.5736 27.3954C36.7296 29.5871 32.2687 28.3959 30.4654 24.8225C29.4688 22.869 28.7095 17.9138 29.3264 17.2944C29.9908 16.5797 37.6788 17.3897 40.0041 18.3903Z" fill="url(#paint2_linear_509_103)"/>
<path d="M61.5506 9.52752C58.893 10.2422 56.9473 12.4339 56.9473 14.6733C56.9473 17.1509 58.4184 18.8185 61.6929 19.9144C63.1166 20.3908 64.3505 21.0102 64.4454 21.2485C64.4929 21.4867 63.0217 23.1067 61.1234 24.8696C58.7981 27.0137 57.8489 28.1572 58.1811 28.4907C58.4659 28.7766 59.9845 29.2054 61.598 29.4913C66.5809 30.3965 71.2791 28.6336 72.8452 25.3461C74.5062 21.7726 72.5605 18.7709 68.147 18.1991C66.9131 18.0085 65.8691 17.7227 65.7267 17.5321C65.6318 17.3891 66.9131 15.8645 68.5741 14.1968C70.2826 12.4816 71.6588 10.9569 71.6588 10.7663C71.6588 10.2422 66.9131 8.95577 65.0623 9.00341C64.1132 9.05106 62.5471 9.28929 61.5506 9.52752ZM68.7639 10.4328C69.6182 10.7187 70.2351 11.1475 70.1402 11.2904C70.0453 11.481 68.5741 13.0057 66.8182 14.6257L63.6386 17.5797L61.9777 16.865C59.0828 15.6739 59.2252 12.0528 62.1675 10.5281C63.6386 9.76575 66.7708 9.71811 68.7639 10.4328ZM69.1911 22.1061C70.2351 22.8208 70.5673 24.679 69.9504 26.3466C69.2385 28.1572 63.5912 29.3007 60.3167 28.2525C59.2726 27.9189 59.3675 27.776 62.4522 24.6314C65.9166 21.1532 67.1504 20.6767 69.1911 22.1061Z" fill="url(#paint3_linear_509_103)"/>
<path d="M105.023 9.48098C101.985 10.3863 100.514 14.3885 102.318 16.9614C102.982 17.962 102.982 18.0573 101.89 18.4385C99.8973 19.2008 98.2363 21.6784 98.2363 23.8701C98.2838 27.0148 100.467 29.1112 104.453 29.683C107.301 30.1118 110.29 29.2541 111.477 27.6818C112.331 26.6336 112.473 26.586 112.473 27.3959C112.473 28.7777 113.422 29.4447 115.511 29.4447C117.266 29.4447 117.314 29.3971 116.46 28.7777C115.653 28.1583 115.511 27.3006 115.321 21.0114C115.178 17.1044 114.846 13.5309 114.514 13.0068C113.422 11.1009 111.667 9.90979 109.199 9.43333C107.775 9.1951 106.394 9.14142 106.394 9.14142C106.394 9.14142 105.983 9.14142 105.023 9.48098ZM110.433 11.1962C111.524 11.9109 112.473 14.1027 112.473 15.8656C112.473 16.9138 112.189 16.9614 108.155 17.295C104.311 17.5808 103.789 17.5332 103.219 16.7708C102.507 15.8179 102.318 13.388 102.792 12.0539C103.551 10.0527 107.917 9.57627 110.433 11.1962ZM112.236 21.5831C112.236 25.7283 111.05 27.7295 108.202 28.4918C104.596 29.4447 101.558 27.1577 101.558 23.4413C101.558 20.8684 103.219 19.1055 105.972 18.772C107.063 18.629 108.487 18.3908 109.151 18.2955C112.094 17.8191 112.236 17.962 112.236 21.5831Z" fill="url(#paint4_linear_509_103)"/>
<path d="M8.54218 9.95681C5.22022 11.2909 2.42028 15.0073 2.37283 18.152C2.37283 21.249 4.6982 24.7271 7.78287 26.1089L9.58622 26.9665L7.54559 27.3C2.5152 28.0624 0 29.9682 0 32.9699C0 37.544 5.83715 39.2116 10.2032 35.8763L11.6269 34.8281L13.2878 35.9716C14.1895 36.591 15.7081 37.3057 16.6572 37.5916C20.169 38.6875 23.7283 36.2575 23.7283 32.827C23.7283 30.6829 22.8266 29.3012 20.9283 28.4912C18.6504 27.5859 16.6098 28.2529 11.6269 31.5882C7.73542 34.2087 6.73883 34.6852 4.98294 34.6852C2.70502 34.6852 1.4237 33.7799 1.4237 32.2552C1.4237 29.6823 3.6067 28.5865 10.6777 27.4906C16.4674 26.633 19.7419 24.5365 20.9283 21.0107C21.4504 19.3431 21.308 16.1985 20.6436 14.5308C20.3589 13.8638 20.5012 13.7209 21.4029 13.8162C22.352 13.9591 22.5419 13.7209 22.6842 12.3868C22.8266 10.9097 22.2097 10.338 21.5927 11.3386C21.1182 12.1485 19.2199 11.8627 16.5149 10.6239C13.8573 9.38506 10.6777 9.09918 8.54218 9.95681ZM14.4268 10.8621C16.942 11.815 18.4606 16.2461 17.7962 20.7248C16.8945 26.9189 9.68113 28.1577 6.78629 22.6307C5.74224 20.5819 5.74224 15.9126 6.8812 13.5779C8.20998 10.7668 11.2947 9.62329 14.4268 10.8621ZM20.3589 30.6829C22.8741 33.9228 20.2639 37.7345 16.2776 36.6387C14.6166 36.1622 12.3387 34.4469 12.3387 33.637C12.3387 33.4464 13.098 32.3982 14.0471 31.3499C15.4708 29.7776 16.0878 29.4441 17.5589 29.4441C18.9826 29.4441 19.5996 29.73 20.3589 30.6829Z" fill="url(#paint5_linear_509_103)"/>
<path d="M48.3113 11.2435C49.3554 11.9582 49.83 14.7693 49.83 20.4869C49.83 25.9185 49.4028 28.3485 48.2639 29.0632C47.9317 29.2538 49.1656 29.4443 50.9689 29.4443C54.196 29.4443 54.2434 29.4443 53.4367 28.5391C52.7248 27.7767 52.535 26.252 52.3452 19.2481L52.0604 10.8623H49.8774C48.5961 10.8623 47.9317 11.0529 48.3113 11.2435Z" fill="url(#paint6_linear_509_103)"/>
<defs>
<linearGradient id="paint0_linear_509_103" x1="85.4897" y1="29.4443" x2="85.4897" y2="-0.00139046" gradientUnits="userSpaceOnUse">
<stop stop-color="#D31217"/>
<stop offset="1" stop-color="#EF6628"/>
</linearGradient>
<linearGradient id="paint1_linear_509_103" x1="50.5491" y1="8.7207" x2="50.5491" y2="5.2621" gradientUnits="userSpaceOnUse">
<stop stop-color="#D31217"/>
<stop offset="1" stop-color="#EF6628"/>
</linearGradient>
<linearGradient id="paint2_linear_509_103" x1="34.8936" y1="29.8086" x2="34.8936" y2="9.00498" gradientUnits="userSpaceOnUse">
<stop stop-color="#D31217"/>
<stop offset="1" stop-color="#EF6628"/>
</linearGradient>
<linearGradient id="paint3_linear_509_103" x1="65.1904" y1="29.7275" x2="65.1904" y2="9.00212" gradientUnits="userSpaceOnUse">
<stop stop-color="#D31217"/>
<stop offset="1" stop-color="#EF6628"/>
</linearGradient>
<linearGradient id="paint4_linear_509_103" x1="107.618" y1="29.793" x2="107.618" y2="9.14142" gradientUnits="userSpaceOnUse">
<stop stop-color="#D31217"/>
<stop offset="1" stop-color="#EF6628"/>
</linearGradient>
<linearGradient id="paint5_linear_509_103" x1="11.8641" y1="37.8574" x2="11.8641" y2="9.46384" gradientUnits="userSpaceOnUse">
<stop stop-color="#D31217"/>
<stop offset="1" stop-color="#EF6628"/>
</linearGradient>
<linearGradient id="paint6_linear_509_103" x1="51.0389" y1="29.4443" x2="51.0389" y2="10.8623" gradientUnits="userSpaceOnUse">
<stop stop-color="#D31217"/>
<stop offset="1" stop-color="#EF6628"/>
</linearGradient>
</defs>
</svg>
