<svg width="1013" height="1013" viewBox="0 0 1013 1013" fill="none" xmlns="http://www.w3.org/2000/svg">
<path d="M247.258 247.265C243.989 250.504 241.393 254.36 239.622 258.608C237.85 262.856 236.938 267.413 236.938 272.016C236.938 276.619 237.85 281.176 239.622 285.425C241.393 289.673 243.989 293.528 247.258 296.768L510.577 510.584L296.762 247.265C293.522 243.995 289.667 241.399 285.418 239.628C281.17 237.857 276.613 236.945 272.01 236.945C267.407 236.945 262.85 237.857 258.602 239.628C254.353 241.399 250.498 243.995 247.258 247.265Z" fill="url(#paint0_radial_478_10)"/>
<path d="M765.478 765.479C768.747 762.239 771.343 758.384 773.114 754.136C774.885 749.887 775.797 745.33 775.797 740.727C775.797 736.125 774.885 731.567 773.114 727.319C771.343 723.071 768.747 719.215 765.478 715.976L502.159 502.16L715.974 765.479C719.214 768.749 723.069 771.344 727.318 773.116C731.566 774.887 736.123 775.799 740.726 775.799C745.329 775.799 749.886 774.887 754.134 773.116C758.383 771.344 762.238 768.749 765.478 765.479Z" fill="url(#paint1_radial_478_10)"/>
<path d="M247.258 765.479C250.498 768.748 254.353 771.344 258.602 773.115C262.85 774.886 267.407 775.798 272.01 775.798C276.613 775.798 281.17 774.886 285.418 773.115C289.667 771.344 293.522 768.748 296.762 765.479L510.577 502.16L247.258 715.975C243.989 719.215 241.393 723.07 239.622 727.319C237.85 731.567 236.938 736.124 236.938 740.727C236.938 745.33 237.85 749.887 239.622 754.135C241.393 758.384 243.989 762.239 247.258 765.479Z" fill="url(#paint2_radial_478_10)"/>
<path d="M765.478 247.264C762.238 243.994 758.383 241.399 754.134 239.628C749.886 237.856 745.329 236.944 740.726 236.944C736.123 236.944 731.566 237.856 727.318 239.628C723.069 241.399 719.214 243.994 715.974 247.264L502.159 510.583L765.478 296.767C768.747 293.528 771.343 289.673 773.114 285.424C774.885 281.176 775.797 276.619 775.797 272.016C775.797 267.413 774.885 262.856 773.114 258.607C771.343 254.359 768.747 250.504 765.478 247.264Z" fill="url(#paint3_radial_478_10)"/>
<path d="M139.929 506.371C139.908 510.974 140.798 515.535 142.55 519.792C144.301 524.048 146.879 527.916 150.134 531.17C153.388 534.425 157.256 537.003 161.512 538.754C165.769 540.506 170.33 541.397 174.933 541.375L512.318 506.371L174.933 471.367C170.33 471.346 165.769 472.236 161.512 473.988C157.256 475.74 153.388 478.317 150.134 481.572C146.879 484.827 144.301 488.694 142.55 492.95C140.798 497.207 139.908 501.768 139.929 506.371Z" fill="url(#paint4_radial_478_10)"/>
<path d="M872.796 506.371C872.818 501.768 871.927 497.207 870.175 492.95C868.424 488.694 865.846 484.827 862.591 481.572C859.337 478.317 855.469 475.74 851.213 473.988C846.956 472.236 842.395 471.346 837.792 471.367L500.407 506.371L837.792 541.375C842.395 541.397 846.956 540.506 851.213 538.754C855.469 537.003 859.337 534.425 862.591 531.17C865.846 527.916 868.424 524.048 870.175 519.792C871.927 515.535 872.818 510.974 872.796 506.371Z" fill="url(#paint5_radial_478_10)"/>
<path d="M506.341 139.929C501.738 139.908 497.177 140.799 492.92 142.55C488.664 144.302 484.796 146.88 481.542 150.134C478.287 153.389 475.709 157.256 473.958 161.513C472.206 165.769 471.315 170.331 471.337 174.933L506.341 512.319L541.345 174.933C541.366 170.331 540.475 165.769 538.724 161.513C536.972 157.256 534.395 153.389 531.14 150.134C527.885 146.88 524.018 144.302 519.762 142.55C515.505 140.799 510.944 139.908 506.341 139.929Z" fill="url(#paint6_radial_478_10)"/>
<path d="M506.341 872.79C510.944 872.812 515.505 871.921 519.762 870.169C524.018 868.418 527.885 865.84 531.14 862.586C534.395 859.331 536.972 855.464 538.724 851.207C540.475 846.95 541.366 842.389 541.345 837.786L506.341 500.401L471.337 837.786C471.315 842.389 472.206 846.95 473.958 851.207C475.709 855.464 478.287 859.331 481.542 862.586C484.796 865.84 488.664 868.418 492.92 870.169C497.177 871.921 501.738 872.812 506.341 872.79Z" fill="url(#paint7_radial_478_10)"/>
<path d="M381.033 162.035C376.7 163.589 372.718 165.986 369.318 169.088C365.917 172.189 363.164 175.934 361.219 180.106C359.274 184.277 358.175 188.793 357.984 193.392C357.794 197.991 358.517 202.582 360.112 206.9L508.397 511.966L425.898 182.956C424.344 178.623 421.946 174.641 418.845 171.241C415.743 167.84 411.998 165.087 407.827 163.142C403.655 161.197 399.139 160.097 394.54 159.907C389.941 159.717 385.35 160.44 381.033 162.035Z" fill="url(#paint8_radial_478_10)"/>
<path d="M631.694 850.709C636.026 849.155 640.008 846.758 643.409 843.656C646.81 840.554 649.562 836.81 651.507 832.638C653.453 828.466 654.552 823.951 654.742 819.352C654.932 814.753 654.209 810.162 652.615 805.844L504.329 500.778L586.829 829.788C588.383 834.121 590.78 838.102 593.882 841.503C596.984 844.904 600.728 847.657 604.9 849.602C609.072 851.547 613.587 852.646 618.186 852.837C622.785 853.027 627.376 852.304 631.694 850.709Z" fill="url(#paint9_radial_478_10)"/>
<path d="M162.036 631.696C163.59 636.029 165.987 640.011 169.089 643.411C172.19 646.812 175.935 649.565 180.107 651.51C184.278 653.455 188.794 654.554 193.393 654.745C197.992 654.935 202.583 654.212 206.901 652.617L511.967 504.332L182.957 586.831C178.624 588.385 174.642 590.783 171.242 593.884C167.841 596.986 165.088 600.731 163.143 604.902C161.198 609.074 160.098 613.59 159.908 618.189C159.718 622.788 160.441 627.379 162.036 631.696Z" fill="url(#paint10_radial_478_10)"/>
<path d="M850.704 381.035C849.15 376.703 846.752 372.721 843.651 369.32C840.549 365.92 836.804 363.167 832.632 361.222C828.461 359.277 823.945 358.177 819.346 357.987C814.747 357.797 810.156 358.52 805.839 360.114L500.772 508.4L829.783 425.9C834.115 424.346 838.097 421.949 841.498 418.847C844.898 415.746 847.651 412.001 849.596 407.829C851.541 403.658 852.641 399.142 852.831 394.543C853.021 389.944 852.298 385.353 850.704 381.035Z" fill="url(#paint11_radial_478_10)"/>
<path d="M174.261 351.504C172.297 355.667 171.176 360.177 170.965 364.775C170.753 369.373 171.455 373.968 173.029 378.293C174.604 382.618 177.019 386.588 180.137 389.975C183.254 393.361 187.012 396.096 191.192 398.022L511.76 508.883L220.779 334.573C216.617 332.609 212.106 331.488 207.508 331.277C202.91 331.065 198.316 331.767 193.991 333.341C189.665 334.916 185.695 337.331 182.309 340.449C178.922 343.566 176.187 347.324 174.261 351.504Z" fill="url(#paint12_radial_478_10)"/>
<path d="M838.465 661.219C840.43 657.056 841.55 652.546 841.762 647.948C841.973 643.35 841.272 638.755 839.697 634.43C838.123 630.105 835.707 626.134 832.59 622.748C829.472 619.362 825.715 616.627 821.534 614.701L500.966 503.84L791.948 678.15C796.11 680.114 800.621 681.235 805.219 681.446C809.816 681.658 814.411 680.956 818.736 679.382C823.061 677.807 827.032 675.392 830.418 672.274C833.804 669.157 836.539 665.399 838.465 661.219Z" fill="url(#paint13_radial_478_10)"/>
<path d="M661.213 174.253C657.05 172.289 652.54 171.168 647.942 170.957C643.344 170.745 638.75 171.447 634.424 173.021C630.099 174.596 626.129 177.011 622.742 180.129C619.356 183.246 616.621 187.004 614.695 191.184L503.835 511.752L678.144 220.771C680.109 216.608 681.229 212.098 681.44 207.5C681.652 202.902 680.95 198.308 679.376 193.982C677.802 189.657 675.386 185.687 672.269 182.3C669.151 178.914 665.394 176.179 661.213 174.253Z" fill="url(#paint14_radial_478_10)"/>
<path d="M351.498 838.451C355.661 840.415 360.171 841.536 364.769 841.747C369.367 841.959 373.962 841.257 378.287 839.683C382.612 838.108 386.583 835.693 389.969 832.575C393.355 829.458 396.09 825.7 398.016 821.52L508.877 500.951L334.567 791.933C332.603 796.095 331.482 800.606 331.271 805.204C331.059 809.802 331.761 814.396 333.335 818.721C334.91 823.047 337.325 827.017 340.443 830.403C343.56 833.79 347.318 836.525 351.498 838.451Z" fill="url(#paint15_radial_478_10)"/>
<defs>
<radialGradient id="paint0_radial_478_10" cx="0" cy="0" r="1" gradientUnits="userSpaceOnUse" gradientTransform="translate(375.957 380.557) rotate(92.7421) scale(93.1914 208.97)">
<stop stop-color="#FD9A01"/>
<stop offset="1" stop-color="#F02601"/>
</radialGradient>
<radialGradient id="paint1_radial_478_10" cx="0" cy="0" r="1" gradientUnits="userSpaceOnUse" gradientTransform="translate(636.779 632.186) rotate(-87.2579) scale(93.1914 208.97)">
<stop stop-color="#FD9A01"/>
<stop offset="1" stop-color="#F02601"/>
</radialGradient>
<radialGradient id="paint2_radial_478_10" cx="0" cy="0" r="1" gradientUnits="userSpaceOnUse" gradientTransform="translate(380.551 636.78) rotate(2.74211) scale(93.1914 208.97)">
<stop stop-color="#FD9A01"/>
<stop offset="1" stop-color="#F02601"/>
</radialGradient>
<radialGradient id="paint3_radial_478_10" cx="0" cy="0" r="1" gradientUnits="userSpaceOnUse" gradientTransform="translate(632.185 375.963) rotate(-177.258) scale(93.1914 208.97)">
<stop stop-color="#FD9A01"/>
<stop offset="1" stop-color="#F02601"/>
</radialGradient>
<radialGradient id="paint4_radial_478_10" cx="0" cy="0" r="1" gradientUnits="userSpaceOnUse" gradientTransform="translate(325.185 509.619) rotate(47.7421) scale(93.1914 208.97)">
<stop stop-color="#FD9A01"/>
<stop offset="1" stop-color="#F02601"/>
</radialGradient>
<radialGradient id="paint5_radial_478_10" cx="0" cy="0" r="1" gradientUnits="userSpaceOnUse" gradientTransform="translate(687.54 503.123) rotate(-132.258) scale(93.1914 208.97)">
<stop stop-color="#FD9A01"/>
<stop offset="1" stop-color="#F02601"/>
</radialGradient>
<radialGradient id="paint6_radial_478_10" cx="0" cy="0" r="1" gradientUnits="userSpaceOnUse" gradientTransform="translate(503.092 325.186) rotate(137.742) scale(93.1914 208.97)">
<stop stop-color="#FD9A01"/>
<stop offset="1" stop-color="#F02601"/>
</radialGradient>
<radialGradient id="paint7_radial_478_10" cx="0" cy="0" r="1" gradientUnits="userSpaceOnUse" gradientTransform="translate(509.589 687.534) rotate(-42.2579) scale(93.1914 208.97)">
<stop stop-color="#FD9A01"/>
<stop offset="1" stop-color="#F02601"/>
</radialGradient>
<radialGradient id="paint8_radial_478_10" cx="0" cy="0" r="1" gradientUnits="userSpaceOnUse" gradientTransform="translate(441.341 337.229) rotate(117.742) scale(93.1914 208.97)">
<stop stop-color="#FD9A01"/>
<stop offset="1" stop-color="#F02601"/>
</radialGradient>
<radialGradient id="paint9_radial_478_10" cx="0" cy="0" r="1" gradientUnits="userSpaceOnUse" gradientTransform="translate(571.385 675.514) rotate(-62.2579) scale(93.1914 208.97)">
<stop stop-color="#FD9A01"/>
<stop offset="1" stop-color="#F02601"/>
</radialGradient>
<radialGradient id="paint10_radial_478_10" cx="0" cy="0" r="1" gradientUnits="userSpaceOnUse" gradientTransform="translate(337.23 571.388) rotate(27.7421) scale(93.1914 208.97)">
<stop stop-color="#FD9A01"/>
<stop offset="1" stop-color="#F02601"/>
</radialGradient>
<radialGradient id="paint11_radial_478_10" cx="0" cy="0" r="1" gradientUnits="userSpaceOnUse" gradientTransform="translate(675.509 441.344) rotate(-152.258) scale(93.1914 208.97)">
<stop stop-color="#FD9A01"/>
<stop offset="1" stop-color="#F02601"/>
</radialGradient>
<radialGradient id="paint12_radial_478_10" cx="0" cy="0" r="1" gradientUnits="userSpaceOnUse" gradientTransform="translate(340.787 432.741) rotate(72.7421) scale(93.1914 208.97)">
<stop stop-color="#FD9A01"/>
<stop offset="1" stop-color="#F02601"/>
</radialGradient>
<radialGradient id="paint13_radial_478_10" cx="0" cy="0" r="1" gradientUnits="userSpaceOnUse" gradientTransform="translate(671.939 579.982) rotate(-107.258) scale(93.1914 208.97)">
<stop stop-color="#FD9A01"/>
<stop offset="1" stop-color="#F02601"/>
</radialGradient>
<radialGradient id="paint14_radial_478_10" cx="0" cy="0" r="1" gradientUnits="userSpaceOnUse" gradientTransform="translate(579.976 340.779) rotate(162.742) scale(93.1914 208.97)">
<stop stop-color="#FD9A01"/>
<stop offset="1" stop-color="#F02601"/>
</radialGradient>
<radialGradient id="paint15_radial_478_10" cx="0" cy="0" r="1" gradientUnits="userSpaceOnUse" gradientTransform="translate(432.735 671.924) rotate(-17.2579) scale(93.1914 208.97)">
<stop stop-color="#FD9A01"/>
<stop offset="1" stop-color="#F02601"/>
</radialGradient>
</defs>
</svg>
