<svg width="1137" height="295" viewBox="0 0 1137 295" fill="none" xmlns="http://www.w3.org/2000/svg">
<path d="M12.8516 37.8799L35.8916 70.9999H45.9716L21.9716 37.8799H12.8516ZM0.851562 3.79994V70.9999H9.01156V3.79994H0.851562ZM5.36356 10.9999H19.0916C21.9716 10.9999 24.4996 11.5119 26.6756 12.5359C28.9156 13.5599 30.6436 15.0319 31.8596 16.9519C33.1396 18.8719 33.7796 21.2079 33.7796 23.9599C33.7796 26.7119 33.1396 29.0479 31.8596 30.9679C30.6436 32.8879 28.9156 34.3599 26.6756 35.3839C24.4996 36.4079 21.9716 36.9199 19.0916 36.9199H5.36356V44.1199H19.0916C23.4436 44.1199 27.3156 43.3199 30.7076 41.7199C34.1636 40.0559 36.8836 37.7199 38.8676 34.7119C40.9156 31.6399 41.9396 28.0559 41.9396 23.9599C41.9396 19.7999 40.9156 16.2159 38.8676 13.2079C36.8836 10.1999 34.1636 7.89594 30.7076 6.29594C27.3156 4.63194 23.4436 3.79994 19.0916 3.79994H5.36356V10.9999Z" fill="white"/>
<path d="M54.0903 3.79994V48.9199C54.0903 52.2479 54.6023 55.3199 55.6263 58.1359C56.7143 60.9519 58.2503 63.3839 60.2343 65.4319C62.2823 67.4799 64.7143 69.0799 67.5303 70.2319C70.3463 71.3839 73.4823 71.9599 76.9383 71.9599C80.3943 71.9599 83.5303 71.3839 86.3463 70.2319C89.1623 69.0799 91.5623 67.4799 93.5463 65.4319C95.5943 63.3839 97.1303 60.9519 98.1543 58.1359C99.2423 55.3199 99.7863 52.2479 99.7863 48.9199V3.79994H91.6263V48.9199C91.6263 53.5279 90.3783 57.2399 87.8823 60.0559C85.3863 62.8719 81.7383 64.2799 76.9383 64.2799C72.1383 64.2799 68.4903 62.8719 65.9943 60.0559C63.4983 57.2399 62.2503 53.5279 62.2503 48.9199V3.79994H54.0903Z" fill="white"/>
<path d="M117.16 50.6479L110.632 55.0639C112.104 58.0079 113.992 60.7919 116.296 63.4159C118.664 65.9759 121.384 68.0559 124.456 69.6559C127.592 71.1919 130.984 71.9599 134.632 71.9599C137.32 71.9599 139.88 71.5119 142.312 70.6159C144.808 69.7199 147.016 68.4399 148.936 66.7759C150.92 65.1119 152.456 63.0959 153.544 60.7279C154.696 58.3599 155.272 55.7039 155.272 52.7599C155.272 49.6879 154.728 47.0639 153.64 44.8879C152.552 42.6479 151.144 40.7599 149.416 39.2239C147.752 37.6239 145.928 36.3119 143.944 35.2879C141.96 34.2639 140.072 33.4319 138.28 32.7919C134.376 31.4479 131.272 30.1039 128.968 28.7599C126.728 27.3519 125.128 25.8799 124.168 24.3439C123.208 22.7439 122.728 21.0159 122.728 19.1599C122.728 16.9839 123.56 15.0319 125.224 13.3039C126.888 11.5119 129.544 10.6159 133.192 10.6159C135.816 10.6159 138.024 11.1279 139.816 12.1519C141.672 13.1759 143.24 14.4879 144.52 16.0879C145.8 17.6879 146.856 19.3199 147.688 20.9839L154.696 16.9519C153.608 14.5839 152.104 12.3439 150.184 10.2319C148.264 8.05594 145.928 6.29594 143.176 4.95194C140.488 3.54394 137.32 2.83994 133.672 2.83994C129.896 2.83994 126.536 3.60794 123.592 5.14394C120.648 6.61594 118.344 8.66394 116.68 11.2879C115.016 13.9119 114.184 16.8879 114.184 20.2159C114.184 23.2879 114.76 25.8799 115.912 27.9919C117.128 30.1039 118.664 31.8959 120.52 33.3679C122.376 34.7759 124.328 35.9599 126.376 36.9199C128.424 37.8159 130.28 38.5519 131.944 39.1279C134.504 40.0239 136.904 41.0479 139.144 42.1999C141.448 43.2879 143.304 44.7279 144.712 46.5199C146.12 48.3119 146.824 50.7119 146.824 53.7199C146.824 56.7919 145.736 59.3199 143.56 61.3039C141.384 63.2879 138.504 64.2799 134.92 64.2799C132.232 64.2799 129.832 63.7039 127.72 62.5519C125.608 61.3999 123.688 59.7999 121.96 57.7519C120.296 55.7039 118.696 53.3359 117.16 50.6479Z" fill="white"/>
<path d="M169.754 50.6479L163.226 55.0639C164.698 58.0079 166.586 60.7919 168.89 63.4159C171.258 65.9759 173.978 68.0559 177.05 69.6559C180.186 71.1919 183.578 71.9599 187.226 71.9599C189.914 71.9599 192.474 71.5119 194.906 70.6159C197.402 69.7199 199.61 68.4399 201.53 66.7759C203.514 65.1119 205.05 63.0959 206.138 60.7279C207.29 58.3599 207.866 55.7039 207.866 52.7599C207.866 49.6879 207.322 47.0639 206.234 44.8879C205.146 42.6479 203.738 40.7599 202.01 39.2239C200.346 37.6239 198.522 36.3119 196.538 35.2879C194.554 34.2639 192.666 33.4319 190.874 32.7919C186.97 31.4479 183.866 30.1039 181.562 28.7599C179.322 27.3519 177.722 25.8799 176.762 24.3439C175.802 22.7439 175.322 21.0159 175.322 19.1599C175.322 16.9839 176.154 15.0319 177.818 13.3039C179.482 11.5119 182.138 10.6159 185.786 10.6159C188.41 10.6159 190.618 11.1279 192.41 12.1519C194.266 13.1759 195.834 14.4879 197.114 16.0879C198.394 17.6879 199.45 19.3199 200.282 20.9839L207.29 16.9519C206.202 14.5839 204.698 12.3439 202.778 10.2319C200.858 8.05594 198.522 6.29594 195.77 4.95194C193.082 3.54394 189.914 2.83994 186.266 2.83994C182.49 2.83994 179.13 3.60794 176.186 5.14394C173.242 6.61594 170.938 8.66394 169.274 11.2879C167.61 13.9119 166.778 16.8879 166.778 20.2159C166.778 23.2879 167.354 25.8799 168.506 27.9919C169.722 30.1039 171.258 31.8959 173.114 33.3679C174.97 34.7759 176.922 35.9599 178.97 36.9199C181.018 37.8159 182.874 38.5519 184.538 39.1279C187.098 40.0239 189.498 41.0479 191.738 42.1999C194.042 43.2879 195.898 44.7279 197.306 46.5199C198.714 48.3119 199.418 50.7119 199.418 53.7199C199.418 56.7919 198.33 59.3199 196.154 61.3039C193.978 63.2879 191.098 64.2799 187.514 64.2799C184.826 64.2799 182.426 63.7039 180.314 62.5519C178.202 61.3999 176.282 59.7999 174.554 57.7519C172.89 55.7039 171.29 53.3359 169.754 50.6479Z" fill="white"/>
<path d="M219.852 3.79994V70.9999H228.012V3.79994H219.852Z" fill="white"/>
<path d="M249.815 50.8399H285.335L282.455 43.1599H252.695L249.815 50.8399ZM267.383 18.9679L278.903 46.0399L279.671 47.9599L289.463 70.9999H298.583L267.383 0.439941L236.183 70.9999H245.303L255.287 47.3839L256.055 45.6559L267.383 18.9679Z" fill="white"/>
<path d="M357.638 3.79994V53.8159L306.758 0.439941V70.9999H314.918V20.9839L365.798 74.3599V3.79994H357.638Z" fill="white"/>
<path d="M409.977 3.79994V70.9999H444.537V63.3199H418.137V3.79994H409.977Z" fill="white"/>
<path d="M453.195 3.79994V70.9999H461.355V3.79994H453.195Z" fill="white"/>
<path d="M527.607 3.79994V53.8159L476.727 0.439941V70.9999H484.887V20.9839L535.767 74.3599V3.79994H527.607Z" fill="white"/>
<path d="M582.364 44.5999H604.732C604.156 47.2239 603.228 49.6879 601.948 51.9919C600.732 54.2959 599.164 56.3439 597.244 58.1359C595.324 59.9279 593.02 61.3359 590.332 62.3599C587.708 63.3199 584.732 63.7999 581.404 63.7999C576.668 63.7999 572.38 62.6799 568.54 60.4399C564.7 58.1999 561.628 55.0959 559.324 51.1279C557.084 47.1599 555.964 42.5839 555.964 37.3999C555.964 32.1519 557.084 27.5759 559.324 23.6719C561.628 19.7039 564.7 16.5999 568.54 14.3599C572.38 12.1199 576.668 10.9999 581.404 10.9999C586.524 10.9999 590.972 12.0239 594.748 14.0719C598.524 16.0559 601.468 18.8399 603.58 22.4239L609.34 17.1439C607.42 14.0079 605.052 11.3839 602.236 9.27194C599.484 7.15994 596.348 5.55994 592.828 4.47194C589.372 3.38394 585.564 2.83994 581.404 2.83994C576.54 2.83994 572.028 3.70394 567.868 5.43194C563.708 7.09594 560.092 9.49594 557.02 12.6319C553.948 15.7039 551.548 19.3519 549.82 23.5759C548.156 27.7999 547.324 32.4079 547.324 37.3999C547.324 42.3919 548.156 46.9999 549.82 51.2239C551.548 55.4479 553.948 59.1279 557.02 62.2639C560.092 65.3359 563.708 67.7359 567.868 69.4639C572.028 71.1279 576.54 71.9599 581.404 71.9599C586.524 71.9599 591.068 71.0319 595.036 69.1759C599.068 67.2559 602.46 64.6639 605.212 61.3999C607.964 58.1359 610.044 54.4239 611.452 50.2639C612.86 46.0399 613.564 41.5919 613.564 36.9199H582.364V44.5999Z" fill="white"/>
<path d="M630.114 70.9999H664.002V63.3199H630.114V70.9999ZM630.114 11.4799H664.002V3.79994H630.114V11.4799ZM630.114 38.3599H662.082V30.6799H630.114V38.3599ZM625.602 3.79994V70.9999H633.762V3.79994H625.602Z" fill="white"/>
<path d="M690.383 37.8799L713.423 70.9999H723.503L699.503 37.8799H690.383ZM678.383 3.79994V70.9999H686.543V3.79994H678.383ZM682.895 10.9999H696.623C699.503 10.9999 702.031 11.5119 704.207 12.5359C706.447 13.5599 708.175 15.0319 709.391 16.9519C710.671 18.8719 711.311 21.2079 711.311 23.9599C711.311 26.7119 710.671 29.0479 709.391 30.9679C708.175 32.8879 706.447 34.3599 704.207 35.3839C702.031 36.4079 699.503 36.9199 696.623 36.9199H682.895V44.1199H696.623C700.975 44.1199 704.847 43.3199 708.239 41.7199C711.695 40.0559 714.415 37.7199 716.399 34.7119C718.447 31.6399 719.471 28.0559 719.471 23.9599C719.471 19.7999 718.447 16.2159 716.399 13.2079C714.415 10.1999 711.695 7.89594 708.239 6.29594C704.847 4.63194 700.975 3.79994 696.623 3.79994H682.895V10.9999Z" fill="white"/>
<path d="M732.102 3.79994V70.9999H740.262V3.79994H732.102Z" fill="white"/>
<path d="M760.145 70.9999H794.033V63.3199H760.145V70.9999ZM760.145 11.4799H794.033V3.79994H760.145V11.4799ZM760.145 38.3599H792.113V30.6799H760.145V38.3599ZM755.633 3.79994V70.9999H763.793V3.79994H755.633Z" fill="white"/>
<path d="M843.627 35.4799H854.475C858.507 35.4799 861.995 34.9039 864.939 33.7519C867.947 32.5999 870.283 30.9039 871.947 28.6639C873.611 26.4239 874.443 23.7359 874.443 20.5999C874.443 16.7599 873.611 13.6239 871.947 11.1919C870.283 8.69594 867.947 6.83994 864.939 5.62394C861.995 4.40794 858.507 3.79994 854.475 3.79994H837.195V70.9999H855.435C859.787 70.9999 863.659 70.2959 867.051 68.8879C870.507 67.4159 873.227 65.2399 875.211 62.3599C877.259 59.4159 878.283 55.7359 878.283 51.3199C878.283 48.2479 877.707 45.5919 876.555 43.3519C875.403 41.1119 873.771 39.2879 871.659 37.8799C869.611 36.4079 867.211 35.3199 864.459 34.6159C861.707 33.9119 858.699 33.5599 855.435 33.5599H843.627V38.0719H855.435C857.611 38.0719 859.595 38.3599 861.387 38.9359C863.179 39.4479 864.715 40.2479 865.995 41.3359C867.339 42.4239 868.363 43.7679 869.067 45.3679C869.771 46.9679 870.123 48.7919 870.123 50.8399C870.123 53.5919 869.483 55.9279 868.203 57.8479C866.987 59.7679 865.259 61.2399 863.019 62.2639C860.843 63.2879 858.315 63.7999 855.435 63.7999H845.355V10.9999H854.475C857.867 10.9999 860.683 11.8959 862.923 13.6879C865.163 15.4159 866.283 17.8799 866.283 21.0799C866.283 23.1919 865.771 24.9839 864.747 26.4559C863.723 27.9279 862.315 29.0479 860.523 29.8159C858.731 30.5839 856.715 30.9679 854.475 30.9679H843.627V35.4799Z" fill="white"/>
<path d="M902.727 37.8799L925.767 70.9999H935.847L911.847 37.8799H902.727ZM890.727 3.79994V70.9999H898.887V3.79994H890.727ZM895.239 10.9999H908.967C911.847 10.9999 914.375 11.5119 916.551 12.5359C918.791 13.5599 920.519 15.0319 921.735 16.9519C923.015 18.8719 923.655 21.2079 923.655 23.9599C923.655 26.7119 923.015 29.0479 921.735 30.9679C920.519 32.8879 918.791 34.3599 916.551 35.3839C914.375 36.4079 911.847 36.9199 908.967 36.9199H895.239V44.1199H908.967C913.319 44.1199 917.191 43.3199 920.583 41.7199C924.039 40.0559 926.759 37.7199 928.743 34.7119C930.791 31.6399 931.815 28.0559 931.815 23.9599C931.815 19.7999 930.791 16.2159 928.743 13.2079C926.759 10.1999 924.039 7.89594 920.583 6.29594C917.191 4.63194 913.319 3.79994 908.967 3.79994H895.239V10.9999Z" fill="white"/>
<path d="M950.877 50.8399H986.397L983.517 43.1599H953.757L950.877 50.8399ZM968.445 18.9679L979.965 46.0399L980.733 47.9599L990.525 70.9999H999.645L968.445 0.439941L937.245 70.9999H946.365L956.349 47.3839L957.117 45.6559L968.445 18.9679Z" fill="white"/>
<path d="M1058.7 3.79994V53.8159L1007.82 0.439941V70.9999H1015.98V20.9839L1066.86 74.3599V3.79994H1058.7Z" fill="white"/>
<path d="M1082.26 3.79994V70.9999H1090.42V3.79994H1082.26ZM1102.42 70.9999C1108.95 70.9999 1114.74 69.5919 1119.79 66.7759C1124.85 63.9599 1128.82 60.0559 1131.7 55.0639C1134.58 50.0079 1136.02 44.1199 1136.02 37.3999C1136.02 30.6799 1134.58 24.8239 1131.7 19.8319C1128.82 14.7759 1124.85 10.8399 1119.79 8.02394C1114.74 5.20794 1108.95 3.79994 1102.42 3.79994H1086.77V11.9599H1102.42C1106.19 11.9599 1109.65 12.5679 1112.79 13.7839C1115.92 14.9359 1118.61 16.6319 1120.85 18.8719C1123.09 21.0479 1124.82 23.7039 1126.03 26.8399C1127.25 29.9759 1127.86 33.4959 1127.86 37.3999C1127.86 41.3039 1127.25 44.8239 1126.03 47.9599C1124.82 51.0959 1123.09 53.7839 1120.85 56.0239C1118.61 58.1999 1115.92 59.8959 1112.79 61.1119C1109.65 62.2639 1106.19 62.8399 1102.42 62.8399H1086.77V70.9999H1102.42Z" fill="white"/>
<path d="M182.652 147.4C182.652 142.152 183.804 137.576 186.108 133.672C188.476 129.704 191.548 126.6 195.324 124.36C199.1 122.12 203.196 121 207.612 121C210.812 121 213.724 121.416 216.348 122.248C219.036 123.08 221.468 124.264 223.644 125.8C225.82 127.272 227.676 129 229.212 130.984V120.232C226.396 117.736 223.324 115.88 219.996 114.664C216.668 113.448 212.54 112.84 207.612 112.84C202.94 112.84 198.556 113.704 194.46 115.432C190.428 117.096 186.876 119.496 183.804 122.632C180.732 125.704 178.332 129.352 176.604 133.576C174.876 137.8 174.012 142.408 174.012 147.4C174.012 152.392 174.876 157 176.604 161.224C178.332 165.448 180.732 169.128 183.804 172.264C186.876 175.336 190.428 177.736 194.46 179.464C198.556 181.128 202.94 181.96 207.612 181.96C212.54 181.96 216.668 181.352 219.996 180.136C223.324 178.92 226.396 177.064 229.212 174.568V163.816C227.676 165.8 225.82 167.56 223.644 169.096C221.468 170.568 219.036 171.72 216.348 172.552C213.724 173.384 210.812 173.8 207.612 173.8C203.196 173.8 199.1 172.68 195.324 170.44C191.548 168.2 188.476 165.096 186.108 161.128C183.804 157.16 182.652 152.584 182.652 147.4Z" fill="white"/>
<path d="M255.57 147.88L278.61 181H288.69L264.69 147.88H255.57ZM243.57 113.8V181H251.73V113.8H243.57ZM248.082 121H261.81C264.69 121 267.218 121.512 269.394 122.536C271.634 123.56 273.362 125.032 274.578 126.952C275.858 128.872 276.498 131.208 276.498 133.96C276.498 136.712 275.858 139.048 274.578 140.968C273.362 142.888 271.634 144.36 269.394 145.384C267.218 146.408 264.69 146.92 261.81 146.92H248.082V154.12H261.81C266.162 154.12 270.034 153.32 273.426 151.72C276.882 150.056 279.602 147.72 281.586 144.712C283.634 141.64 284.658 138.056 284.658 133.96C284.658 129.8 283.634 126.216 281.586 123.208C279.602 120.2 276.882 117.896 273.426 116.296C270.034 114.632 266.162 113.8 261.81 113.8H248.082V121Z" fill="white"/>
<path d="M301.801 181H335.689V173.32H301.801V181ZM301.801 121.48H335.689V113.8H301.801V121.48ZM301.801 148.36H333.769V140.68H301.801V148.36ZM297.289 113.8V181H305.449V113.8H297.289Z" fill="white"/>
<path d="M356.502 160.84H392.022L389.142 153.16H359.382L356.502 160.84ZM374.07 128.968L385.59 156.04L386.358 157.96L396.15 181H405.27L374.07 110.44L342.87 181H351.99L361.974 157.384L362.742 155.656L374.07 128.968Z" fill="white"/>
<path d="M399.975 121.48H417.255V181H425.415V121.48H442.695V113.8H399.975V121.48Z" fill="white"/>
<path d="M455.832 181H489.72V173.32H455.832V181ZM455.832 121.48H489.72V113.8H455.832V121.48ZM455.832 148.36H487.8V140.68H455.832V148.36ZM451.32 113.8V181H459.48V113.8H451.32Z" fill="white"/>
<path d="M504.102 113.8V181H512.262V113.8H504.102ZM524.262 181C530.79 181 536.582 179.592 541.638 176.776C546.694 173.96 550.662 170.056 553.542 165.064C556.422 160.008 557.862 154.12 557.862 147.4C557.862 140.68 556.422 134.824 553.542 129.832C550.662 124.776 546.694 120.84 541.638 118.024C536.582 115.208 530.79 113.8 524.262 113.8H508.614V121.96H524.262C528.038 121.96 531.494 122.568 534.63 123.784C537.766 124.936 540.454 126.632 542.694 128.872C544.934 131.048 546.662 133.704 547.878 136.84C549.094 139.976 549.702 143.496 549.702 147.4C549.702 151.304 549.094 154.824 547.878 157.96C546.662 161.096 544.934 163.784 542.694 166.024C540.454 168.2 537.766 169.896 534.63 171.112C531.494 172.264 528.038 172.84 524.262 172.84H508.614V181H524.262Z" fill="white"/>
<path d="M602.645 121.48H632.693V113.8H602.645V121.48ZM602.645 148.36H631.733V140.68H602.645V148.36ZM598.133 113.8V181H606.293V113.8H598.133Z" fill="white"/>
<path d="M650.933 147.4C650.933 142.344 652.021 137.832 654.197 133.864C656.437 129.896 659.477 126.76 663.317 124.456C667.157 122.152 671.509 121 676.373 121C681.301 121 685.653 122.152 689.429 124.456C693.269 126.76 696.277 129.896 698.453 133.864C700.693 137.832 701.813 142.344 701.813 147.4C701.813 152.456 700.693 156.968 698.453 160.936C696.277 164.904 693.269 168.04 689.429 170.344C685.653 172.648 681.301 173.8 676.373 173.8C671.509 173.8 667.157 172.648 663.317 170.344C659.477 168.04 656.437 164.904 654.197 160.936C652.021 156.968 650.933 152.456 650.933 147.4ZM642.293 147.4C642.293 152.264 643.125 156.808 644.789 161.032C646.517 165.256 648.917 168.936 651.989 172.072C655.061 175.144 658.677 177.576 662.837 179.368C666.997 181.096 671.509 181.96 676.373 181.96C681.301 181.96 685.813 181.096 689.909 179.368C694.069 177.576 697.685 175.144 700.757 172.072C703.829 168.936 706.197 165.256 707.861 161.032C709.589 156.808 710.453 152.264 710.453 147.4C710.453 142.472 709.589 137.928 707.861 133.768C706.197 129.544 703.829 125.896 700.757 122.824C697.685 119.688 694.069 117.256 689.909 115.528C685.813 113.736 681.301 112.84 676.373 112.84C671.509 112.84 666.997 113.736 662.837 115.528C658.677 117.256 655.061 119.688 651.989 122.824C648.917 125.896 646.517 129.544 644.789 133.768C643.125 137.928 642.293 142.472 642.293 147.4Z" fill="white"/>
<path d="M733.977 147.88L757.017 181H767.097L743.097 147.88H733.977ZM721.977 113.8V181H730.137V113.8H721.977ZM726.489 121H740.217C743.097 121 745.625 121.512 747.801 122.536C750.041 123.56 751.769 125.032 752.985 126.952C754.265 128.872 754.905 131.208 754.905 133.96C754.905 136.712 754.265 139.048 752.985 140.968C751.769 142.888 750.041 144.36 747.801 145.384C745.625 146.408 743.097 146.92 740.217 146.92H726.489V154.12H740.217C744.569 154.12 748.441 153.32 751.833 151.72C755.289 150.056 758.009 147.72 759.993 144.712C762.041 141.64 763.065 138.056 763.065 133.96C763.065 129.8 762.041 126.216 759.993 123.208C758.009 120.2 755.289 117.896 751.833 116.296C748.441 114.632 744.569 113.8 740.217 113.8H726.489V121Z" fill="white"/>
<path d="M797.757 121.48H815.037V181H823.197V121.48H840.477V113.8H797.757V121.48Z" fill="white"/>
<path d="M853.614 148.36H899.694V140.68H853.614V148.36ZM894.222 113.8V181H902.382V113.8H894.222ZM849.102 113.8V181H857.262V113.8H849.102Z" fill="white"/>
<path d="M922.239 181H956.127V173.32H922.239V181ZM922.239 121.48H956.127V113.8H922.239V121.48ZM922.239 148.36H954.207V140.68H922.239V148.36ZM917.727 113.8V181H925.887V113.8H917.727Z" fill="white"/>
<path d="M60.6479 245.592L82.5359 284.76L104.424 245.592L109.416 291H117.576L109.416 220.44L82.5359 269.112L55.6559 220.44L47.4959 291H55.6559L60.6479 245.592Z" fill="white"/>
<path d="M133.855 257.4C133.855 252.344 134.943 247.832 137.119 243.864C139.359 239.896 142.399 236.76 146.239 234.456C150.079 232.152 154.431 231 159.295 231C164.223 231 168.575 232.152 172.351 234.456C176.191 236.76 179.199 239.896 181.375 243.864C183.615 247.832 184.735 252.344 184.735 257.4C184.735 262.456 183.615 266.968 181.375 270.936C179.199 274.904 176.191 278.04 172.351 280.344C168.575 282.648 164.223 283.8 159.295 283.8C154.431 283.8 150.079 282.648 146.239 280.344C142.399 278.04 139.359 274.904 137.119 270.936C134.943 266.968 133.855 262.456 133.855 257.4ZM125.215 257.4C125.215 262.264 126.047 266.808 127.711 271.032C129.439 275.256 131.839 278.936 134.911 282.072C137.983 285.144 141.599 287.576 145.759 289.368C149.919 291.096 154.431 291.96 159.295 291.96C164.223 291.96 168.735 291.096 172.831 289.368C176.991 287.576 180.607 285.144 183.679 282.072C186.751 278.936 189.119 275.256 190.783 271.032C192.511 266.808 193.375 262.264 193.375 257.4C193.375 252.472 192.511 247.928 190.783 243.768C189.119 239.544 186.751 235.896 183.679 232.824C180.607 229.688 176.991 227.256 172.831 225.528C168.735 223.736 164.223 222.84 159.295 222.84C154.431 222.84 149.919 223.736 145.759 225.528C141.599 227.256 137.983 229.688 134.911 232.824C131.839 235.896 129.439 239.544 127.711 243.768C126.047 247.928 125.215 252.472 125.215 257.4Z" fill="white"/>
<path d="M207.394 270.648L200.866 275.064C202.338 278.008 204.226 280.792 206.53 283.416C208.898 285.976 211.618 288.056 214.69 289.656C217.826 291.192 221.218 291.96 224.866 291.96C227.554 291.96 230.114 291.512 232.546 290.616C235.042 289.72 237.25 288.44 239.17 286.776C241.154 285.112 242.69 283.096 243.778 280.728C244.93 278.36 245.506 275.704 245.506 272.76C245.506 269.688 244.962 267.064 243.874 264.888C242.786 262.648 241.378 260.76 239.65 259.224C237.986 257.624 236.162 256.312 234.178 255.288C232.194 254.264 230.306 253.432 228.514 252.792C224.61 251.448 221.506 250.104 219.202 248.76C216.962 247.352 215.362 245.88 214.402 244.344C213.442 242.744 212.962 241.016 212.962 239.16C212.962 236.984 213.794 235.032 215.458 233.304C217.122 231.512 219.778 230.616 223.426 230.616C226.05 230.616 228.258 231.128 230.05 232.152C231.906 233.176 233.474 234.488 234.754 236.088C236.034 237.688 237.09 239.32 237.922 240.984L244.93 236.952C243.842 234.584 242.338 232.344 240.418 230.232C238.498 228.056 236.162 226.296 233.41 224.952C230.722 223.544 227.554 222.84 223.906 222.84C220.13 222.84 216.77 223.608 213.826 225.144C210.882 226.616 208.578 228.664 206.914 231.288C205.25 233.912 204.418 236.888 204.418 240.216C204.418 243.288 204.994 245.88 206.146 247.992C207.362 250.104 208.898 251.896 210.754 253.368C212.61 254.776 214.562 255.96 216.61 256.92C218.658 257.816 220.514 258.552 222.178 259.128C224.738 260.024 227.138 261.048 229.378 262.2C231.682 263.288 233.538 264.728 234.946 266.52C236.354 268.312 237.058 270.712 237.058 273.72C237.058 276.792 235.97 279.32 233.794 281.304C231.618 283.288 228.738 284.28 225.154 284.28C222.466 284.28 220.066 283.704 217.954 282.552C215.842 281.4 213.922 279.8 212.194 277.752C210.53 275.704 208.93 273.336 207.394 270.648Z" fill="white"/>
<path d="M250.772 231.48H268.052V291H276.212V231.48H293.492V223.8H250.772V231.48Z" fill="white"/>
<path d="M333.394 270.648L326.866 275.064C328.338 278.008 330.226 280.792 332.53 283.416C334.898 285.976 337.618 288.056 340.69 289.656C343.826 291.192 347.218 291.96 350.866 291.96C353.554 291.96 356.114 291.512 358.546 290.616C361.042 289.72 363.25 288.44 365.17 286.776C367.154 285.112 368.69 283.096 369.778 280.728C370.93 278.36 371.506 275.704 371.506 272.76C371.506 269.688 370.962 267.064 369.874 264.888C368.786 262.648 367.378 260.76 365.65 259.224C363.986 257.624 362.162 256.312 360.178 255.288C358.194 254.264 356.306 253.432 354.514 252.792C350.61 251.448 347.506 250.104 345.202 248.76C342.962 247.352 341.362 245.88 340.402 244.344C339.442 242.744 338.962 241.016 338.962 239.16C338.962 236.984 339.794 235.032 341.458 233.304C343.122 231.512 345.778 230.616 349.426 230.616C352.05 230.616 354.258 231.128 356.05 232.152C357.906 233.176 359.474 234.488 360.754 236.088C362.034 237.688 363.09 239.32 363.922 240.984L370.93 236.952C369.842 234.584 368.338 232.344 366.418 230.232C364.498 228.056 362.162 226.296 359.41 224.952C356.722 223.544 353.554 222.84 349.906 222.84C346.13 222.84 342.77 223.608 339.826 225.144C336.882 226.616 334.578 228.664 332.914 231.288C331.25 233.912 330.418 236.888 330.418 240.216C330.418 243.288 330.994 245.88 332.146 247.992C333.362 250.104 334.898 251.896 336.754 253.368C338.61 254.776 340.562 255.96 342.61 256.92C344.658 257.816 346.514 258.552 348.178 259.128C350.738 260.024 353.138 261.048 355.378 262.2C357.682 263.288 359.538 264.728 360.946 266.52C362.354 268.312 363.058 270.712 363.058 273.72C363.058 276.792 361.97 279.32 359.794 281.304C357.618 283.288 354.738 284.28 351.154 284.28C348.466 284.28 346.066 283.704 343.954 282.552C341.842 281.4 339.922 279.8 338.194 277.752C336.53 275.704 334.93 273.336 333.394 270.648Z" fill="white"/>
<path d="M388.004 291H421.892V283.32H388.004V291ZM388.004 231.48H421.892V223.8H388.004V231.48ZM388.004 258.36H419.972V250.68H388.004V258.36ZM383.492 223.8V291H391.652V223.8H383.492Z" fill="white"/>
<path d="M487.153 223.8V273.816L436.273 220.44V291H444.433V240.984L495.313 294.36V223.8H487.153Z" fill="white"/>
<path d="M513.207 270.648L506.679 275.064C508.151 278.008 510.039 280.792 512.343 283.416C514.711 285.976 517.431 288.056 520.503 289.656C523.639 291.192 527.031 291.96 530.679 291.96C533.367 291.96 535.927 291.512 538.359 290.616C540.855 289.72 543.063 288.44 544.983 286.776C546.967 285.112 548.503 283.096 549.591 280.728C550.743 278.36 551.319 275.704 551.319 272.76C551.319 269.688 550.775 267.064 549.687 264.888C548.599 262.648 547.191 260.76 545.463 259.224C543.799 257.624 541.975 256.312 539.991 255.288C538.007 254.264 536.119 253.432 534.327 252.792C530.423 251.448 527.319 250.104 525.015 248.76C522.775 247.352 521.175 245.88 520.215 244.344C519.255 242.744 518.775 241.016 518.775 239.16C518.775 236.984 519.607 235.032 521.271 233.304C522.935 231.512 525.591 230.616 529.239 230.616C531.863 230.616 534.071 231.128 535.863 232.152C537.719 233.176 539.287 234.488 540.567 236.088C541.847 237.688 542.903 239.32 543.735 240.984L550.743 236.952C549.655 234.584 548.151 232.344 546.231 230.232C544.311 228.056 541.975 226.296 539.223 224.952C536.535 223.544 533.367 222.84 529.719 222.84C525.943 222.84 522.583 223.608 519.639 225.144C516.695 226.616 514.391 228.664 512.727 231.288C511.063 233.912 510.231 236.888 510.231 240.216C510.231 243.288 510.807 245.88 511.959 247.992C513.175 250.104 514.711 251.896 516.567 253.368C518.423 254.776 520.375 255.96 522.423 256.92C524.471 257.816 526.327 258.552 527.991 259.128C530.551 260.024 532.951 261.048 535.191 262.2C537.495 263.288 539.351 264.728 540.759 266.52C542.167 268.312 542.871 270.712 542.871 273.72C542.871 276.792 541.783 279.32 539.607 281.304C537.431 283.288 534.551 284.28 530.967 284.28C528.279 284.28 525.879 283.704 523.767 282.552C521.655 281.4 519.735 279.8 518.007 277.752C516.343 275.704 514.743 273.336 513.207 270.648Z" fill="white"/>
<path d="M562.825 223.8V268.92C562.825 272.248 563.337 275.32 564.361 278.136C565.449 280.952 566.985 283.384 568.969 285.432C571.017 287.48 573.449 289.08 576.265 290.232C579.081 291.384 582.217 291.96 585.673 291.96C589.129 291.96 592.265 291.384 595.081 290.232C597.897 289.08 600.297 287.48 602.281 285.432C604.329 283.384 605.865 280.952 606.889 278.136C607.977 275.32 608.521 272.248 608.521 268.92V223.8H600.361V268.92C600.361 273.528 599.113 277.24 596.617 280.056C594.121 282.872 590.473 284.28 585.673 284.28C580.873 284.28 577.225 282.872 574.729 280.056C572.233 277.24 570.985 273.528 570.985 268.92V223.8H562.825Z" fill="white"/>
<path d="M629.83 270.84H665.35L662.47 263.16H632.71L629.83 270.84ZM647.398 238.968L658.918 266.04L659.686 267.96L669.478 291H678.598L647.398 220.44L616.198 291H625.318L635.302 267.384L636.07 265.656L647.398 238.968Z" fill="white"/>
<path d="M686.773 223.8V291H721.333V283.32H694.933V223.8H686.773Z" fill="white"/>
<path d="M809.653 223.8V273.816L758.773 220.44V291H766.933V240.984L817.813 294.36V223.8H809.653Z" fill="white"/>
<path d="M833.211 223.8V291H841.371V223.8H833.211Z" fill="white"/>
<path d="M887.942 264.6H910.31C909.734 267.224 908.806 269.688 907.526 271.992C906.31 274.296 904.742 276.344 902.822 278.136C900.902 279.928 898.598 281.336 895.91 282.36C893.286 283.32 890.31 283.8 886.982 283.8C882.246 283.8 877.958 282.68 874.118 280.44C870.278 278.2 867.206 275.096 864.902 271.128C862.662 267.16 861.542 262.584 861.542 257.4C861.542 252.152 862.662 247.576 864.902 243.672C867.206 239.704 870.278 236.6 874.118 234.36C877.958 232.12 882.246 231 886.982 231C892.102 231 896.55 232.024 900.326 234.072C904.102 236.056 907.046 238.84 909.158 242.424L914.918 237.144C912.998 234.008 910.63 231.384 907.814 229.272C905.062 227.16 901.926 225.56 898.406 224.472C894.95 223.384 891.142 222.84 886.982 222.84C882.118 222.84 877.606 223.704 873.446 225.432C869.286 227.096 865.67 229.496 862.598 232.632C859.526 235.704 857.126 239.352 855.398 243.576C853.734 247.8 852.902 252.408 852.902 257.4C852.902 262.392 853.734 267 855.398 271.224C857.126 275.448 859.526 279.128 862.598 282.264C865.67 285.336 869.286 287.736 873.446 289.464C877.606 291.128 882.118 291.96 886.982 291.96C892.102 291.96 896.646 291.032 900.614 289.176C904.646 287.256 908.038 284.664 910.79 281.4C913.542 278.136 915.622 274.424 917.03 270.264C918.438 266.04 919.142 261.592 919.142 256.92H887.942V264.6Z" fill="white"/>
<path d="M935.692 258.36H981.772V250.68H935.692V258.36ZM976.3 223.8V291H984.46V223.8H976.3ZM931.18 223.8V291H939.34V223.8H931.18Z" fill="white"/>
<path d="M993.085 231.48H1010.36V291H1018.52V231.48H1035.8V223.8H993.085V231.48Z" fill="white"/>
<path d="M1046.93 270.648L1040.4 275.064C1041.87 278.008 1043.76 280.792 1046.06 283.416C1048.43 285.976 1051.15 288.056 1054.22 289.656C1057.36 291.192 1060.75 291.96 1064.4 291.96C1067.09 291.96 1069.65 291.512 1072.08 290.616C1074.57 289.72 1076.78 288.44 1078.7 286.776C1080.69 285.112 1082.22 283.096 1083.31 280.728C1084.46 278.36 1085.04 275.704 1085.04 272.76C1085.04 269.688 1084.49 267.064 1083.41 264.888C1082.32 262.648 1080.91 260.76 1079.18 259.224C1077.52 257.624 1075.69 256.312 1073.71 255.288C1071.73 254.264 1069.84 253.432 1068.05 252.792C1064.14 251.448 1061.04 250.104 1058.73 248.76C1056.49 247.352 1054.89 245.88 1053.93 244.344C1052.97 242.744 1052.49 241.016 1052.49 239.16C1052.49 236.984 1053.33 235.032 1054.99 233.304C1056.65 231.512 1059.31 230.616 1062.96 230.616C1065.58 230.616 1067.79 231.128 1069.58 232.152C1071.44 233.176 1073.01 234.488 1074.29 236.088C1075.57 237.688 1076.62 239.32 1077.45 240.984L1084.46 236.952C1083.37 234.584 1081.87 232.344 1079.95 230.232C1078.03 228.056 1075.69 226.296 1072.94 224.952C1070.25 223.544 1067.09 222.84 1063.44 222.84C1059.66 222.84 1056.3 223.608 1053.36 225.144C1050.41 226.616 1048.11 228.664 1046.45 231.288C1044.78 233.912 1043.95 236.888 1043.95 240.216C1043.95 243.288 1044.53 245.88 1045.68 247.992C1046.89 250.104 1048.43 251.896 1050.29 253.368C1052.14 254.776 1054.09 255.96 1056.14 256.92C1058.19 257.816 1060.05 258.552 1061.71 259.128C1064.27 260.024 1066.67 261.048 1068.91 262.2C1071.21 263.288 1073.07 264.728 1074.48 266.52C1075.89 268.312 1076.59 270.712 1076.59 273.72C1076.59 276.792 1075.5 279.32 1073.33 281.304C1071.15 283.288 1068.27 284.28 1064.69 284.28C1062 284.28 1059.6 283.704 1057.49 282.552C1055.37 281.4 1053.45 279.8 1051.73 277.752C1050.06 275.704 1048.46 273.336 1046.93 270.648Z" fill="white"/>
</svg>
